<svg width="191" height="191" viewBox="0 0 191 191" fill="none" xmlns="http://www.w3.org/2000/svg">
<path d="M3.40745 108.488C3.53897 108.937 3.77203 109.351 4.08863 109.696C4.40523 110.041 4.79691 110.308 5.23341 110.478C6.12887 110.843 7.08974 111.02 8.05639 110.998H186.924C189.705 110.077 189.415 107.896 189.193 106.975C189.025 106.288 187.906 105.229 187.115 105.516C187.476 105.386 187.777 105.129 187.962 104.794C188.147 104.458 188.204 104.067 188.121 103.693C188.039 103.318 187.823 102.987 187.514 102.76C187.205 102.533 186.825 102.426 186.443 102.46C186.87 102.205 187.215 101.834 187.437 101.389C187.659 100.944 187.749 100.445 187.696 99.9502C187.616 99.462 187.368 99.0169 186.995 98.6924C186.622 98.3679 186.147 98.1845 185.652 98.1739C186.026 97.8932 186.336 97.5355 186.56 97.1249C186.784 96.7144 186.917 96.2605 186.951 95.794C186.975 95.3263 186.87 94.8609 186.648 94.4482C186.427 94.0355 186.097 93.6912 185.694 93.4524C185.285 93.2265 184.812 93.1415 184.35 93.2106C183.887 93.2796 183.46 93.4988 183.135 93.8344C183.143 93.5228 183.073 93.2142 182.931 92.9367C182.789 92.6591 182.58 92.4214 182.323 92.2452C182.066 92.069 181.769 91.96 181.459 91.928C181.149 91.8959 180.836 91.942 180.549 92.0619C180.816 91.7122 181.009 91.3117 181.117 90.8849C181.225 90.458 181.245 90.0136 181.175 89.5789C181.094 89.1461 180.883 88.7481 180.571 88.4377C180.258 88.1273 179.859 87.9192 179.425 87.8408C179.831 87.6004 180.159 87.2498 180.373 86.8298C180.587 86.4098 180.677 85.9377 180.633 85.4686C180.491 84.1774 178.398 82.1948 177.195 83.6503C177.575 83.1782 177.801 82.5998 177.84 81.9945C177.879 81.3891 177.729 80.7866 177.412 80.2696C177.07 79.7689 176.564 79.4034 175.981 79.236C175.398 79.0687 174.775 79.1099 174.219 79.3528C174.543 78.7782 174.653 78.1075 174.531 77.4593C174.408 76.8112 174.06 76.2272 173.549 75.8107C173.037 75.3943 172.395 75.1721 171.735 75.1834C171.075 75.1947 170.441 75.4389 169.944 75.8727C170.064 75.43 170.096 74.9679 170.037 74.5129C169.978 74.058 169.829 73.6192 169.6 73.2217C169.301 72.7507 168.852 72.3943 168.325 72.2099C167.798 72.0256 167.225 72.024 166.697 72.2055C166.094 72.3889 164.317 73.5082 164.615 74.3791C164.46 73.9223 164.155 73.531 163.75 73.2683C163.345 73.0056 162.864 72.8868 162.383 72.9309C161.902 72.975 161.451 73.1794 161.1 73.5114C160.75 73.8434 160.521 74.2836 160.451 74.7611C160.5 74.3592 160.466 73.9517 160.354 73.5629C160.242 73.174 160.052 72.8117 159.797 72.4974C159.542 72.1832 159.226 71.9234 158.869 71.7335C158.512 71.5435 158.12 71.4274 157.716 71.3919C158.158 71.2749 158.543 71.0037 158.801 70.6273C159.06 70.251 159.175 69.7945 159.126 69.3405C159.064 68.8892 158.896 68.4589 158.636 68.085C158.376 67.7112 158.03 67.4044 157.628 67.1899C157.931 66.938 158.144 66.5947 158.235 66.2116C158.327 65.8285 158.291 65.4262 158.135 65.0648C157.978 64.7034 157.709 64.4025 157.367 64.2072C157.025 64.0118 156.629 63.9325 156.238 63.9811C156.147 63.3611 155.831 62.7961 155.351 62.3934C154.87 61.9907 154.259 61.7781 153.633 61.796C153.008 61.8467 152.411 62.0807 151.919 62.4687C151.426 62.8567 151.059 63.3815 150.863 63.9773C150.304 63.6792 149.67 63.5533 149.04 63.6152C148.409 63.6772 147.811 63.9242 147.321 64.3253C146.831 64.7264 146.471 65.2636 146.285 65.8692C146.1 66.4748 146.098 67.1217 146.279 67.7285C145.654 67.0752 144.846 66.6265 143.961 66.4412C143.074 66.3113 142.051 66.6971 141.699 67.5184C141.39 66.5978 140.874 65.6848 140.018 65.2264C139.163 64.768 137.929 64.9284 137.447 65.7688C137.37 65.2826 137.2 64.8158 136.947 64.3936C136.821 64.1838 136.677 63.9857 136.515 63.8015C136.447 63.7251 136.382 63.6411 136.313 63.5723C136.291 63.5451 136.266 63.5195 136.24 63.4959C136.172 63.4386 135.805 63.2438 135.725 63.2782C136.657 62.8733 136.714 61.437 136.019 60.6997C135.324 59.9624 134.204 59.802 133.196 59.8937C133.21 59.5903 133.163 59.2872 133.057 59.0026C132.951 58.7179 132.788 58.4576 132.579 58.2373C132.37 58.017 132.119 57.8412 131.84 57.7204C131.562 57.5997 131.262 57.5366 130.958 57.5348C130.654 57.5329 130.353 57.5925 130.073 57.71C129.793 57.8274 129.54 58.0002 129.328 58.218C129.116 58.4358 128.951 58.6942 128.842 58.9775C128.732 59.2609 128.681 59.5634 128.692 59.8669C128.222 58.8928 126.717 58.889 125.907 59.6034C125.097 60.3177 124.811 61.4408 124.593 62.4989C124.087 61.9897 123.419 61.673 122.704 61.6033C121.989 61.5336 121.273 61.7152 120.678 62.1169C120.766 61.7256 120.772 61.3205 120.698 60.9265C120.623 60.5325 120.468 60.1579 120.243 59.8261C120.018 59.4942 119.727 59.2121 119.388 58.997C119.05 58.782 118.671 58.6386 118.275 58.5758C118.985 57.2617 117.553 55.5962 116.059 55.5656C114.566 55.5351 113.267 56.5703 112.274 57.6857C110.146 56.5856 107.166 58.6063 107.407 60.99C105.902 59.1793 102.647 59.3207 101.295 61.2574C101.06 60.495 100.54 59.8525 99.8437 59.4634C99.1473 59.0742 98.3276 58.9684 97.5552 59.1679C98.1931 57.2235 95.6872 55.1225 93.8803 56.089C93.8916 55.7498 93.828 55.4123 93.694 55.1005C93.5601 54.7887 93.3592 54.5102 93.1055 54.2848C92.8518 54.0594 92.5516 53.8927 92.2262 53.7964C91.9008 53.7001 91.5582 53.6767 91.2227 53.7277C90.8872 53.7788 90.5671 53.9031 90.2851 54.0918C90.0031 54.2806 89.7661 54.5291 89.591 54.8198C89.4158 55.1104 89.3068 55.4361 89.2718 55.7736C89.2367 56.1112 89.2764 56.4523 89.388 56.7727C87.3023 56.5588 85.5451 59.1908 86.5421 61.0359C85.9678 60.6793 85.2782 60.5578 84.6166 60.6965C83.9549 60.8352 83.3722 61.2235 82.9895 61.7808C83.3715 60.8525 82.1911 59.7638 81.2896 60.1916C81.4174 59.7183 81.3621 59.2141 81.1345 58.7797C80.907 58.3454 80.524 58.0128 80.0621 57.8484C79.6001 57.684 79.0932 57.6998 78.6424 57.8927C78.1916 58.0855 77.8301 58.4413 77.6301 58.889C77.653 57.743 76.1403 57.0058 75.0554 57.4336C73.9705 57.8614 73.3516 59.0151 73.0728 60.1458C72.3661 58.5223 69.6653 58.3657 68.7753 59.8975C68.8013 58.9915 68.4823 58.1095 67.8827 57.4298C67.2832 56.7501 66.4479 56.3234 65.5458 56.2361C64.6437 56.1487 63.7421 56.4072 63.0233 56.9593C62.3045 57.5114 61.8222 58.3158 61.6739 59.2099C61.3026 58.5613 60.7066 58.0713 59.9984 57.8324C59.2903 57.5935 58.5192 57.6225 57.8309 57.9137C57.1426 58.2049 56.5849 58.7382 56.2633 59.4128C55.9416 60.0873 55.8783 60.8564 56.0853 61.5745C53.9499 61.223 52.2996 64.3898 53.8123 65.9331C52.9681 64.875 50.9932 65.1385 50.4622 66.3839C50.9474 65.1576 49.6982 63.6335 48.388 63.8818C48.5169 63.5811 48.58 63.2564 48.573 62.9294C48.566 62.6023 48.4891 62.2806 48.3474 61.9858C48.2058 61.6909 48.0027 61.4298 47.7517 61.22C47.5008 61.0102 47.2078 60.8565 46.8926 60.7693C46.5773 60.6821 46.247 60.6634 45.9239 60.7144C45.6008 60.7655 45.2924 60.885 45.0194 61.0652C44.7463 61.2453 44.515 61.4818 44.3409 61.7587C44.1669 62.0357 44.0541 62.3467 44.0102 62.6708C43.2195 61.2612 40.9237 61.5248 39.8923 62.7701C38.8609 64.0155 38.7463 65.7497 38.6584 67.3541C37.8295 66.7353 36.5421 67.4764 36.2938 68.481C36.0455 69.4857 36.523 70.5209 37.1037 71.3766C36.3444 71.1985 35.5464 71.3016 34.8573 71.6668C34.1683 72.0321 33.635 72.6347 33.3563 73.363C33.4416 72.9175 33.3677 72.4562 33.1473 72.0598C32.9269 71.6634 32.5741 71.3571 32.1506 71.1946C31.7272 71.032 31.26 71.0235 30.831 71.1707C30.4019 71.3178 30.0383 71.6111 29.8037 71.9993C30.7319 70.4942 26.423 70.9793 25.9531 71.3002C25.5329 71.5908 25.1911 71.9806 24.9578 72.4351C24.7246 72.8896 24.6072 73.3947 24.6161 73.9054C23.2103 73.4623 21.5601 73.5731 20.4332 74.5472C19.3063 75.5213 19.0886 77.4695 20.1887 78.4551C17.6752 76.9958 16.0708 81.4538 16.468 83.2912C15.7779 82.8941 14.9774 82.7319 14.1871 82.829C13.3968 82.9261 12.6594 83.2772 12.086 83.8296C11.5125 84.382 11.1339 85.1057 11.0072 85.8918C10.8806 86.6779 11.0127 87.4839 11.3836 88.1884C11.1682 88.1089 10.9391 88.0733 10.7097 88.0838C10.4804 88.0943 10.2554 88.1506 10.0482 88.2495C9.84098 88.3483 9.65565 88.4877 9.50316 88.6593C9.35067 88.831 9.2341 89.0314 9.16035 89.2488C9.0866 89.4663 9.05715 89.6963 9.07375 89.9253C9.09034 90.1543 9.15264 90.3776 9.25697 90.5821C9.3613 90.7867 9.50554 90.9682 9.68118 91.1161C9.85683 91.264 10.0603 91.3751 10.2796 91.4431C7.67821 90.6791 6.31829 94.1171 8.03347 95.8399C7.04235 95.7948 6.06043 96.0476 5.21431 96.5657C4.79729 96.8292 4.45453 97.195 4.21853 97.6282C3.98254 98.0614 3.86114 98.5477 3.86585 99.041C3.89222 99.5339 4.09509 100.001 4.43738 100.356C4.77967 100.712 5.2385 100.933 5.73001 100.978C5.21587 101.135 4.74975 101.419 4.37506 101.804C4.00036 102.19 3.72926 102.664 3.58699 103.182C3.35779 104.229 3.96899 105.474 5.00421 105.722C4.4474 105.91 3.97819 106.295 3.68431 106.804C3.39044 107.313 3.29202 107.912 3.40745 108.488Z" fill="#E0E0E0"/>
<path opacity="0.1" d="M3.40745 108.488C3.53897 108.937 3.77203 109.351 4.08863 109.696C4.40523 110.041 4.79691 110.308 5.23341 110.478C6.12887 110.843 7.08974 111.02 8.05639 110.998H186.924C189.705 110.077 189.415 107.896 189.193 106.975C189.025 106.288 187.906 105.229 187.115 105.516C187.476 105.386 187.777 105.129 187.962 104.794C188.147 104.458 188.204 104.067 188.121 103.693C188.039 103.318 187.823 102.987 187.514 102.76C187.205 102.533 186.825 102.426 186.443 102.46C186.87 102.205 187.215 101.834 187.437 101.389C187.659 100.944 187.749 100.445 187.696 99.9502C187.616 99.462 187.368 99.0169 186.995 98.6924C186.622 98.3679 186.147 98.1845 185.652 98.1739C186.026 97.8932 186.336 97.5355 186.56 97.1249C186.784 96.7144 186.917 96.2605 186.951 95.794C186.975 95.3263 186.87 94.8609 186.648 94.4482C186.427 94.0355 186.097 93.6912 185.694 93.4524C185.285 93.2265 184.812 93.1415 184.35 93.2106C183.887 93.2796 183.46 93.4988 183.135 93.8344C183.143 93.5228 183.073 93.2142 182.931 92.9367C182.789 92.6591 182.58 92.4214 182.323 92.2452C182.066 92.069 181.769 91.96 181.459 91.928C181.149 91.8959 180.836 91.942 180.549 92.0619C180.816 91.7122 181.009 91.3117 181.117 90.8849C181.225 90.458 181.245 90.0136 181.175 89.5789C181.094 89.1461 180.883 88.7481 180.571 88.4377C180.258 88.1273 179.859 87.9192 179.425 87.8408C179.831 87.6004 180.159 87.2498 180.373 86.8298C180.587 86.4098 180.677 85.9377 180.633 85.4686C180.491 84.1774 178.398 82.1948 177.195 83.6503C177.575 83.1782 177.801 82.5998 177.84 81.9945C177.879 81.3891 177.729 80.7866 177.412 80.2696C177.07 79.7689 176.564 79.4034 175.981 79.236C175.398 79.0687 174.775 79.1099 174.219 79.3528C174.543 78.7782 174.653 78.1075 174.531 77.4593C174.408 76.8112 174.06 76.2272 173.549 75.8107C173.037 75.3943 172.395 75.1721 171.735 75.1834C171.075 75.1947 170.441 75.4389 169.944 75.8727C170.064 75.43 170.096 74.9679 170.037 74.5129C169.978 74.058 169.829 73.6192 169.6 73.2217C169.301 72.7507 168.852 72.3943 168.325 72.2099C167.798 72.0256 167.225 72.024 166.697 72.2055C166.094 72.3889 164.317 73.5082 164.615 74.3791C164.46 73.9223 164.155 73.531 163.75 73.2683C163.345 73.0056 162.864 72.8868 162.383 72.9309C161.902 72.975 161.451 73.1794 161.1 73.5114C160.75 73.8434 160.521 74.2836 160.451 74.7611C160.5 74.3592 160.466 73.9517 160.354 73.5629C160.242 73.174 160.052 72.8117 159.797 72.4974C159.542 72.1832 159.226 71.9234 158.869 71.7335C158.512 71.5435 158.12 71.4274 157.716 71.3919C158.158 71.2749 158.543 71.0037 158.801 70.6273C159.06 70.251 159.175 69.7945 159.126 69.3405C159.064 68.8892 158.896 68.4589 158.636 68.085C158.376 67.7112 158.03 67.4044 157.628 67.1899C157.931 66.938 158.144 66.5947 158.235 66.2116C158.327 65.8285 158.291 65.4262 158.135 65.0648C157.978 64.7034 157.709 64.4025 157.367 64.2072C157.025 64.0118 156.629 63.9325 156.238 63.9811C156.147 63.3611 155.831 62.7961 155.351 62.3934C154.87 61.9907 154.259 61.7781 153.633 61.796C153.008 61.8467 152.411 62.0807 151.919 62.4687C151.426 62.8567 151.059 63.3815 150.863 63.9773C150.304 63.6792 149.67 63.5533 149.04 63.6152C148.409 63.6772 147.811 63.9242 147.321 64.3253C146.831 64.7264 146.471 65.2636 146.285 65.8692C146.1 66.4748 146.098 67.1217 146.279 67.7285C145.654 67.0752 144.846 66.6265 143.961 66.4412C143.074 66.3113 142.051 66.6971 141.699 67.5184C141.39 66.5978 140.874 65.6848 140.018 65.2264C139.163 64.768 137.929 64.9284 137.447 65.7688C137.37 65.2826 137.2 64.8158 136.947 64.3936C136.821 64.1838 136.677 63.9857 136.515 63.8015C136.447 63.7251 136.382 63.6411 136.313 63.5723C136.291 63.5451 136.266 63.5195 136.24 63.4959C136.172 63.4386 135.805 63.2438 135.725 63.2782C136.657 62.8733 136.714 61.437 136.019 60.6997C135.324 59.9624 134.204 59.802 133.196 59.8937C133.21 59.5903 133.163 59.2872 133.057 59.0026C132.951 58.7179 132.788 58.4576 132.579 58.2373C132.37 58.017 132.119 57.8412 131.84 57.7204C131.562 57.5997 131.262 57.5366 130.958 57.5348C130.654 57.5329 130.353 57.5925 130.073 57.71C129.793 57.8274 129.54 58.0002 129.328 58.218C129.116 58.4358 128.951 58.6942 128.842 58.9775C128.732 59.2609 128.681 59.5634 128.692 59.8669C128.222 58.8928 126.717 58.889 125.907 59.6034C125.097 60.3177 124.811 61.4408 124.593 62.4989C124.087 61.9897 123.419 61.673 122.704 61.6033C121.989 61.5336 121.273 61.7152 120.678 62.1169C120.766 61.7256 120.772 61.3205 120.698 60.9265C120.623 60.5325 120.468 60.1579 120.243 59.8261C120.018 59.4942 119.727 59.2121 119.388 58.997C119.05 58.782 118.671 58.6386 118.275 58.5758C118.985 57.2617 117.553 55.5962 116.059 55.5656C114.566 55.5351 113.267 56.5703 112.274 57.6857C110.146 56.5856 107.166 58.6063 107.407 60.99C105.902 59.1793 102.647 59.3207 101.295 61.2574C101.06 60.495 100.54 59.8525 99.8437 59.4634C99.1473 59.0742 98.3276 58.9684 97.5552 59.1679C98.1931 57.2235 95.6872 55.1225 93.8803 56.089C93.8916 55.7498 93.828 55.4123 93.694 55.1005C93.5601 54.7887 93.3592 54.5102 93.1055 54.2848C92.8518 54.0594 92.5516 53.8927 92.2262 53.7964C91.9008 53.7001 91.5582 53.6767 91.2227 53.7277C90.8872 53.7788 90.5671 53.9031 90.2851 54.0918C90.0031 54.2806 89.7661 54.5291 89.591 54.8198C89.4158 55.1104 89.3068 55.4361 89.2718 55.7736C89.2367 56.1112 89.2764 56.4523 89.388 56.7727C87.3023 56.5588 85.5451 59.1908 86.5421 61.0359C85.9678 60.6793 85.2782 60.5578 84.6166 60.6965C83.9549 60.8352 83.3722 61.2235 82.9895 61.7808C83.3715 60.8525 82.1911 59.7638 81.2896 60.1916C81.4174 59.7183 81.3621 59.2141 81.1345 58.7797C80.907 58.3454 80.524 58.0128 80.0621 57.8484C79.6001 57.684 79.0932 57.6998 78.6424 57.8927C78.1916 58.0855 77.8301 58.4413 77.6301 58.889C77.653 57.743 76.1403 57.0058 75.0554 57.4336C73.9705 57.8614 73.3516 59.0151 73.0728 60.1458C72.3661 58.5223 69.6653 58.3657 68.7753 59.8975C68.8013 58.9915 68.4823 58.1095 67.8827 57.4298C67.2832 56.7501 66.4479 56.3234 65.5458 56.2361C64.6437 56.1487 63.7421 56.4072 63.0233 56.9593C62.3045 57.5114 61.8222 58.3158 61.6739 59.2099C61.3026 58.5613 60.7066 58.0713 59.9984 57.8324C59.2903 57.5935 58.5192 57.6225 57.8309 57.9137C57.1426 58.2049 56.5849 58.7382 56.2633 59.4128C55.9416 60.0873 55.8783 60.8564 56.0853 61.5745C53.9499 61.223 52.2996 64.3898 53.8123 65.9331C52.9681 64.875 50.9932 65.1385 50.4622 66.3839C50.9474 65.1576 49.6982 63.6335 48.388 63.8818C48.5169 63.5811 48.58 63.2564 48.573 62.9294C48.566 62.6023 48.4891 62.2806 48.3474 61.9858C48.2058 61.6909 48.0027 61.4298 47.7517 61.22C47.5008 61.0102 47.2078 60.8565 46.8926 60.7693C46.5773 60.6821 46.247 60.6634 45.9239 60.7144C45.6008 60.7655 45.2924 60.885 45.0194 61.0652C44.7463 61.2453 44.515 61.4818 44.3409 61.7587C44.1669 62.0357 44.0541 62.3467 44.0102 62.6708C43.2195 61.2612 40.9237 61.5248 39.8923 62.7701C38.8609 64.0155 38.7463 65.7497 38.6584 67.3541C37.8295 66.7353 36.5421 67.4764 36.2938 68.481C36.0455 69.4857 36.523 70.5209 37.1037 71.3766C36.3444 71.1985 35.5464 71.3016 34.8573 71.6668C34.1683 72.0321 33.635 72.6347 33.3563 73.363C33.4416 72.9175 33.3677 72.4562 33.1473 72.0598C32.9269 71.6634 32.5741 71.3571 32.1506 71.1946C31.7272 71.032 31.26 71.0235 30.831 71.1707C30.4019 71.3178 30.0383 71.6111 29.8037 71.9993C30.7319 70.4942 26.423 70.9793 25.9531 71.3002C25.5329 71.5908 25.1911 71.9806 24.9578 72.4351C24.7246 72.8896 24.6072 73.3947 24.6161 73.9054C23.2103 73.4623 21.5601 73.5731 20.4332 74.5472C19.3063 75.5213 19.0886 77.4695 20.1887 78.4551C17.6752 76.9958 16.0708 81.4538 16.468 83.2912C15.7779 82.8941 14.9774 82.7319 14.1871 82.829C13.3968 82.9261 12.6594 83.2772 12.086 83.8296C11.5125 84.382 11.1339 85.1057 11.0072 85.8918C10.8806 86.6779 11.0127 87.4839 11.3836 88.1884C11.1682 88.1089 10.9391 88.0733 10.7097 88.0838C10.4804 88.0943 10.2554 88.1506 10.0482 88.2495C9.84098 88.3483 9.65565 88.4877 9.50316 88.6593C9.35067 88.831 9.2341 89.0314 9.16035 89.2488C9.0866 89.4663 9.05715 89.6963 9.07375 89.9253C9.09034 90.1543 9.15264 90.3776 9.25697 90.5821C9.3613 90.7867 9.50554 90.9682 9.68118 91.1161C9.85683 91.264 10.0603 91.3751 10.2796 91.4431C7.67821 90.6791 6.31829 94.1171 8.03347 95.8399C7.04235 95.7948 6.06043 96.0476 5.21431 96.5657C4.79729 96.8292 4.45453 97.195 4.21853 97.6282C3.98254 98.0614 3.86114 98.5477 3.86585 99.041C3.89222 99.5339 4.09509 100.001 4.43738 100.356C4.77967 100.712 5.2385 100.933 5.73001 100.978C5.21587 101.135 4.74975 101.419 4.37506 101.804C4.00036 102.19 3.72926 102.664 3.58699 103.182C3.35779 104.229 3.96899 105.474 5.00421 105.722C4.4474 105.91 3.97819 106.295 3.68431 106.804C3.39044 107.313 3.29202 107.912 3.40745 108.488Z" fill="black"/>
<path d="M29.1007 85.9806C-7.57126 107.151 -7.57126 141.478 29.1007 162.648C65.7727 183.818 125.223 183.818 161.895 162.648C198.567 141.478 198.567 107.151 161.895 85.9806C125.223 64.8102 65.7727 64.8102 29.1007 85.9806Z" fill="#F5F5F5"/>
<path d="M164.008 33.104C164.008 31.1634 161.876 29.815 159.47 29.5896C156.631 29.3222 154.618 30.5866 154.55 32.8213C152.693 32.0573 150.73 32.5501 150.886 34.59C150.401 34.0323 148.594 34.0475 147.949 34.208C147.595 34.3067 147.268 34.4807 146.988 34.7181C146.708 34.9555 146.484 35.2506 146.329 35.5832C146.175 35.9092 146.117 36.2721 146.161 36.6299C145.08 36.2746 142.62 36.0568 142.005 37.0501C140.908 38.8187 145.286 38.8722 146.168 38.3374C146.356 39.7126 151.058 39.938 152.196 38.6697C153.087 39.5674 154.362 39.7622 155.741 39.8463C157.239 39.9341 158.526 39.7928 159.833 38.9371C159.958 38.8399 160.105 38.7743 160.26 38.7461C160.423 38.7467 160.582 38.7931 160.719 38.8798C162.468 39.7317 164.634 40.0526 166.327 39.0861C166.427 39.0201 166.538 38.9734 166.655 38.9486C166.806 38.9458 166.956 38.9841 167.087 39.0594C168.718 39.8234 170.75 40.1481 172.232 39.1358C172.405 38.996 172.597 38.8815 172.802 38.7958C173.608 38.536 174.417 38.9753 175.273 38.6124C175.953 38.3259 176.48 37.8217 175.884 37.1303C175.54 36.7483 174.284 36.4847 173.753 36.6069C173.187 35.4991 170.93 34.4486 169.635 35.3845C169.585 34.0437 168.359 32.997 166.632 32.7105C166.055 32.6341 164.665 32.5577 164.008 33.104Z" fill="#F5F5F5"/>
<path d="M86.9853 16.5138C86.9853 14.6038 84.869 13.2439 82.4738 13.0185C79.6547 12.755 77.653 14.0117 77.5842 16.2312C75.7392 15.4672 73.7948 15.9599 73.94 17.9883C73.4625 17.4383 71.6671 17.4535 71.0215 17.6063C70.6709 17.7054 70.3458 17.8789 70.0683 18.1149C69.7908 18.3509 69.5674 18.6438 69.4133 18.9739C69.2593 19.2971 69.2022 19.658 69.249 20.0129C68.1718 19.6615 65.727 19.4476 65.1158 20.4332C64.0271 22.1904 68.3742 22.2438 69.2528 21.7128C69.44 23.0804 74.108 23.302 75.254 22.0414C75.0821 22.2362 77.0151 22.9811 77.164 23.0155C77.8599 23.2004 78.565 23.3483 79.2765 23.4586C80.901 23.6381 82.5321 23.1838 83.8299 22.1903C84.9547 23.0757 86.3425 23.5609 87.7739 23.5692C89.2052 23.5775 90.5986 23.1084 91.7335 22.2362C92.4302 22.6529 93.2156 22.899 94.0255 22.9543C94.4332 22.9752 94.8394 22.8923 95.2063 22.7132C95.5731 22.5341 95.8884 22.2648 96.1227 21.9306C96.9061 22.2144 97.7571 22.2544 98.5637 22.0452C98.8218 22.0019 99.0554 21.8661 99.2207 21.6632C99.2914 21.5448 99.3287 21.4095 99.3287 21.2716C99.3287 21.1338 99.2914 20.9985 99.2207 20.8801C98.9274 20.4859 98.4989 20.2138 98.0174 20.1161C97.5868 19.9679 97.1261 19.9286 96.6766 20.0015C96.5658 19.0274 95.4695 18.4506 94.5832 18.3665C93.9623 18.3276 93.3399 18.4147 92.7535 18.6225C92.6656 18.6492 92.5548 18.6721 92.5013 18.5995C92.4814 18.5619 92.4709 18.5199 92.4708 18.4773C92.3371 17.0945 90.79 16.3228 89.5829 16.1357C89.006 16.044 87.6385 15.9714 86.9853 16.5138Z" fill="#F5F5F5"/>
<path d="M38.5324 24.173C38.5324 22.1904 36.3588 20.8152 33.8987 20.5822C31.0031 20.3072 28.9327 21.6021 28.8792 23.8827C26.9692 23.1187 24.9866 23.6038 25.1356 25.6857C25.0898 25.0554 22.7558 25.1891 22.3814 25.2464C21.2163 25.4374 20.353 26.8012 20.3835 27.9204C19.4921 27.9289 18.632 28.2507 17.954 28.8296C17.7788 28.952 17.6454 29.1254 17.572 29.3262C17.5437 29.476 17.5588 29.6308 17.6157 29.7723C17.6726 29.9138 17.7688 30.036 17.8929 30.1246C18.1428 30.2984 18.4288 30.4133 18.7295 30.4607C19.5355 30.6288 20.2995 30.285 21.0864 30.4072C21.3992 30.4776 21.7021 30.5867 21.9879 30.7319C22.8225 31.0725 23.7287 31.2002 24.6249 31.1035C25.5212 31.0069 26.3793 30.6888 27.122 30.178C27.8644 30.7226 28.7288 31.077 29.6398 31.2102C30.5508 31.3434 31.4806 31.2513 32.3478 30.942C32.5006 30.8886 33.4938 30.178 33.5855 30.2353C34.8016 30.9137 36.1534 31.313 37.543 31.4043C38.2373 31.4475 38.9333 31.3508 39.5895 31.1198C40.2457 30.8888 40.8488 30.5283 41.363 30.0596C42.1411 30.4181 42.9793 30.6279 43.8345 30.6785C44.1819 30.6855 44.5277 30.6285 44.8545 30.5104C44.9652 30.4722 45.8782 29.9488 45.8744 29.945C46.3565 30.2097 46.8887 30.3706 47.4367 30.4173C47.9848 30.464 48.5365 30.3955 49.0565 30.2162C49.7555 29.9832 51.4325 29.1581 50.6609 28.268C50.3094 27.8631 49.0297 27.6072 48.4835 27.7332C47.9105 26.5872 45.6032 25.5329 44.2815 26.4879C44.228 25.1204 42.9788 24.0469 41.2255 23.7757C40.6219 23.684 39.2047 23.6115 38.5324 24.173Z" fill="#F5F5F5"/>
<path d="M122.924 32.3591C126.447 32.3591 129.303 29.503 129.303 25.9797C129.303 22.4565 126.447 19.6003 122.924 19.6003C119.401 19.6003 116.544 22.4565 116.544 25.9797C116.544 29.503 119.401 32.3591 122.924 32.3591Z" fill="#FFBDA7"/>
<path d="M172.763 123.539C173.447 121.629 172.435 119.665 169.807 118.473C167.961 117.699 165.964 117.354 163.966 117.465C163.355 114.753 161.108 112.258 157.266 110.513C152.429 108.32 146.126 107.793 140.194 108.748L134.708 106.257C127.046 102.781 116.934 102.758 112.121 106.204C108.121 109.065 109.042 113.423 113.863 116.808C113.572 118.519 114.627 120.2 116.98 121.266C118.874 122.06 120.927 122.404 122.977 122.27C123.245 125.326 125.548 128.211 129.826 130.155C134.548 132.294 140.671 132.829 146.482 131.985L154.603 135.671C162.266 139.147 172.377 139.174 177.194 135.728C181.851 132.393 179.838 127.03 172.763 123.539Z" fill="#E0E0E0"/>
<path d="M85.8239 104.932C86.3969 102.983 85.2776 101.085 82.5884 100.042C80.7031 99.372 78.6904 99.1382 76.7017 99.3582C75.9377 96.6842 73.5541 94.3196 69.6195 92.7954C64.6535 90.8854 58.3466 90.7021 52.4753 91.9856L46.8599 89.8082C39.0175 86.7522 28.9059 87.3099 24.3219 91.0191C20.5019 94.1019 21.6479 98.3994 26.6559 101.509C26.4611 103.236 27.6109 104.851 30.0175 105.787C31.9547 106.474 34.0246 106.701 36.0646 106.452C36.5001 109.508 38.964 112.243 43.3455 113.939C48.1778 115.815 54.3204 116.025 60.0733 114.837L68.378 118.061C76.2243 121.117 86.332 120.563 90.9351 116.854C95.393 113.263 93.0819 108.022 85.8239 104.932Z" fill="#E0E0E0"/>
<path d="M107.342 155.745C108.033 153.705 106.933 151.646 104.126 150.424C102.158 149.635 100.037 149.301 97.9218 149.446C97.2266 146.581 94.8047 143.972 90.7059 142.188C85.545 139.938 78.8639 139.48 72.5761 140.588L66.7239 138.036C58.5453 134.476 47.8225 134.598 42.7763 138.341C38.5743 141.439 39.6286 146.042 44.7933 149.557C44.5106 151.375 45.6604 153.136 48.1702 154.233C50.1918 155.044 52.3744 155.375 54.5457 155.199C54.8743 158.446 57.3649 161.456 61.9336 163.446C66.9722 165.643 73.47 166.12 79.6164 165.123L88.2878 168.898C96.4626 172.462 107.185 172.336 112.235 168.596C117.121 164.986 114.902 159.336 107.342 155.745Z" fill="#E0E0E0"/>
<path d="M46.0577 69.9326C45.0913 71.304 44.0866 71.7891 42.6388 72.6372C42.4011 72.7513 42.1883 72.9114 42.0126 73.108C41.8369 73.3047 41.7018 73.5341 41.6151 73.7832C41.4432 74.1652 41.2942 74.5701 41.0764 75.0973C40.9198 75.4793 40.7976 75.8804 40.6715 76.27C40.4772 76.7602 40.3487 77.274 40.2895 77.798C40.2518 78.2625 40.3599 78.7272 40.5989 79.1274C40.7599 79.3875 40.9937 79.5947 41.2713 79.7233C41.4072 79.7945 41.5572 79.8349 41.7106 79.8417C41.7755 79.8417 41.978 79.8188 42.02 79.7577C42.5152 78.982 43.1156 78.2788 43.8039 77.6681C44.3464 77.2135 44.7666 76.8621 45.4885 76.8048C46.1679 76.7895 46.8474 76.8278 47.5208 76.9194C49.9439 77.1389 52.3838 76.7598 54.626 75.8154L46.0577 69.9326Z" fill="#263238"/>
<path d="M31.7289 91.8173C30.4034 92.7112 28.7913 93.7923 28.4055 93.7273C28.0197 93.6624 26.5223 92.5813 26.2931 90.465C26.0639 88.3488 27.8822 86.645 28.7226 86.4731L30.6593 86.7826L31.7289 91.8173Z" fill="#263238"/>
<path d="M30.56 91.1795C30.8133 91.4154 31.0898 91.6253 31.3851 91.8059C31.4149 91.831 31.4493 91.8498 31.4864 91.8615C31.5235 91.8731 31.5625 91.8773 31.6013 91.8737C31.64 91.8701 31.6776 91.859 31.712 91.8408C31.7463 91.8226 31.7768 91.7977 31.8015 91.7677C32.4543 91.2527 33.1381 90.7781 33.849 90.3467C34.5251 89.9303 35.2624 89.6171 35.9385 89.2007C36.9165 88.6162 37.3787 87.5352 37.7683 86.4961C38.6087 84.2423 40.7632 81.3621 42.0467 79.7538C41.5157 79.517 40.9924 79.1388 41.0421 78.5849C41.1337 77.4809 41.0421 76.8354 41.0841 75.1011C40.663 75.7964 40.2804 76.5144 39.9381 77.2517C39.0939 79.3527 37.8294 81.2742 35.3541 83.3637C34.5671 83.9468 33.8774 84.6508 33.3104 85.4495C33.0888 85.8047 33.0659 86.1523 32.7106 86.4197C32.0651 86.901 31.2781 86.9087 30.5141 86.8017C30.4602 86.7883 30.4038 86.7883 30.3499 86.8017C30.3033 86.8236 30.2627 86.8564 30.2315 86.8972C29.4675 87.7644 29.5668 88.685 29.731 89.7317C29.8342 90.2947 30.1267 90.8055 30.56 91.1795Z" fill="#F5F5F5"/>
<path d="M41.0803 77.565C41.0803 76.9232 41.0574 76.2547 41.0803 75.1125C40.6592 75.8079 40.2766 76.5259 39.9343 77.2632C39.0901 79.3642 37.8257 81.2857 35.3503 83.3752C34.5633 83.9583 33.8736 84.6623 33.3066 85.4609C33.085 85.8162 33.0621 86.1638 32.7069 86.4312C32.0613 86.9125 31.2744 86.9202 30.5104 86.8132C30.4564 86.7998 30.4 86.7998 30.3461 86.8132C30.2995 86.8351 30.2589 86.8678 30.2277 86.9087C29.4637 87.7758 29.563 88.6965 29.7273 89.7431C29.8339 90.3025 30.1275 90.809 30.56 91.1795L30.6135 91.2253C30.6135 91.1527 30.6135 91.084 30.6135 91.0228C30.6632 90.4842 30.8809 89.938 31.5036 89.9265C32.9131 89.8959 34.0515 87.5352 34.4373 86.1065C34.8231 84.6778 37.3596 83.6273 38.7463 81.9389C39.4874 81.0335 39.8312 79.9143 40.2743 78.8561C40.4235 78.4429 40.6375 78.056 40.9084 77.7101C40.9599 77.6553 41.0176 77.6065 41.0803 77.565Z" fill="#E0E0E0"/>
<path d="M39.9992 49.6866C37.4474 49.2397 34.6894 49.7134 32.7412 51.3789C31.3125 52.586 30.4492 54.2706 29.2383 55.6879C27.8936 57.2923 26.1135 57.9187 24.3105 58.8814C22.9926 59.5843 21.7167 60.5545 21.1857 61.9374C22.0872 61.1084 23.3746 60.8831 24.5855 60.6768C25.7964 60.4705 27.0838 60.2107 27.9471 59.336C27.6769 59.7765 27.3661 60.1909 27.0189 60.5736C26.6364 60.9966 26.2129 61.3805 25.7544 61.7196C24.8642 62.3874 23.8334 62.8433 22.7404 63.0528C20.9336 63.4081 19.0732 63.4348 17.2626 63.7557C15.4519 64.0766 13.6145 64.8138 12.4723 66.2578C14.0538 65.6046 15.853 66.0744 17.4994 66.5519C20.1314 67.3159 20.7693 68.2442 23.6114 68.5307C24.9921 68.6623 26.3852 68.5327 27.7179 68.1487C30.8083 66.976 32.554 65.4059 34.2119 62.6135C35.0065 61.2612 35.7896 58.3657 36.7751 57.1471C37.6471 55.9779 38.8836 55.1325 40.2895 54.7443C41.4473 54.4168 42.6799 54.4718 43.8039 54.9009L45.0874 53.7817C45.1716 53.7185 45.2375 53.6341 45.2785 53.5372C45.2971 53.437 45.2865 53.3336 45.2479 53.2392C44.6443 51.3292 42.6083 50.2864 40.8014 49.828C40.5225 49.786 40.2628 49.7325 39.9992 49.6866Z" fill="#263238"/>
<path d="M86.9394 75.0322C87.3557 76.7283 89.9954 82.2558 90.9275 85.159C91.5578 87.1493 92.0467 89.1853 92.5815 91.2023C92.7802 91.9663 93.0132 92.7074 93.2003 93.4637C93.2727 93.8413 93.3047 94.2254 93.2958 94.6097C93.3026 95.0636 93.2394 95.5158 93.1087 95.9505C93.0555 96.1498 92.9661 96.3375 92.8451 96.5044C92.7136 96.6503 92.5517 96.7655 92.3709 96.842C92.19 96.9186 91.9946 96.9546 91.7984 96.9476C91.4073 96.9329 91.0208 96.8581 90.6524 96.726C90.4134 96.6827 90.1972 96.557 90.0412 96.3707C89.9075 96.1759 89.7815 95.9887 89.6592 95.7748L88.8073 94.4913C88.2305 93.628 87.6613 92.7685 87.0769 91.9128C86.7751 91.4659 86.4733 91.0227 86.1639 90.5796C84.5824 88.2876 81.8358 87.7032 77.0417 85.9956L86.9394 75.0322Z" fill="#37474F"/>
<path d="M94.9996 99.702C94.5947 100.646 93.9491 100.623 91.7793 101.432C90.0119 102.093 88.4365 103.182 87.1953 104.603C86.5688 105.436 86.5154 104.534 83.7306 104.825C82.5578 104.947 81.5685 105.111 80.6211 105.161C81.0031 103.744 81.2972 102.269 82.1797 101.108C82.4311 100.759 82.7733 100.485 83.169 100.317C83.2072 100.344 83.2454 100.363 83.2798 100.39C84.1852 100.932 85.1172 101.234 85.6635 101.131C86.2098 101.028 91.0421 98.7355 91.3935 98.4261L89.8655 96.0921C90.0822 96.1298 90.2955 96.1847 90.5034 96.2563C91.1872 96.3786 91.6915 95.6184 91.8519 94.9461C92.0123 94.2738 92.0811 93.483 92.635 93.0666C92.7579 92.9767 92.8965 92.9107 93.0437 92.8718C93.315 93.8574 93.5785 94.7474 93.8077 95.4274C94.6634 97.792 95.4045 98.7432 94.9996 99.702Z" fill="#E0E0E0"/>
<path d="M91.2063 96.0271C91.11 96.1138 90.9955 96.1776 90.8712 96.214C90.7469 96.2504 90.616 96.2583 90.4882 96.2372C90.2802 96.1655 90.0669 96.1106 89.8502 96.0729L91.3782 98.407C91.0459 98.7164 86.2174 101.012 85.6482 101.112C85.079 101.211 84.1699 100.913 83.2645 100.37C83.2302 100.344 83.192 100.325 83.1538 100.298C82.758 100.466 82.4158 100.74 82.1644 101.089C81.6291 101.848 81.2404 102.7 81.0184 103.602C81.8585 102.817 82.9488 102.353 84.0973 102.292C84.6772 102.312 85.2578 102.295 85.8354 102.238C87.2068 101.994 88.1809 100.806 89.3995 100.126C90.3239 99.6103 91.4011 99.3887 92.2874 98.8042C92.3298 98.783 92.3676 98.7534 92.3984 98.7174C92.4292 98.6813 92.4525 98.6394 92.4669 98.5941C92.4731 98.5142 92.4515 98.4346 92.4058 98.3688L91.2063 96.0271Z" fill="#E0E0E0"/>
<path opacity="0.1" d="M91.2063 96.0271C91.11 96.1138 90.9955 96.1776 90.8712 96.214C90.7469 96.2504 90.616 96.2583 90.4882 96.2372C90.2802 96.1655 90.0669 96.1106 89.8502 96.0729L91.3782 98.407C91.0459 98.7164 86.2174 101.012 85.6482 101.112C85.079 101.211 84.1699 100.913 83.2645 100.37C83.2302 100.344 83.192 100.325 83.1538 100.298C82.758 100.466 82.4158 100.74 82.1644 101.089C81.6291 101.848 81.2404 102.7 81.0184 103.602C81.8585 102.817 82.9488 102.353 84.0973 102.292C84.6772 102.312 85.2578 102.295 85.8354 102.238C87.2068 101.994 88.1809 100.806 89.3995 100.126C90.3239 99.6103 91.4011 99.3887 92.2874 98.8042C92.3298 98.783 92.3676 98.7534 92.3984 98.7174C92.4292 98.6813 92.4525 98.6394 92.4669 98.5941C92.4731 98.5142 92.4515 98.4346 92.4058 98.3688L91.2063 96.0271Z" fill="black"/>
<path d="M83.1843 100.298C82.7886 100.466 82.4464 100.74 82.195 101.088C81.3125 102.234 81.0108 103.724 80.6364 105.141H80.3117H79.9908C79.7769 105.141 79.563 105.141 79.3491 105.115C79.2421 105.115 79.1313 105.096 79.0244 105.08L78.692 105.05L78.3597 104.981C78.1343 104.931 77.8975 104.87 77.6568 104.794C77.2813 104.668 76.9138 104.518 76.5566 104.347C76.5566 104.347 76.6063 103.056 77.6492 101.039C78.692 99.0218 80.5485 98.4832 81.0299 98.7468C81.1177 98.7965 81.2209 98.8652 81.3393 98.9493L81.5265 99.0868L82.2408 99.633C82.2905 99.6712 82.3401 99.7094 82.3936 99.7438C82.4471 99.7782 82.5961 99.8966 82.703 99.9692L82.8596 100.08L83.0201 100.191L83.1843 100.298Z" fill="#263238"/>
<path d="M93.208 40.786C95.8438 39.407 98.2237 39.9456 98.3153 40.087C98.3153 40.087 96.2182 42.2033 95.5268 43.143C95.1753 43.0628 93.208 40.786 93.208 40.786Z" fill="#37474F"/>
<path d="M70.288 54.7405C74.0125 53.2622 79.4254 43.2385 81.4577 41.8671C85.5986 39.0785 90.9007 38.7271 93.4143 40.9465C96.9707 44.0827 97.9142 46.9668 97.3451 48.8768C96.7759 50.7868 97.0242 52.4943 97.5666 54.6068C98.1091 56.7193 98.3956 59.3818 99.1519 60.0503C99.9083 60.7188 99.9961 62.3691 99.3964 63.1865C98.7967 64.004 98.5063 65.8605 96.5734 66.3992C94.6405 66.9378 93.2156 66.3762 92.1575 64.1874C91.0994 61.9985 91.5845 60.7494 89.686 58.9005C88.922 58.1671 88.3528 57.6093 87.8715 57.2044C86.8057 59.8097 85.6826 63.2591 86.9317 70.116C88.1809 76.9729 86.0837 80.2123 83.7802 82.382C81.4768 84.5518 78.8142 83.933 80.0443 85.629C81.2743 87.3251 85.3655 91.741 85.6215 92.081C86.2589 92.8476 86.8265 93.6696 87.3176 94.5373C87.6996 95.2211 87.5124 96.0882 87.2564 96.7758C87.0547 97.4994 86.7634 98.1949 86.3893 98.8462C86.3022 99.0264 86.1794 99.1871 86.0284 99.3184C85.8774 99.4497 85.7012 99.549 85.5107 99.6102C85.3834 99.6239 85.2547 99.6112 85.1325 99.5731C85.0103 99.535 84.8972 99.4722 84.8002 99.3887C84.6046 99.2232 84.4436 99.0207 84.3265 98.7928C83.9616 98.1384 83.7672 97.4028 83.7611 96.6536C83.7229 95.9889 82.3439 95.3624 79.8227 93.2156C77.3015 91.0687 72.878 88.8226 69.3445 85.1095C67.9463 83.6388 66.5559 85.1095 60.0122 82.5883C54.9889 80.7853 51.5471 76.1707 49.4384 75.6092C47.3298 75.0476 45.7865 75.3723 44.0522 76.0561C42.6088 76.6126 41.1048 76.9972 39.5714 77.2021C38.9504 77.302 38.3241 77.3658 37.6958 77.3931C36.9738 77.416 36.2824 77.3282 35.6177 77.6987C35.1054 77.928 34.7036 78.3491 34.4984 78.8715C34.3959 79.1169 34.3216 79.3732 34.2769 79.6355C34.1928 80.1664 34.0782 81.0298 33.9942 81.5455C33.8495 81.5408 33.7072 81.507 33.5759 81.4459C33.4446 81.3849 33.327 81.2979 33.2302 81.1902C32.9956 80.8631 32.7825 80.5211 32.5922 80.1664C32.3071 79.7949 32.0516 79.4015 31.8282 78.9899C31.359 78.1371 31.0581 77.2021 30.942 76.2357C30.9181 75.9003 30.9504 75.5633 31.0375 75.2386C31.1636 74.8032 31.4844 74.6083 31.8473 74.3409C32.2102 74.0735 32.7183 73.936 33.0545 73.619C33.3906 73.3019 33.7077 73.046 34.0247 72.748C34.663 72.1571 35.1817 71.449 35.5527 70.6623C36.1296 69.4246 36.2212 68.0265 36.3167 66.6666C36.4168 64.6049 36.7175 62.5579 37.2144 60.5546C38.5591 55.6841 42.4631 52.2995 47.2228 50.8479C54.7864 48.5559 58.6561 52.1964 61.9795 53.6862C65.3029 55.176 66.5482 56.2189 70.288 54.7405Z" fill="#455A64"/>
<path d="M80.7395 68.1486C77.653 71.0709 82.0918 74.4593 81.6601 77.1944C81.2285 79.9295 84.7773 76.3578 85.0638 72.1787C85.2861 70.0515 85.7343 67.954 86.4008 65.9216C86.1778 62.9395 86.6784 59.9476 87.86 57.2005C87.2333 56.7594 86.6602 56.2466 86.1525 55.6725C85.3579 54.8054 83.8223 53.2659 83.4517 51.5813C82.7259 53.5219 83.8337 56.2455 84.0667 58.0753C84.5901 62.3995 83.8261 65.2302 80.7395 68.1486Z" fill="#37474F"/>
<path d="M98.6476 61.9757C97.5016 62.0063 96.7376 62.2775 96.5963 61.4562C96.455 60.6349 96.1035 60.6158 95.2173 60.1115C94.331 59.6073 93.1583 57.1625 92.7839 55.9095C92.4096 54.6566 92.8412 52.8115 92.7343 51.5051C92.6273 50.1986 91.9703 49.3926 90.8243 48.7852C89.6783 48.1779 88.7118 48.0212 88.6431 49.129C88.5743 50.2368 89.7891 51.5968 90.0221 52.6816C90.2551 53.7665 90.0221 55.6383 90.278 56.9944C90.534 58.3505 91.3094 61.6281 91.3094 61.6281C91.5108 62.5062 91.7987 63.3623 92.1689 64.1837C93.2232 66.3725 94.6443 66.915 96.581 66.3954C98.5178 65.8759 98.8043 64.0041 99.404 63.1828C100.004 62.3615 99.9159 60.7151 99.1595 60.0466C99.404 60.4935 99.7707 61.949 98.6476 61.9757Z" fill="#37474F"/>
<path d="M95.6528 61.051C95.3816 60.5888 95.0034 61.4101 94.7054 62.1436C94.4075 62.877 95.542 63.9275 95.8705 63.7021C96.1991 63.4767 96.1991 62.9381 95.9622 62.3116C95.7254 61.6852 95.9355 61.5247 95.6528 61.051Z" fill="#263238"/>
<path d="M91.2293 50.9625C91.0585 51.1742 90.8107 51.3095 90.5403 51.3385C90.2698 51.3675 89.9989 51.2879 89.7872 51.1172C89.5755 50.9465 89.4402 50.6987 89.4112 50.4282C89.3822 50.1578 89.4618 49.8869 89.6325 49.6752C89.9878 49.232 90.2628 49.6217 90.7059 49.9808C91.149 50.3398 91.5883 50.5232 91.2293 50.9625Z" fill="#263238"/>
<path d="M94.1362 44.2814C94.1706 44.4953 94.8009 46.5734 93.781 47.4558C93.1316 48.025 94.7321 48.2198 95.2058 50.5729C95.5 52.0245 95.6451 52.7694 95.8285 51.845C96.0118 50.9205 95.9927 49.0487 96.455 48.025C96.9172 47.0012 96.4817 47.3717 95.8208 46.2334C95.16 45.095 94.0102 43.5059 94.1362 44.2814Z" fill="#FAFAFA"/>
<path d="M69.3292 85.0981L69.6883 85.461C69.6539 85.3808 69.6233 85.2967 69.5889 85.2165C69.2528 84.399 68.9204 83.5739 68.6569 82.7259C68.0724 80.8502 67.7057 78.9059 67.2167 77.0188C66.5482 74.4403 65.7155 78.7951 61.204 78.7722C56.6926 78.7492 52.525 76.4305 49.6333 73.768C47.1579 71.0367 45.3931 69.0159 44.5106 69.6844C43.6282 70.3529 44.8392 72.3202 41.4546 74.1309C39.9465 74.9848 38.3283 75.6275 36.6453 76.0409C36.1093 76.1286 35.5834 76.2694 35.0752 76.4611C34.6627 76.6444 34.1699 77.2251 33.6924 77.0684C32.4394 76.6864 32.6343 74.7764 32.9284 73.7259C32.6037 73.959 32.2026 74.1079 31.8741 74.3333C31.5456 74.5587 31.1903 74.7955 31.0642 75.231C30.9772 75.5557 30.9449 75.8927 30.9687 76.228C31.0648 77.2 31.3476 78.1442 31.8015 79.009C32.0249 79.4207 32.2803 79.8141 32.5655 80.1856C32.7557 80.5403 32.9688 80.8822 33.2034 81.2093C33.3002 81.317 33.4178 81.404 33.5491 81.465C33.6804 81.5261 33.8227 81.56 33.9674 81.5646C34.0515 81.0374 34.1661 80.1741 34.2501 79.6546C34.2948 79.3924 34.3692 79.1361 34.4717 78.8906C34.6768 78.3682 35.0787 77.9471 35.5909 77.7178C36.2556 77.3358 36.947 77.4352 37.669 77.4122C38.2974 77.3849 38.9237 77.3212 39.5446 77.2212C41.078 77.0164 42.582 76.6317 44.0255 76.0752C45.7598 75.3915 47.3031 75.0668 49.4117 75.6283C51.5203 76.1898 54.9622 80.8044 59.9855 82.6074C66.5406 85.0981 67.9311 83.6274 69.3292 85.0981Z" fill="#37474F"/>
<path d="M86.0302 109.038C85.5789 110.477 84.8624 111.819 83.9177 112.995C83.2378 113.706 81.4844 112.995 80.3422 111.521C79.2 110.046 79.0625 108.53 79.4674 107.796C79.8724 107.063 81.4156 105.428 81.4156 105.428L86.0302 109.038Z" fill="#263238"/>
<path d="M87.4207 94.5412C86.8778 93.6712 86.2713 92.8425 85.6062 92.062C85.1669 91.9741 84.7658 92.6885 84.6474 93.8115C84.5289 94.9346 84.1049 95.9087 82.8138 95.5382C83.4059 96.0004 83.7267 96.3022 83.7458 96.6192C83.7802 97.2839 83.4975 103.564 82.5998 104.641C81.7021 105.718 81.4042 104.989 81.0718 105.951C80.7395 106.914 81.4538 109.863 83.9177 110.05C86.3816 110.238 86.1715 108.217 86.4351 107.101C86.6987 105.986 86.3434 105.493 86.2365 103.591C86.1935 101.859 86.3563 100.127 86.7216 98.4337C86.9623 97.3679 88.1159 95.9469 87.4207 94.5412Z" fill="#F5F5F5"/>
<path d="M84.4831 94.6404C84.2501 95.3585 83.7726 95.8284 82.8138 95.5534C83.4059 96.0156 83.7267 96.3174 83.7458 96.6344C83.7802 97.2991 83.4975 103.579 82.5998 104.656C81.7021 105.734 81.4042 105.004 81.0718 105.967C80.7395 106.929 81.4538 109.878 83.9177 110.066C84.3545 110.118 84.7974 110.059 85.2051 109.894C85.2051 109.894 83.9177 110.066 83.2951 108.167C82.6724 106.268 84.3112 104.565 84.8231 101.047C85.335 97.5283 84.8957 96.3441 84.464 94.6518L84.4831 94.6404Z" fill="#E0E0E0"/>
<path d="M32.0078 95.3471C31.3699 96.814 30.5868 98.5903 30.2315 98.7508C29.8762 98.9112 28.0274 98.7928 26.7018 97.1273C25.3763 95.4617 25.9951 93.0437 26.614 92.4554L28.417 91.6914L32.0078 95.3471Z" fill="#263238"/>
<path d="M30.6746 95.4388C31.0144 95.504 31.3601 95.5334 31.706 95.5267C31.7749 95.5325 31.844 95.5179 31.9046 95.4847C31.9708 95.4294 32.0177 95.3545 32.0383 95.2707C32.3146 94.4882 32.6373 93.7228 33.0048 92.9787C33.3562 92.2682 33.807 91.6074 34.1508 90.9045C34.6627 89.8884 34.4755 88.7233 34.2463 87.6384C33.7497 85.2853 34.0285 81.6983 34.2463 79.6546C33.6695 79.7348 33.0239 79.6966 32.7679 79.2038C32.2599 78.2221 31.8435 77.7178 30.942 76.2395C30.963 77.0486 31.0294 77.8559 31.1406 78.6576C31.5532 80.8846 31.5226 83.1843 30.5409 86.267C30.1883 87.1814 29.982 88.1457 29.9297 89.1244C29.9297 89.5446 30.1016 89.8502 29.9297 90.2704C29.6432 91.0344 28.9823 91.4507 28.2909 91.7984C28.2389 91.8185 28.192 91.8498 28.1534 91.89C28.1268 91.9341 28.1111 91.9839 28.1075 92.0352C27.9318 93.1812 28.4895 93.9032 29.2001 94.7092C29.5972 95.109 30.1158 95.3656 30.6746 95.4388Z" fill="#F5F5F5"/>
<path d="M32.2714 78.3099C31.9314 77.7637 31.5494 77.2136 30.9573 76.2395C30.9784 77.0486 31.0447 77.8559 31.1559 78.6576C31.5685 80.8846 31.5379 83.1843 30.5562 86.267C30.2036 87.1814 29.9973 88.1457 29.945 89.1244C29.945 89.5446 30.1169 89.8502 29.945 90.2704C29.6585 91.0344 28.9976 91.4507 28.3062 91.7984C28.2542 91.8185 28.2073 91.8498 28.1687 91.89C28.1421 91.9341 28.1264 91.9839 28.1229 92.0352C27.9471 93.1812 28.5049 93.9032 29.2154 94.7092C29.6006 95.1164 30.1096 95.385 30.6632 95.4732C30.686 95.475 30.709 95.475 30.7319 95.4732C30.6941 95.4167 30.6597 95.358 30.6288 95.2975C30.3805 94.82 30.2735 94.2432 30.7892 93.8955C31.9658 93.1315 31.664 90.511 31.2132 89.09C30.7625 87.6689 32.3592 85.4304 32.619 83.2607C32.7642 82.1147 32.4509 80.9687 32.2714 79.8227C32.1787 79.3963 32.1542 78.9579 32.1988 78.5239C32.2141 78.4498 32.2385 78.378 32.2714 78.3099Z" fill="#E0E0E0"/>
<path d="M85.7284 44.9346C86.4725 44.4515 87.1417 43.862 87.7148 43.185C87.9874 42.8306 88.2314 42.455 88.4445 42.0619C88.5782 41.8213 88.8265 41.0649 89.0442 40.9159C89.9343 40.3964 90.6066 40.1787 90.9542 40.2933C90.9542 40.2933 90.5378 42.1001 90.6601 42.2644C91.1605 43.7618 90.8969 46.0347 89.5599 47.2571C90.9084 47.0929 92.6579 46.4282 92.7916 45.9774C92.6218 46.5083 92.5229 47.0594 92.4975 47.6162C92.4975 47.4825 93.6435 46.8522 93.823 46.7414C94.2045 46.4634 94.5623 46.1542 94.8926 45.817C95.4367 45.3165 95.7871 44.6402 95.882 43.907C95.9813 41.997 94.0522 40.6791 92.4822 40.087C92.0838 39.923 91.6688 39.8026 91.2445 39.7279C90.7135 39.6275 90.1921 39.4818 89.686 39.2924C88.4982 38.9225 87.2437 38.8182 86.0111 38.9868C85.0779 39.1126 84.1734 39.3981 83.3371 39.831C82.1376 40.4575 81.1101 41.359 79.9755 42.123C78.841 42.887 77.5078 43.4409 76.1555 43.269C77.3846 43.8774 78.7942 44.0134 80.1169 43.651C79.6814 43.7733 79.1504 44.2852 78.7684 44.5335C78.2549 44.8105 77.718 45.0418 77.164 45.2249C75.9982 45.6864 74.8853 46.2716 73.8444 46.9706C72.2963 47.9786 71.1054 49.449 70.4408 51.1726C71.5257 49.8853 73.1148 49.1595 74.6428 48.4757C72.9887 50.0457 72.0834 52.2269 71.0749 54.2706C70.0664 56.3143 68.7829 58.3962 66.7621 59.4315C67.7762 59.3266 68.7836 59.166 69.7799 58.9501C70.666 58.6802 71.5058 58.2771 72.2706 57.7545C73.0477 57.2639 73.7699 56.6914 74.4251 56.0469C75.0332 55.3781 75.5673 54.6455 76.018 53.8619C77.4238 51.7647 79.0014 49.786 81.0107 48.258C82.214 47.345 83.4555 46.4855 84.7047 45.6336C85.0447 45.3968 85.3885 45.1714 85.7284 44.9346Z" fill="#263238"/>
<path d="M88.1236 44.3118C88.5056 43.2231 90.4156 40.7401 91.0612 40.3352C91.2522 41.3684 91.1839 42.4329 90.8625 43.4332C90.4041 44.2354 88.1236 44.3118 88.1236 44.3118Z" fill="#37474F"/>
<path d="M112.965 66.6361H112.85C110.474 66.9114 108.181 67.6762 106.116 68.8822C104.137 70.0473 102.074 71.6632 101.623 73.8864C102.656 73.0946 103.895 72.616 105.191 72.5074C104.492 73.5694 103.755 74.6657 102.605 75.3342C100.837 76.358 98.4796 76.1708 96.4283 76.6827C93.7352 77.3512 91.5769 79.3261 90.8778 81.7633C92.7229 80.1741 95.6757 80.1741 98.3077 80.5409C100.94 80.9076 103.656 81.557 106.165 80.9496C107.527 80.5181 108.741 79.7135 109.668 78.627C110.616 77.3894 111.032 75.5176 111.899 74.234C112.873 72.7977 114.077 71.4378 115.719 70.6203C116.483 70.2383 117.469 69.9977 118.263 70.4217C118.375 70.5016 118.508 70.5468 118.645 70.5516C118.737 70.5374 118.823 70.4976 118.894 70.437L120.04 69.6233C120.099 69.5886 120.145 69.5365 120.173 69.4743C120.183 69.3982 120.165 69.3211 120.124 69.2566C118.905 66.9455 115.364 66.3801 112.965 66.6361Z" fill="#455A64"/>
<path d="M166.957 89.77C167.549 91.4279 170.85 96.7148 172.08 99.5301C172.16 99.7135 172.236 99.9121 172.313 100.08C172.962 101.631 173.539 103.213 174.135 104.786C174.433 105.577 174.734 106.372 175.048 107.162C175.381 107.932 175.525 108.77 175.468 109.607C175.483 110.046 175.377 110.481 175.162 110.864C174.964 111.115 174.712 111.318 174.425 111.46C174.264 111.573 174.074 111.639 173.877 111.649C173.681 111.659 173.485 111.613 173.313 111.517C172.947 111.422 172.609 111.237 172.332 110.979C172.106 110.719 171.892 110.448 171.671 110.184L170.227 108.473C169.348 107.43 168.466 106.383 167.553 105.356C165.681 103.216 162.743 102.865 157.548 101.585L166.957 89.77Z" fill="#CB35DE"/>
<path opacity="0.2" d="M166.957 89.77C167.549 91.4279 170.85 96.7148 172.08 99.5301C172.16 99.7135 172.236 99.9121 172.313 100.08C172.962 101.631 173.539 103.213 174.135 104.786C174.433 105.577 174.734 106.372 175.048 107.162C175.381 107.932 175.525 108.77 175.468 109.607C175.483 110.046 175.377 110.481 175.162 110.864C174.964 111.115 174.712 111.318 174.425 111.46C174.264 111.573 174.074 111.639 173.877 111.649C173.681 111.659 173.485 111.613 173.313 111.517C172.947 111.422 172.609 111.237 172.332 110.979C172.106 110.719 171.892 110.448 171.671 110.184L170.227 108.473C169.348 107.43 168.466 106.383 167.553 105.356C165.681 103.216 162.743 102.865 157.548 101.585L166.957 89.77Z" fill="white"/>
<path d="M177.699 113.66C177.359 114.638 176.679 114.669 174.471 115.67C172.263 116.67 170.552 118.344 169.967 119.237C169.383 120.131 169.245 119.237 166.35 119.757C165.127 119.986 164.107 120.235 163.114 120.368C163.378 118.92 163.557 117.419 164.378 116.166C164.614 115.791 164.949 115.487 165.345 115.288L165.467 115.349C166.468 115.815 167.476 116.036 168.038 115.884C168.6 115.731 173.466 113.019 173.787 112.682L171.953 110.486C172.184 110.505 172.413 110.542 172.637 110.597C173.367 110.658 173.829 109.856 173.936 109.168C174.043 108.48 174.039 107.69 174.585 107.224C174.707 107.124 174.846 107.046 174.994 106.994C175.376 107.957 175.731 108.817 176.049 109.474C177.168 111.8 178.035 112.69 177.699 113.66Z" fill="#E0E0E0"/>
<path d="M173.375 110.341C173.279 110.437 173.163 110.511 173.036 110.559C172.909 110.606 172.773 110.626 172.637 110.616C172.413 110.561 172.184 110.524 171.953 110.505L173.787 112.702C173.466 113.038 168.607 115.758 168.038 115.903C167.469 116.048 166.468 115.834 165.467 115.368L165.345 115.307C164.949 115.506 164.614 115.81 164.378 116.185C163.887 116.984 163.555 117.87 163.401 118.794C164.228 117.93 165.327 117.373 166.514 117.217C167.125 117.185 167.733 117.116 168.336 117.011C169.753 116.648 170.666 115.372 171.881 114.589C172.809 113.993 173.917 113.676 174.796 113.019C174.837 113.001 174.874 112.974 174.903 112.939C174.931 112.904 174.95 112.862 174.959 112.818C174.967 112.774 174.964 112.728 174.95 112.685C174.937 112.642 174.912 112.603 174.88 112.572L173.375 110.341Z" fill="#E0E0E0"/>
<path opacity="0.1" d="M173.375 110.341C173.279 110.437 173.163 110.511 173.036 110.559C172.909 110.606 172.773 110.626 172.637 110.616C172.413 110.561 172.184 110.524 171.953 110.505L173.787 112.702C173.466 113.038 168.607 115.758 168.038 115.903C167.469 116.048 166.468 115.834 165.467 115.368L165.345 115.307C164.949 115.506 164.614 115.81 164.378 116.185C163.887 116.984 163.555 117.87 163.401 118.794C164.228 117.93 165.327 117.373 166.514 117.217C167.125 117.185 167.733 117.116 168.336 117.011C169.753 116.648 170.666 115.372 171.881 114.589C172.809 113.993 173.917 113.676 174.796 113.019C174.837 113.001 174.874 112.974 174.903 112.939C174.931 112.904 174.95 112.862 174.959 112.818C174.967 112.774 174.964 112.728 174.95 112.685C174.937 112.642 174.912 112.603 174.88 112.572L173.375 110.341Z" fill="black"/>
<path d="M165.345 115.307C164.949 115.506 164.614 115.81 164.378 116.185C163.557 117.419 163.378 118.92 163.114 120.387L162.774 120.429L162.438 120.464C162.213 120.464 161.987 120.491 161.762 120.491C161.647 120.491 161.533 120.491 161.418 120.491L161.067 120.471C160.952 120.471 160.833 120.448 160.711 120.433C160.471 120.403 160.218 120.361 159.947 120.307C159.541 120.213 159.141 120.096 158.748 119.956C158.748 119.956 158.679 118.665 159.592 116.56C160.505 114.455 162.403 113.756 162.931 113.977C163.048 114.027 163.161 114.084 163.271 114.149L163.485 114.272C163.721 114.409 163.993 114.581 164.287 114.753C164.341 114.789 164.397 114.822 164.455 114.852L164.799 115.051L164.974 115.146L165.154 115.242L165.345 115.307Z" fill="#263238"/>
<path d="M169.352 57.1778C171.934 55.4855 174.494 55.7262 174.608 55.8522C174.608 55.8522 172.698 58.2206 172.087 59.2444C171.709 59.21 169.352 57.1778 169.352 57.1778Z" fill="#CB35DE"/>
<path opacity="0.45" d="M169.352 57.1778C171.934 55.4855 174.494 55.7262 174.608 55.8522C174.608 55.8522 172.698 58.2206 172.087 59.2444C171.709 59.21 169.352 57.1778 169.352 57.1778Z" fill="white"/>
<path d="M174.608 55.8523C174.765 56.8493 173.08 60.7266 173.08 60.7266L172.076 59.2445C172.793 58.0245 173.643 56.887 174.608 55.8523Z" fill="#CB35DE"/>
<path d="M133.005 107.9C133.555 108.752 134.002 109.668 134.334 110.627C134.422 111.154 134.309 111.696 134.018 112.144C133.726 112.592 133.278 112.915 132.76 113.049C131.996 113.294 128.94 113.855 127.03 111.257C126.935 110.875 127.37 108.327 127.37 108.327L133.005 107.9Z" fill="#263238"/>
<path d="M131.649 104.561C131.549 102.964 131.538 102.861 129.712 101.478C127.886 100.095 125.426 97.0624 124.093 94.8506C123.038 93.0972 122.389 91.6953 122.366 90.8167C121.47 90.711 120.564 90.9073 119.791 91.3744C118.542 92.1384 116.949 90.0794 116.735 88.624C116.66 89.0892 116.532 89.5442 116.353 89.9801C115.899 90.9657 116.712 91.6151 118.615 93.3761C120.422 95.0493 124.574 99.9274 125.621 102.074C126.156 103.27 126.881 104.371 127.768 105.337C128.325 106.028 127.909 107.701 127.489 108.11C127.068 108.519 127.825 109.638 129.716 109.89C131.607 110.142 133.028 108.801 133.009 107.9C132.374 107.017 131.748 106.154 131.649 104.561Z" fill="#E0E0E0"/>
<path opacity="0.1" d="M129.674 108.465C129.403 107.823 129.647 105.722 128.803 104.848C128.062 104.055 127.639 103.018 127.615 101.933C127.535 100.879 124.593 97.2534 123.191 95.9126C121.789 94.5718 120.75 92.7076 122.427 91.978L122.538 91.6571C122.45 91.3848 122.398 91.1024 122.381 90.8167C121.485 90.711 120.579 90.9073 119.807 91.3744C118.558 92.1384 116.965 90.0794 116.751 88.624C116.676 89.0892 116.548 89.5442 116.369 89.9801C115.914 90.9657 116.728 91.6151 118.63 93.3761C120.437 95.0493 124.589 99.9274 125.636 102.074C126.172 103.27 126.897 104.371 127.783 105.337C128.341 106.028 127.924 107.701 127.504 108.11C127.084 108.519 127.84 109.638 129.731 109.89C130.575 110.014 131.434 109.805 132.126 109.306C130.931 109.332 129.849 108.889 129.674 108.465Z" fill="black"/>
<path d="M140.022 70.9603C143.54 72.4119 146.344 73.4662 148.136 71.9726C153.006 67.9119 155.237 61.3148 157.185 59.7066C161.158 56.4214 166.659 55.4205 169.577 57.3153C173.707 59.9893 175.067 62.7511 174.715 64.7184C174.364 66.6857 174.853 68.3551 175.693 70.3873C176.534 72.4195 177.179 75.0324 178.058 75.6054C178.936 76.1784 179.238 77.8057 178.715 78.6958C178.192 79.5859 178.134 81.4844 176.178 82.2369C174.223 82.9895 172.664 82.6189 171.274 80.5791C169.883 78.5392 170.227 77.2213 168.004 75.6131C167.114 74.9789 166.441 74.4938 165.884 74.1538C165.12 76.8775 164.42 80.4606 166.311 86.3473C168.202 92.2339 165.712 97.261 163.313 99.4651C160.914 101.669 158.095 101.073 159.409 102.758C160.723 104.443 165.097 108.843 165.368 109.16C166.025 109.924 166.132 110.933 166.185 111.899C166.234 112.255 166.195 112.617 166.071 112.954C165.917 113.218 165.686 113.429 165.408 113.557C165.131 113.684 164.82 113.723 164.52 113.668C163.553 113.546 162.755 112.873 161.983 112.335C161.063 111.697 160.15 111.051 159.271 110.356C156.597 108.24 151.895 106.036 148.124 102.353C146.635 100.898 145.187 102.387 138.257 99.935C132.936 98.1854 129.25 93.6014 127.023 93.059C125.877 92.7763 124.387 92.593 123.226 92.9826C122.206 93.3226 122.221 94.5106 122.313 95.4923C122.489 97.4872 122.951 99.4465 123.684 101.31C123.986 102.093 124.36 103.151 123.967 103.893C123.875 104.068 122.336 103.224 122.187 103.129C121.602 102.747 120.991 102.365 120.441 101.937C119.822 101.474 119.604 100.825 119.15 100.206C118.833 99.7879 118.495 99.3863 118.137 99.0029C117.32 98.1167 116.457 97.5551 116.3 96.2449C116.178 95.202 116.269 94.1897 116.078 93.1354C115.776 91.7623 115.334 90.4235 114.76 89.1397C114.22 87.8644 113.801 86.5405 113.511 85.186C113.11 83.2505 113.019 81.2636 113.24 79.2994C113.527 76.7361 114.184 74.0507 115.956 72.1216C117.674 70.3212 119.844 69.0163 122.24 68.3436C130.201 65.9485 136.504 69.524 140.022 70.9603Z" fill="#CB35DE"/>
<path opacity="0.45" d="M140.022 70.9603C143.54 72.4119 146.344 73.4662 148.136 71.9726C153.006 67.9119 155.237 61.3148 157.185 59.7066C161.158 56.4214 166.659 55.4205 169.577 57.3153C173.707 59.9893 175.067 62.7511 174.715 64.7184C174.364 66.6857 174.853 68.3551 175.693 70.3873C176.534 72.4195 177.179 75.0324 178.058 75.6054C178.936 76.1784 179.238 77.8057 178.715 78.6958C178.192 79.5859 178.134 81.4844 176.178 82.2369C174.223 82.9895 172.664 82.6189 171.274 80.5791C169.883 78.5392 170.227 77.2213 168.004 75.6131C167.114 74.9789 166.441 74.4938 165.884 74.1538C165.12 76.8775 164.42 80.4606 166.311 86.3473C168.202 92.2339 165.712 97.261 163.313 99.4651C160.914 101.669 158.095 101.073 159.409 102.758C160.723 104.443 165.097 108.843 165.368 109.16C166.025 109.924 166.132 110.933 166.185 111.899C166.234 112.255 166.195 112.617 166.071 112.954C165.917 113.218 165.686 113.429 165.408 113.557C165.131 113.684 164.82 113.723 164.52 113.668C163.553 113.546 162.755 112.873 161.983 112.335C161.063 111.697 160.15 111.051 159.271 110.356C156.597 108.24 151.895 106.036 148.124 102.353C146.635 100.898 145.187 102.387 138.257 99.935C132.936 98.1854 129.25 93.6014 127.023 93.059C125.877 92.7763 124.387 92.593 123.226 92.9826C122.206 93.3226 122.221 94.5106 122.313 95.4923C122.489 97.4872 122.951 99.4465 123.684 101.31C123.986 102.093 124.36 103.151 123.967 103.893C123.875 104.068 122.336 103.224 122.187 103.129C121.602 102.747 120.991 102.365 120.441 101.937C119.822 101.474 119.604 100.825 119.15 100.206C118.833 99.7879 118.495 99.3863 118.137 99.0029C117.32 98.1167 116.457 97.5551 116.3 96.2449C116.178 95.202 116.269 94.1897 116.078 93.1354C115.776 91.7623 115.334 90.4235 114.76 89.1397C114.22 87.8644 113.801 86.5405 113.511 85.186C113.11 83.2505 113.019 81.2636 113.24 79.2994C113.527 76.7361 114.184 74.0507 115.956 72.1216C117.674 70.3212 119.844 69.0163 122.24 68.3436C130.201 65.9485 136.504 69.524 140.022 70.9603Z" fill="white"/>
<path opacity="0.5" d="M159.856 85.9501C157.006 89.2353 162.09 92.0621 161.991 94.8316C161.892 97.6011 165.142 93.6168 164.906 89.4263C164.851 87.3057 165.039 85.1857 165.467 83.108C164.851 80.146 164.994 77.0763 165.883 74.1845C165.177 73.8274 164.512 73.3931 163.901 72.8895C162.957 72.1255 161.151 70.7809 160.547 69.1536C160.035 71.1705 161.555 73.7376 162.029 75.5521C163.141 79.7388 162.705 82.6458 159.856 85.9501Z" fill="#CB35DE"/>
<path opacity="0.5" d="M177.79 77.5841C176.622 77.7522 175.842 78.1189 175.579 77.3167C175.315 76.5145 174.956 76.5527 173.963 76.1516C172.97 75.7505 171.426 73.4776 170.872 72.2743C170.319 71.071 170.532 69.1878 170.25 67.9004C169.967 66.6131 169.176 65.8911 167.878 65.4327C166.579 64.9743 165.566 64.9208 165.643 66.0401C165.719 67.1593 167.171 68.3512 167.553 69.4055C167.935 70.4598 167.935 72.3431 168.378 73.661C168.821 74.9789 170.055 78.1457 170.055 78.1457C170.381 78.9959 170.792 79.8112 171.281 80.579C172.672 82.6265 174.23 82.9932 176.186 82.2369C178.142 81.4805 178.203 79.582 178.723 78.6957C179.242 77.8095 178.94 76.1784 178.065 75.6054C178.394 76.0179 178.963 77.4199 177.79 77.5841Z" fill="#CB35DE"/>
<path d="M174.543 77.0304C174.196 76.6064 173.905 77.4697 173.692 78.2375C173.478 79.0053 174.796 79.9068 175.113 79.6433C175.43 79.3797 175.353 78.8296 175.025 78.249C174.696 77.6683 174.899 77.4697 174.543 77.0304Z" fill="#263238"/>
<path d="M168.607 67.5453C168.447 67.779 168.204 67.943 167.927 68.004C167.65 68.065 167.361 68.0185 167.117 67.8738C166.998 67.8073 166.894 67.7171 166.811 67.6086C166.728 67.5002 166.668 67.3758 166.635 67.2433C166.602 67.1108 166.597 66.9729 166.619 66.8383C166.642 66.7036 166.692 66.5749 166.766 66.4604C167.083 65.9752 167.419 66.3305 167.912 66.6323C168.405 66.934 168.92 67.0601 168.607 67.5453Z" fill="#263238"/>
<path d="M170.781 60.5431C170.842 60.7532 171.774 62.7243 170.819 63.7404C170.215 64.3898 171.915 64.3784 172.729 66.6666C173.222 68.0723 173.47 68.7981 173.543 67.8546C173.615 66.911 173.352 65.0545 173.703 63.9773C174.054 62.9 173.646 63.3279 172.805 62.2736C171.965 61.2192 170.548 59.7867 170.781 60.5431Z" fill="white"/>
<path opacity="0.5" d="M149.286 103.182C148.388 101.994 147.513 100.76 147.166 99.3162C146.764 97.6392 146.272 95.9546 145.798 94.2968C145.061 91.7183 144.236 96.0922 139.484 96.1227C137.287 96.1227 134.609 95.7407 132.695 94.6138C130.612 93.3473 128.728 91.778 127.107 89.9572C125.449 88.0969 124.196 85.7552 124.074 83.2837C124.074 83.6008 123.386 84.4297 123.226 84.7353C122.917 85.3236 122.636 85.9246 122.381 86.5383C121.879 87.7723 121.495 89.0514 121.235 90.3583C120.978 91.6592 120.85 92.9822 120.853 94.3082C120.853 95.225 121.235 97.0739 120.403 97.7462C120.277 97.8289 120.134 97.8836 119.985 97.9067C119.837 97.9297 119.684 97.9206 119.539 97.8799C118.887 97.7602 118.272 97.4909 117.742 97.0932C117.212 96.6955 116.781 96.1802 116.483 95.5879C116.395 95.4122 116.323 95.2288 116.243 95.0493C116.243 95.4542 116.269 95.8591 116.319 96.2717C116.476 97.582 117.339 98.1435 118.156 99.0297C118.514 99.4131 118.852 99.8147 119.169 100.233C119.623 100.852 119.841 101.501 120.46 101.963C121.01 102.376 121.606 102.789 122.206 103.155C122.355 103.251 123.894 104.095 123.986 103.919C124.368 103.178 124.005 102.12 123.703 101.337C122.962 99.4682 122.493 97.5024 122.313 95.5C122.221 94.5259 122.206 93.3303 123.226 92.9903C124.372 92.6083 125.861 92.784 127.023 93.0667C129.25 93.6015 132.936 98.1855 138.257 99.9427C145.187 102.395 146.635 100.905 148.124 102.361C148.644 102.869 149.182 103.346 149.733 103.805C149.584 103.583 149.427 103.373 149.286 103.182Z" fill="#CB35DE"/>
<path d="M166.025 126.163C165.559 127.62 164.82 128.975 163.847 130.155C163.137 130.873 161.28 130.193 160.058 128.715C158.836 127.237 158.671 125.735 159.088 124.998C159.504 124.261 161.112 122.599 161.112 122.599L166.025 126.163Z" fill="#263238"/>
<path d="M167.316 111.616C166.729 110.756 166.081 109.939 165.375 109.172C164.909 109.088 164.497 109.81 164.382 110.937C164.268 112.063 163.836 113.041 162.472 112.69C163.103 113.141 163.443 113.454 163.465 113.759C163.511 114.424 163.29 120.723 162.361 121.801C161.433 122.878 161.105 122.16 160.78 123.13C160.455 124.1 161.223 127.045 163.836 127.206C166.449 127.366 166.189 125.342 166.453 124.222C166.716 123.103 166.338 122.61 166.201 120.708C166.135 118.971 166.287 117.232 166.651 115.532C166.865 114.459 168.08 113.018 167.316 111.616Z" fill="#F5F5F5"/>
<path d="M164.218 111.75C163.981 112.476 163.485 112.954 162.468 112.69C163.099 113.141 163.439 113.454 163.462 113.76C163.507 114.424 163.286 120.723 162.358 121.801C161.429 122.878 161.101 122.16 160.776 123.13C160.451 124.1 161.219 127.046 163.832 127.206C164.293 127.253 164.758 127.189 165.188 127.019C165.188 127.019 163.832 127.206 163.175 125.311C162.518 123.417 164.199 121.69 164.68 118.156C165.162 114.623 164.699 113.443 164.226 111.75H164.218Z" fill="#E0E0E0"/>
<path d="M130.644 115.54C131.408 116.946 132.08 118.508 131.977 118.886C131.874 119.264 130.568 120.678 128.352 120.712C126.136 120.746 124.555 118.802 124.482 117.931L125.04 116.021L130.644 115.54Z" fill="#263238"/>
<path d="M127.924 117.11C129.196 116.949 130.529 116.411 130.659 115.54C130.044 114.394 129.513 113.752 129.261 112.484C128.975 110.979 129.395 110.444 127.554 108.354C125.945 106.528 124.467 103.239 123.684 101.333C123.184 101.688 122.569 101.971 122.091 101.666C121.14 101.051 120.51 100.814 118.951 99.958C119.157 100.524 119.474 101.044 119.883 101.486C121.688 103.642 122.912 106.223 123.439 108.985C124.032 112.174 124.471 112.067 125.349 113.026C126.308 114.1 125.686 114.856 125.04 116.048C125.239 117.201 126.656 117.274 127.924 117.11Z" fill="#F5F5F5"/>
<path d="M127.363 115.532C128.077 114.268 126.534 112.128 125.426 111.097C124.318 110.066 124.712 107.323 123.898 105.283C123.184 103.468 121.331 102.258 121.224 101.157C120.628 100.837 119.998 100.539 118.932 99.9541C119.138 100.52 119.455 101.04 119.864 101.482C121.669 103.638 122.893 106.219 123.42 108.981C124.012 112.17 124.452 112.063 125.33 113.022C126.289 114.096 125.667 114.852 125.021 116.044C125.235 117.217 126.652 117.285 127.92 117.125C128.141 117.097 128.361 117.057 128.577 117.007C127.97 116.865 126.824 116.487 127.363 115.532Z" fill="#E0E0E0"/>
<path d="M170.437 57.4643C169.516 56.9409 168.47 56.7003 167.56 56.1998C165.644 55.149 163.408 54.8378 161.277 55.3251C159.936 55.665 158.648 56.005 157.499 56.7996C156.264 57.6193 154.906 58.2346 153.476 58.6217C152.021 59.0687 150.493 59.6493 149.595 60.8832C150.936 59.9664 152.918 60.8832 154.313 60.0466C153.411 61.0151 152.432 61.9093 151.387 62.7206C150.618 63.2773 149.771 63.7175 148.873 64.027C148.19 64.3274 147.43 64.4075 146.699 64.2562C148.35 65.0508 150.302 65.5665 151.998 64.8751C148.758 66.1853 146.512 68.1412 144.656 72.6029C147.276 73.3975 150.038 71.4569 151.727 69.5469L156.429 64.2295C157.907 62.5601 159.416 60.8793 161.231 59.5653C162.206 58.8559 163.244 58.2382 164.333 57.7202C165.249 57.3038 166.766 56.7843 167.454 56.7499C167.454 56.7499 166.724 58.8204 166.869 58.9655C167.339 59.4354 167.366 60.0466 167.316 60.6654C167.266 61.2843 166.697 61.6777 166.235 61.9604C165.739 62.2295 165.229 62.4718 164.707 62.6862C163.446 63.2821 162.258 64.2142 161.754 65.5015C162.211 65.0687 162.785 64.7804 163.404 64.6726C164.016 64.5389 164.646 64.5084 165.265 64.4167C166.077 64.3062 166.864 64.0554 167.591 63.6756C168.321 63.2926 168.938 62.7266 169.383 62.033C169.243 62.7153 168.923 63.3475 168.454 63.8628C170.013 63.5495 171.927 62.3921 172.427 60.7838C172.916 59.2597 171.656 58.1557 170.437 57.4643Z" fill="#455A64"/>
<path d="M171.576 58.2671C171.554 58.2511 171.533 58.233 171.514 58.2129L171.576 58.2671Z" fill="#CB35DE"/>
<path d="M170.437 57.4644C170.529 57.514 170.609 57.5637 170.693 57.6172C170.609 57.5637 170.525 57.5102 170.437 57.4644Z" fill="#CB35DE"/>
<path d="M164.493 61.3262C164.768 60.1802 166.827 57.2465 167.454 56.7651C167.522 57.8861 167.453 59.0112 167.247 60.1153C166.873 60.9519 164.493 61.3262 164.493 61.3262Z" fill="#CB35DE"/>
<path d="M115.165 150.462C114.867 151.891 113.912 153.954 113.255 154.752C112.598 155.55 110.612 155 109.229 153.575C107.846 152.15 107.564 150.611 107.934 149.816C108.305 149.022 109.844 147.181 109.844 147.181L115.165 150.462Z" fill="#CB35DE"/>
<path opacity="0.2" d="M115.165 150.462C114.867 151.891 113.912 153.954 113.255 154.752C112.598 155.55 110.612 155 109.229 153.575C107.846 152.15 107.564 150.611 107.934 149.816C108.305 149.022 109.844 147.181 109.844 147.181L115.165 150.462Z" fill="white"/>
<path d="M114.948 139.449C115.085 138.379 115.891 137.379 115.933 136.324C115.994 134.796 114.589 133.356 113.767 132.225C112.644 130.677 111.535 129.118 110.44 127.55C108.227 124.371 106.079 121.147 103.996 117.877C103.331 119.287 103.446 120.933 103.32 122.461C103.141 124.615 102.489 126.702 101.41 128.573C101.662 128.891 102.323 129.188 102.663 129.448C103.136 129.807 103.637 130.124 104.137 130.441L108.274 133.07C109.037 133.504 109.734 134.047 110.341 134.682C110.885 135.386 111.287 136.189 111.525 137.046C111.777 137.81 111.582 138.532 111.609 139.338C111.64 140.205 111.651 141.076 111.636 141.947C111.617 143.162 111.796 145.198 111.024 146.245C110.154 147.429 109.76 146.718 109.496 147.742C109.233 148.766 110.26 151.746 112.969 151.7C115.677 151.654 115.261 149.591 115.429 148.415C115.597 147.238 115.181 146.764 114.89 144.808C114.686 143.027 114.705 141.226 114.948 139.449Z" fill="white"/>
<path opacity="0.3" d="M114.948 139.449C115.085 138.379 115.891 137.379 115.933 136.324C115.994 134.796 114.589 133.356 113.767 132.225C112.644 130.677 111.535 129.118 110.44 127.55C108.227 124.371 106.079 121.147 103.996 117.877C103.331 119.287 103.446 120.933 103.32 122.461C103.141 124.615 102.489 126.702 101.41 128.573C101.662 128.891 102.323 129.188 102.663 129.448C103.136 129.807 103.637 130.124 104.137 130.441L108.274 133.07C109.037 133.504 109.734 134.047 110.341 134.682C110.885 135.386 111.287 136.189 111.525 137.046C111.777 137.81 111.582 138.532 111.609 139.338C111.64 140.205 111.651 141.076 111.636 141.947C111.617 143.162 111.796 145.198 111.024 146.245C110.154 147.429 109.76 146.718 109.496 147.742C109.233 148.766 110.26 151.746 112.969 151.7C115.677 151.654 115.261 149.591 115.429 148.415C115.597 147.238 115.181 146.764 114.89 144.808C114.686 143.027 114.705 141.226 114.948 139.449Z" fill="#CB35DE"/>
<path opacity="0.35" d="M114.145 151.326C114.06 151.333 113.975 151.333 113.89 151.326C113.034 151.291 112.491 150.588 112.151 149.798C111.613 148.571 112.186 147.33 112.308 146.088C112.457 144.522 112.808 143.032 112.835 141.436C112.854 140.549 112.782 139.621 112.835 138.742C112.892 137.978 113.477 137.272 113.324 136.496C113.152 135.618 112.098 134.456 111.46 133.864C110.504 133.04 109.491 132.283 108.431 131.599C106.979 130.575 105.539 129.357 104.955 127.676C104.087 125.197 105.291 122.282 104.191 119.895C103.965 120.828 103.666 121.743 103.297 122.63C103.104 124.725 102.462 126.753 101.413 128.577C101.666 128.894 102.326 129.192 102.666 129.452C103.14 129.811 103.64 130.128 104.141 130.445L108.278 133.074C109.041 133.508 109.737 134.051 110.345 134.686C110.889 135.39 111.291 136.193 111.529 137.05C111.781 137.814 111.586 138.536 111.613 139.342C111.643 140.209 111.655 141.08 111.64 141.951C111.62 143.166 111.8 145.202 111.028 146.249C110.157 147.433 109.764 146.722 109.5 147.746C109.237 148.77 110.264 151.75 112.973 151.704C113.575 151.739 114.17 151.561 114.654 151.199C114.401 151.272 114.218 151.318 114.145 151.326Z" fill="#CB35DE"/>
<path d="M60.1956 139.048C59.3704 140.607 58.3543 142.486 57.9532 142.647C57.5521 142.807 55.5199 142.505 54.202 140.557C52.8841 138.609 53.7703 136 54.4999 135.404L56.5551 134.701L60.1956 139.048Z" fill="#CB35DE"/>
<path opacity="0.2" d="M60.1956 139.048C59.3704 140.607 58.3543 142.486 57.9532 142.647C57.5521 142.807 55.5199 142.505 54.202 140.557C52.8841 138.609 53.7703 136 54.4999 135.404L56.5551 134.701L60.1956 139.048Z" fill="white"/>
<path d="M62.8352 110.272C62.606 112.109 61.8764 113.103 60.9023 114.68C60.7315 114.919 60.6099 115.189 60.5443 115.475C60.4787 115.761 60.4705 116.057 60.5203 116.346C60.5432 116.797 60.6158 117.282 60.6769 117.904C60.6268 118.795 60.6268 119.688 60.6769 120.578C60.9405 123.065 60.7037 125.598 59.3667 128.91C58.9847 129.884 58.5186 130.942 58.4537 132.004C58.4231 132.466 58.5797 132.818 58.3735 133.265C57.9915 134.071 57.2275 134.483 56.4367 134.793C56.3771 134.811 56.3223 134.842 56.2763 134.884C56.2453 134.932 56.2233 134.985 56.2113 135.041C55.9248 136.279 56.4902 137.13 57.1931 138.066C57.5833 138.547 58.1199 138.886 58.7211 139.033C59.0957 139.133 59.4798 139.193 59.8671 139.212C59.942 139.225 60.0188 139.215 60.0886 139.186C60.1658 139.13 60.2233 139.051 60.2529 138.96C60.6234 138.119 61.0443 137.302 61.5135 136.512C61.9604 135.748 62.5143 135.071 62.9651 134.327C63.6145 133.249 63.5075 131.954 63.3471 130.736C62.9957 128.104 63.6069 124.177 64.0271 121.95C64.1066 120.936 64.3278 119.938 64.6841 118.985C64.9744 118.26 65.2074 117.698 65.8798 117.27C66.5338 116.901 67.2174 116.587 67.9235 116.33C70.3952 115.284 72.5734 113.648 74.2685 111.567L62.8352 110.272Z" fill="white"/>
<path opacity="0.3" d="M62.8352 110.272C62.606 112.109 61.8764 113.103 60.9023 114.68C60.7315 114.919 60.6099 115.189 60.5443 115.475C60.4787 115.761 60.4705 116.057 60.5203 116.346C60.5432 116.797 60.6158 117.282 60.6769 117.904C60.6268 118.795 60.6268 119.688 60.6769 120.578C60.9405 123.065 60.7037 125.598 59.3667 128.91C58.9847 129.884 58.5186 130.942 58.4537 132.004C58.4231 132.466 58.5797 132.818 58.3735 133.265C57.9915 134.071 57.2275 134.483 56.4367 134.793C56.3771 134.811 56.3223 134.842 56.2763 134.884C56.2453 134.932 56.2233 134.985 56.2113 135.041C55.9248 136.279 56.4902 137.13 57.1931 138.066C57.5833 138.547 58.1199 138.886 58.7211 139.033C59.0957 139.133 59.4798 139.193 59.8671 139.212C59.942 139.225 60.0188 139.215 60.0886 139.186C60.1658 139.13 60.2233 139.051 60.2529 138.96C60.6234 138.119 61.0443 137.302 61.5135 136.512C61.9604 135.748 62.5143 135.071 62.9651 134.327C63.6145 133.249 63.5075 131.954 63.3471 130.736C62.9957 128.104 63.6069 124.177 64.0271 121.95C64.1066 120.936 64.3278 119.938 64.6841 118.985C64.9744 118.26 65.2074 117.698 65.8798 117.27C66.5338 116.901 67.2174 116.587 67.9235 116.33C70.3952 115.284 72.5734 113.648 74.2685 111.567L62.8352 110.272Z" fill="#CB35DE"/>
<path opacity="0.35" d="M62.8352 110.272C62.606 112.109 61.8764 113.103 60.9023 114.68C60.7315 114.919 60.6099 115.189 60.5443 115.475C60.4787 115.761 60.4705 116.057 60.5203 116.346C60.5432 116.797 60.6158 117.282 60.6769 117.904C60.6268 118.795 60.6268 119.688 60.6769 120.578C60.9405 123.065 60.7037 125.598 59.3667 128.91C58.9847 129.884 58.5186 130.942 58.4537 132.004C58.4231 132.466 58.5797 132.818 58.3735 133.265C57.9915 134.071 57.2275 134.483 56.4367 134.793C56.3771 134.811 56.3223 134.842 56.2763 134.884C56.2453 134.932 56.2233 134.985 56.2113 135.041C55.9248 136.279 56.4902 137.13 57.1931 138.066C57.5833 138.547 58.1199 138.886 58.7211 139.033C59.0413 139.117 59.3687 139.172 59.699 139.197C58.6714 138.735 57.8616 137.952 58.9961 137.318C60.356 136.554 60.2453 133.662 59.8709 132.057C59.4965 130.453 61.4333 128.127 61.9108 125.754C62.1667 124.486 61.9108 123.222 61.8191 121.954C61.7715 121.397 61.7715 120.837 61.8191 120.28C62.0177 118.069 63.1752 116.999 65.154 116.296C67.3772 115.502 68.2787 116.491 69.8678 115.284C70.2498 115.009 71.583 113.756 72.0529 113.775C72.851 113.107 73.5839 112.366 74.2417 111.559L62.8352 110.272Z" fill="#CB35DE"/>
<path d="M111.109 155.6C111.433 157.025 111.426 159.298 111.151 160.302C110.876 161.307 108.859 161.632 106.998 160.91C105.138 160.188 104.248 158.912 104.252 158.033C104.255 157.155 104.878 154.851 104.878 154.851L111.109 155.6Z" fill="#CB35DE"/>
<path opacity="0.4" d="M111.109 155.6C111.433 157.025 111.426 159.298 111.151 160.302C110.876 161.307 108.859 161.632 106.998 160.91C105.138 160.188 104.248 158.912 104.252 158.033C104.255 157.155 104.878 154.851 104.878 154.851L111.109 155.6Z" fill="white"/>
<path d="M48.9877 97.219C48.4983 97.3197 48.0216 97.4748 47.5667 97.6813C46.0921 98.3498 44.9232 99.5187 43.6435 100.466C42.3638 101.413 40.7136 101.96 39.1703 102.491C37.1801 103.178 35.0791 104.019 33.9293 105.799C35.6215 104.695 38.1504 104.737 40.0986 104.618C39.8846 104.618 39.3346 105.268 39.113 105.413C37.9631 106.239 36.6668 106.839 35.293 107.182C33.3563 107.667 31.3049 107.564 29.33 107.85C27.0112 108.19 24.5626 109.042 23.2944 111.013C24.5282 110.165 26.1212 110.005 27.6072 110.203C29.0931 110.402 30.5065 110.921 31.9429 111.349C33.9092 111.968 35.9634 112.261 38.0243 112.216C40.0413 112.129 42.4097 111.685 43.7276 110.016C43.4329 110.998 42.836 111.862 42.0218 112.484C41.2077 113.107 40.2179 113.457 39.1932 113.485C40.6426 113.886 42.1859 113.775 43.5633 113.171C46.6499 111.804 47.5017 108.488 48.854 105.707C49.5989 104.179 50.5463 102.708 51.91 101.711C52.5479 101.245 53.3883 100.886 54.1141 101.199C54.2128 101.26 54.3272 101.289 54.4427 101.284C54.5248 101.256 54.5976 101.205 54.6528 101.138L55.581 100.202C55.6302 100.162 55.6661 100.107 55.6842 100.046C55.6915 99.9712 55.6711 99.8964 55.6269 99.8358C54.393 97.6851 51.2797 96.7568 48.9877 97.219Z" fill="#CB35DE"/>
<path opacity="0.15" d="M54.0988 101.188C54.1976 101.248 54.3119 101.277 54.4274 101.272C54.5096 101.244 54.5823 101.194 54.6375 101.127C54.6909 101.07 54.7482 101.016 54.8055 100.959C53.9832 100.458 53.0281 100.218 52.0666 100.271C50.7134 100.373 49.4338 100.928 48.4338 101.845C47.4597 102.716 46.7453 103.831 45.8858 104.813C43.941 107.012 41.3036 108.481 38.4101 108.977C39.9314 109.556 41.6177 109.525 43.1164 108.889C41.4164 110.639 38.7272 111.013 36.2976 110.75C33.8681 110.486 31.5226 109.691 29.0893 109.497C27.1335 109.336 25.0057 109.657 23.4433 110.772C23.386 110.853 23.3287 110.929 23.2753 111.013C24.5091 110.165 26.1021 110.005 27.588 110.203C29.074 110.402 30.4874 110.921 31.9237 111.349C33.8901 111.968 35.9443 112.261 38.0052 112.216C40.0221 112.129 42.3905 111.685 43.7084 110.016C43.4138 110.998 42.8169 111.862 42.0027 112.484C41.1886 113.107 40.1988 113.457 39.1741 113.485C40.6235 113.886 42.1668 113.775 43.5442 113.171C46.6307 111.804 47.4826 108.488 48.8349 105.707C49.5798 104.179 50.5271 102.708 51.8909 101.711C52.5326 101.23 53.373 100.875 54.0988 101.188Z" fill="black"/>
<path d="M108.06 87.455C110.138 85.0293 112.751 84.5327 112.9 84.6244C111.791 85.5965 111.023 86.8996 110.711 88.3413C110.322 88.4024 108.06 87.455 108.06 87.455Z" fill="#E0E0E0"/>
<path d="M112.9 84.6245L111.83 89.2391L110.711 88.3414C110.711 88.3414 111.051 85.8737 112.9 84.6245Z" fill="#FFA8A7"/>
<path d="M52.7351 146.665C51.994 148.266 51.0772 150.21 50.6838 150.374C50.2903 150.538 48.2466 150.374 46.8256 148.487C45.4045 146.6 46.1532 143.96 46.8523 143.326L48.8884 142.562L52.7351 146.665Z" fill="#CB35DE"/>
<path opacity="0.3" d="M52.7351 146.665C51.994 148.266 51.0772 150.21 50.6838 150.374C50.2903 150.538 48.2466 150.374 46.8256 148.487C45.4045 146.6 46.1532 143.96 46.8523 143.326L48.8884 142.562L52.7351 146.665Z" fill="white"/>
<path d="M116.663 104.702C115.754 104.114 115.089 101.406 114.218 99.3046C113.347 97.2036 112.847 95.4846 113.206 93.4409C113.565 91.3972 112.163 88.5551 107.892 85.7818C104.87 83.8221 99.1786 84.8573 95.0683 88.2533C93.0552 89.9227 90.7441 96.7452 85.7093 100.947C83.8528 102.494 80.9534 101.402 77.3053 99.8967C74.3295 98.6667 71.2392 96.9591 67.9769 96.6535C64.3173 96.3097 60.6578 96.474 57.3802 98.3572C54.3903 100.09 52.1294 102.848 51.0161 106.119C50.2024 108.541 50.0917 111.105 50.1872 113.637C50.2788 116.025 50.4011 118.363 50.3629 120.746C50.384 121.312 50.3572 121.878 50.2827 122.439C50.1417 122.952 49.9603 123.454 49.7402 123.94C49.6391 124.185 49.5673 124.442 49.5263 124.704C49.4989 125.109 49.5628 125.515 49.7135 125.892C50.3209 127.638 51.3026 129.185 51.6999 131.011C52.1254 132.969 51.9849 135.008 51.2949 136.89C50.9859 137.579 50.7478 138.299 50.5844 139.036C50.4851 139.686 50.848 140.385 50.5844 140.996C50.2483 141.821 49.5072 142.276 48.7317 142.623C48.6728 142.642 48.62 142.676 48.5789 142.723C48.548 142.771 48.5284 142.826 48.5216 142.883C48.4435 143.288 48.4242 143.703 48.4643 144.113C48.4875 144.488 48.6059 144.851 48.8081 145.168C49.0319 145.5 49.3021 145.798 49.6103 146.054C50.3743 146.692 51.3905 146.848 52.376 146.856C52.4511 146.864 52.5269 146.849 52.5937 146.814C52.6688 146.757 52.7225 146.676 52.7466 146.585C53.0782 145.725 53.4609 144.885 53.8926 144.071C54.2975 143.307 54.817 142.581 55.2257 141.814C55.7949 140.763 55.6459 139.774 55.4435 138.674C55.2143 137.451 55.0233 136.225 54.8514 134.991C54.519 132.554 54.2746 130.105 54.0301 127.653C53.9207 127.054 53.9654 126.438 54.1599 125.861C54.5419 124.998 55.5924 124.406 56.3565 123.951C57.2735 123.392 58.2514 122.94 59.2711 122.603C60.1268 122.295 61.0394 122.177 61.9451 122.259C62.943 122.376 63.907 122.693 64.7796 123.191C67.5873 124.719 69.8105 127.156 72.6487 128.684C73.5505 129.174 74.4939 129.583 75.4679 129.907C82.6342 132.443 84.1355 130.904 85.6788 132.409C89.579 136.229 94.4266 138.502 97.2075 140.69C98.1167 141.405 99.0602 142.073 100.011 142.734C100.783 143.251 101.48 143.872 102.082 144.579C102.724 145.343 102.804 146.149 103.228 146.997C103.62 147.777 103.992 148.563 104.343 149.358C104.828 150.47 105.841 152.25 105.577 153.518C105.279 154.958 104.626 154.477 104.813 155.516C105 156.555 107.185 158.835 109.619 157.667C112.052 156.498 110.811 154.802 110.486 153.656C110.161 152.51 109.573 152.257 108.492 150.6C107.557 149.063 106.819 147.415 106.295 145.695C106.005 144.724 106.074 143.62 105.94 142.62C105.917 142.388 105.861 142.162 105.772 141.947C105.67 141.757 105.542 141.582 105.39 141.428C102.804 138.479 99.7478 135.919 97.3336 132.821C95.9698 131.079 98.8883 131.675 101.368 129.414C103.847 127.152 106.429 121.93 104.473 115.845C102.517 109.76 103.224 106.047 104.03 103.239C104.607 103.591 105.306 104.091 106.223 104.748C108.515 106.402 108.171 107.754 109.607 109.875C111.044 111.995 112.663 112.369 114.684 111.59C116.705 110.81 116.77 108.843 117.305 107.923C117.839 107.002 117.568 105.298 116.663 104.702Z" fill="white"/>
<g opacity="0.3">
<path d="M104.057 85.186C105.329 85.1419 106.587 85.4627 107.682 86.1104C111.299 88.4597 113.225 91.1757 112.831 93.3684C112.449 95.4618 112.954 97.2457 113.863 99.4422C114.119 100.057 114.359 100.733 114.592 101.387C115.192 103.075 115.708 104.53 116.453 105.016C117.198 105.501 117.465 106.926 117.014 107.69C116.856 107.997 116.728 108.32 116.632 108.652C116.3 109.6 115.926 110.677 114.596 111.189C114.074 111.408 113.516 111.527 112.95 111.54C111.804 111.54 110.868 110.929 109.978 109.63C109.561 108.999 109.211 108.325 108.935 107.621C108.477 106.54 108.045 105.516 106.498 104.408L106.429 104.359C105.605 103.791 104.705 103.343 103.755 103.029C103.745 103.053 103.736 103.077 103.728 103.102C102.827 106.253 102.261 109.978 104.175 115.937C105.951 121.464 103.866 126.633 101.176 129.112C100.307 129.862 99.2983 130.435 98.2084 130.797C97.4176 131.099 96.8446 131.32 96.6995 131.843C96.6679 132.058 96.686 132.277 96.7522 132.484C96.8184 132.69 96.931 132.879 97.0815 133.035C98.5245 134.81 100.076 136.494 101.727 138.078C102.873 139.224 104.068 140.423 105.165 141.657C105.288 141.785 105.393 141.929 105.478 142.085C105.549 142.266 105.594 142.456 105.612 142.65C105.657 143.002 105.676 143.361 105.699 143.747C105.714 144.435 105.808 145.119 105.978 145.786C106.515 147.54 107.268 149.22 108.221 150.787C108.554 151.295 108.915 151.785 109.302 152.254C109.698 152.675 109.993 153.18 110.165 153.732C110.226 153.942 110.31 154.16 110.398 154.389C110.814 155.462 111.208 156.479 109.504 157.296C109.125 157.483 108.708 157.581 108.286 157.583C106.639 157.583 105.359 156.081 105.23 155.42C105.168 155.077 105.199 155.038 105.344 154.886C105.692 154.526 105.918 154.066 105.99 153.572C106.234 152.391 105.554 150.943 105.008 149.786C104.905 149.568 104.809 149.362 104.729 149.179C104.389 148.415 104.011 147.601 103.61 146.799C103.471 146.517 103.351 146.226 103.251 145.928C103.074 145.338 102.788 144.787 102.407 144.304C101.783 143.574 101.063 142.932 100.267 142.394C99.213 141.665 98.3344 141.038 97.4787 140.362C96.455 139.556 95.1371 138.727 93.7466 137.852C91.256 136.286 88.433 134.51 85.9767 132.122C85.1745 131.339 84.357 131.274 83.1155 131.179C81.6716 131.064 79.4827 130.896 75.6207 129.529C74.6691 129.212 73.7475 128.812 72.8665 128.333C71.4839 127.534 70.1714 126.619 68.9433 125.598C67.7082 124.569 66.3882 123.646 64.9973 122.84C64.0802 122.316 63.0667 121.984 62.0177 121.862C61.8076 121.843 61.6013 121.831 61.3988 121.831C60.6405 121.835 59.888 121.964 59.1718 122.213C58.1256 122.559 57.1221 123.023 56.1807 123.596L56.0279 123.692C55.2295 124.177 54.2325 124.78 53.8314 125.697C53.6118 126.334 53.5579 127.016 53.6748 127.68C53.9155 130.094 54.1599 132.585 54.4961 135.033C54.6795 136.37 54.8781 137.577 55.0882 138.735C55.2983 139.892 55.4053 140.71 54.9125 141.623C54.7177 141.982 54.4961 142.341 54.2784 142.688C54.0606 143.036 53.7932 143.452 53.5755 143.884C53.1431 144.711 52.7604 145.563 52.4295 146.436V146.463C51.2835 146.463 50.4927 146.226 49.9045 145.744C49.6255 145.513 49.3811 145.243 49.1787 144.942C49.0118 144.676 48.9146 144.373 48.896 144.06C48.8625 143.691 48.8792 143.32 48.9456 142.956C49.6867 142.623 50.5882 142.115 50.9893 141.13C51.1281 140.709 51.1466 140.258 51.0428 139.827C50.9941 139.582 50.9799 139.331 51.0008 139.082C51.1052 138.547 51.2692 138.026 51.4898 137.528C51.5585 137.356 51.6273 137.184 51.6922 137.008C52.4013 135.058 52.5469 132.948 52.1124 130.919C51.8362 129.818 51.4417 128.75 50.9359 127.733C50.6455 127.091 50.3476 126.431 50.1107 125.754C49.9831 125.431 49.9258 125.085 49.9427 124.738C49.9812 124.507 50.0466 124.282 50.1375 124.066C50.191 123.925 50.2521 123.776 50.3132 123.627C50.4802 123.266 50.6083 122.888 50.6952 122.5C50.7684 122.041 50.7978 121.577 50.7831 121.113V120.731C50.8136 118.726 50.7334 116.712 50.6532 114.768L50.6073 113.603C50.5271 111.521 50.55 108.801 51.4172 106.223C52.5039 103.041 54.7028 100.36 57.6094 98.6706C59.7142 97.4596 62.1934 96.8752 65.1845 96.8752C66.0478 96.8752 66.9646 96.921 67.9807 97.0165C70.4446 97.2457 72.8436 98.3153 75.1623 99.3467C75.8308 99.6447 76.5222 99.9541 77.1984 100.233C79.7043 101.268 81.7556 102.059 83.4746 102.059C84.3722 102.087 85.2502 101.793 85.95 101.23C89.0824 98.6171 91.1299 95.0912 92.7725 92.2606C93.7428 90.5874 94.5794 89.1473 95.309 88.5399C97.8607 86.4313 101.131 85.1707 104.053 85.1707M104.057 84.804C101.188 84.804 97.7843 86.0187 95.0683 88.2611C93.0552 89.9304 90.7441 96.7529 85.7093 100.955C85.0699 101.472 84.2662 101.743 83.4441 101.719C81.7785 101.719 79.7043 100.909 77.313 99.9197C74.3372 98.6897 71.2468 96.9821 67.9845 96.6765C67.041 96.5887 66.0936 96.5352 65.1539 96.5352C62.4608 96.5352 59.8059 96.9859 57.3878 98.3802C54.3979 100.113 52.137 102.871 51.0237 106.142C50.2101 108.564 50.0993 111.128 50.1948 113.66C50.2865 116.048 50.4087 118.386 50.3705 120.769C50.3916 121.335 50.3648 121.901 50.2903 122.462C50.1494 122.975 49.968 123.477 49.7478 123.963C49.6467 124.208 49.5749 124.465 49.5339 124.727C49.5065 125.132 49.5705 125.538 49.7211 125.915C50.3285 127.661 51.3102 129.208 51.7075 131.034C52.133 132.992 51.9926 135.031 51.3026 136.913C50.9935 137.602 50.7555 138.322 50.5921 139.059C50.4927 139.709 50.8556 140.408 50.5921 141.019C50.2559 141.844 49.5148 142.299 48.7394 142.646C48.6804 142.665 48.6276 142.699 48.5866 142.746C48.5556 142.794 48.536 142.849 48.5293 142.906C48.4511 143.311 48.4318 143.726 48.472 144.136C48.4952 144.511 48.6135 144.874 48.8158 145.191C49.0396 145.523 49.3097 145.821 49.618 146.077C50.382 146.715 51.3981 146.871 52.3836 146.879C52.4538 146.885 52.5242 146.87 52.5861 146.837C52.6611 146.78 52.7149 146.699 52.7389 146.608C53.0706 145.748 53.4532 144.908 53.8849 144.094C54.2898 143.33 54.8093 142.604 55.2181 141.837C55.7873 140.786 55.6383 139.797 55.4358 138.697C55.2066 137.474 55.0156 136.248 54.8437 135.014C54.5114 132.577 54.2669 130.128 54.0224 127.676C53.9131 127.077 53.9578 126.461 54.1523 125.884C54.5343 125.021 55.581 124.429 56.3488 123.974C57.2659 123.415 58.2438 122.963 59.2635 122.626C59.9391 122.383 60.6504 122.254 61.3683 122.244C61.5593 122.244 61.7503 122.244 61.9489 122.274C62.9468 122.391 63.9108 122.708 64.7834 123.206C67.5911 124.734 69.8143 127.172 72.6526 128.7C73.5543 129.19 74.4977 129.599 75.4717 129.922C82.638 132.458 84.1393 130.919 85.6826 132.424C89.5828 136.244 94.4304 138.517 97.2113 140.706C98.1205 141.42 99.064 142.089 100.015 142.75C100.787 143.267 101.483 143.888 102.086 144.595C102.727 145.359 102.808 146.165 103.232 147.013C103.624 147.792 103.996 148.579 104.347 149.373C104.832 150.485 105.845 152.265 105.581 153.533C105.283 154.974 104.63 154.492 104.817 155.531C104.974 156.368 106.414 158.007 108.255 158.007C108.735 158.005 109.208 157.894 109.638 157.682C112.071 156.517 110.83 154.817 110.505 153.671C110.18 152.525 109.592 152.273 108.511 150.615C107.576 149.078 106.838 147.43 106.314 145.71C106.024 144.74 106.093 143.636 105.959 142.635C105.936 142.404 105.88 142.177 105.791 141.963C105.689 141.772 105.561 141.597 105.409 141.443C102.823 138.494 99.7669 135.935 97.3527 132.837C95.9889 131.095 98.9074 131.691 101.387 129.429C103.866 127.168 106.448 121.946 104.492 115.861C102.536 109.775 103.243 106.062 104.049 103.255C104.626 103.606 105.325 104.106 106.242 104.763C108.534 106.418 108.19 107.77 109.626 109.89C110.612 111.345 111.685 111.979 112.915 111.979C113.53 111.963 114.136 111.834 114.703 111.597C116.724 110.833 116.789 108.851 117.324 107.93C117.858 107.01 117.549 105.329 116.644 104.733C115.738 104.137 115.07 101.436 114.199 99.3352C113.328 97.2342 112.827 95.5152 113.187 93.4715C113.546 91.4278 112.144 88.5858 107.873 85.8124C106.719 85.127 105.394 84.7851 104.053 84.8269L104.057 84.804Z" fill="#CB35DE"/>
</g>
<path opacity="0.2" d="M108.106 156.269C107.105 155.379 107.109 154.011 106.7 152.831C106.188 151.345 105.887 149.847 105.245 148.384C104.89 147.57 104.435 146.753 104.126 145.928C103.858 145.214 104.095 144.327 103.633 143.686C103.332 143.352 102.952 143.1 102.529 142.952C100.821 142.128 99.1624 141.205 97.5628 140.186C95.8132 139.075 94.3998 138.536 92.3141 137.402C94.2241 138.605 95.9546 139.648 97.2495 140.672C98.1587 141.386 99.1023 142.054 100.053 142.715C100.825 143.232 101.522 143.853 102.124 144.56C102.766 145.324 102.846 146.13 103.27 146.978C103.662 147.758 104.034 148.545 104.385 149.339C104.87 150.451 105.883 152.231 105.619 153.499C105.321 154.939 104.668 154.458 104.855 155.497C105.042 156.536 107.227 158.817 109.661 157.648C110.214 157.426 110.675 157.022 110.967 156.502C110.772 156.665 110.563 156.81 110.341 156.933C109.596 157.338 108.629 156.742 108.106 156.269ZM103.064 118.982C103.01 116.788 103.204 114.595 103.644 112.446C103.01 109.382 103.158 106.208 104.076 103.216C103.052 102.64 101.589 102.246 100.787 101.597C99.8089 100.806 99.1786 99.6867 98.556 98.0098C98.025 100.095 99.595 102.762 100.084 104.63C101.23 108.981 100.787 111.987 97.8378 115.387C94.8888 118.787 100.13 121.705 100.046 124.578C99.9618 127.451 103.3 123.317 103.056 118.982H103.064ZM116.663 104.706C117.01 105.13 117.603 106.582 116.388 106.754C115.173 106.926 114.371 107.308 114.096 106.479C113.821 105.65 113.45 105.676 112.423 105.272C111.395 104.867 109.802 102.498 109.225 101.257C108.648 100.015 108.874 98.0632 108.583 96.7339C108.293 95.4045 107.472 94.6558 106.131 94.1821C104.79 93.7084 103.736 93.6511 103.816 94.8086C103.896 95.9661 105.394 97.1999 105.783 98.2886C106.173 99.3773 106.188 101.345 106.639 102.693C107.09 104.042 108.377 107.342 108.377 107.342C108.714 108.222 109.139 109.065 109.645 109.859C111.082 111.98 112.701 112.354 114.718 111.575C116.735 110.795 116.808 108.828 117.347 107.907C117.885 106.987 117.568 105.298 116.663 104.706ZM84.7047 129.238C84.2883 127.5 83.7764 125.758 83.2875 124.039C82.5235 121.365 81.6716 125.9 76.7552 125.949C72.4845 125.976 68.3054 124.215 64.9629 121.625C61.8573 119.218 61.0207 113.656 61.693 110.027C59.1451 113.053 59.103 117.511 56.9447 120.823C55.856 122.488 54.8094 123.371 53.4265 124.799C53.1862 125.006 53 125.268 52.8841 125.563C52.8338 125.793 52.8273 126.03 52.865 126.262C53.1439 128.622 53.7335 130.934 54.6184 133.138C54.4006 131.32 54.2364 129.498 54.0377 127.672C53.9284 127.074 53.9731 126.457 54.1676 125.88C54.5496 125.017 55.6001 124.425 56.3641 123.97C57.2812 123.412 58.259 122.959 59.2788 122.622C60.1344 122.314 61.047 122.197 61.9528 122.278C62.9506 122.395 63.9146 122.712 64.7872 123.21C67.5949 124.738 69.8181 127.175 72.6564 128.703C73.5582 129.193 74.5016 129.602 75.4756 129.926C82.6419 132.462 84.1431 130.923 85.6864 132.428C86.0913 132.81 86.5077 133.192 86.9279 133.574C86.8439 133.429 86.756 133.291 86.6682 133.146C85.95 131.866 85.0485 130.671 84.7047 129.238ZM52.4601 131.66C52.0805 130.646 51.5749 129.683 50.955 128.795C51.2818 129.505 51.5377 130.246 51.719 131.007C52.1445 132.965 52.004 135.004 51.3141 136.886C51.005 137.576 50.7669 138.295 50.6035 139.033C50.5042 139.682 50.8671 140.381 50.6035 140.992C50.2674 141.818 49.5263 142.272 48.7508 142.62C48.6919 142.638 48.6391 142.673 48.598 142.719C48.5671 142.768 48.5475 142.822 48.5407 142.879C48.4626 143.285 48.4433 143.699 48.4834 144.11C48.5066 144.484 48.625 144.847 48.8272 145.164C49.051 145.496 49.3212 145.794 49.6294 146.05C50.3934 146.688 51.4096 146.845 52.3951 146.852C52.4703 146.86 52.546 146.845 52.6129 146.81C52.6879 146.753 52.7417 146.672 52.7657 146.581C52.7657 146.547 52.7962 146.512 52.8077 146.478C52.4882 146.406 52.1906 146.259 51.9394 146.049C51.6882 145.839 51.4909 145.572 51.3637 145.271C50.8327 143.792 52.5899 142.326 52.3531 140.767C52.2347 139.98 51.6082 139.308 51.612 138.509C51.612 137.837 52.0513 137.26 52.3569 136.661C53.1362 135.133 53.0369 133.276 52.4601 131.66Z" fill="#CB35DE"/>
<path d="M113.026 106.196C112.667 105.757 112.369 106.647 112.148 107.445C111.926 108.243 113.294 109.172 113.614 108.897C113.935 108.622 113.867 108.056 113.527 107.457C113.187 106.857 113.397 106.635 113.026 106.196Z" fill="#263238"/>
<path d="M106.884 96.3671C106.719 96.607 106.47 96.7755 106.187 96.8386C105.903 96.9017 105.606 96.8547 105.356 96.7071C105.232 96.6383 105.124 96.5449 105.038 96.4326C104.952 96.3203 104.89 96.1916 104.856 96.0544C104.822 95.9172 104.817 95.7744 104.84 95.635C104.864 95.4956 104.916 95.3625 104.993 95.244C105.321 94.7436 105.669 95.1103 106.196 95.4197C106.723 95.7292 107.212 95.882 106.884 96.3671Z" fill="#263238"/>
<path d="M109.401 88.5972L109.47 88.7157C109.871 89.4797 110.375 90.1443 110.791 90.8778C111.195 91.5389 111.687 92.1417 112.255 92.6694C112.391 92.786 112.489 92.9421 112.533 93.1163C112.535 93.3033 112.485 93.4872 112.388 93.6473C112.119 94.3011 112.007 95.0088 112.06 95.7139C112.06 96.0959 112.102 96.4779 112.132 96.8332C112.132 96.9401 112.224 97.8684 111.949 97.4329C111.594 96.8714 111.364 96.2334 111.013 95.6681C110.757 95.2605 110.442 94.8935 110.077 94.5794C109.878 94.4113 109.202 94.121 109.164 93.8497C109.161 93.797 109.171 93.7444 109.195 93.6969C109.436 93.2024 109.578 92.6649 109.611 92.1155C109.581 91.5778 109.499 91.0443 109.367 90.5225C109.332 90.3735 108.755 88.1809 108.893 88.1885C109.005 88.2093 109.11 88.2575 109.198 88.3288C109.287 88.4001 109.357 88.4924 109.401 88.5972Z" fill="#FAFAFA"/>
<path d="M108.832 85.7933C108.595 85.7021 108.353 85.6268 108.106 85.568C107.965 85.5418 107.829 85.4955 107.701 85.4304C107.606 85.3648 107.517 85.2893 107.438 85.2051C106.622 84.502 105.591 84.0978 104.515 84.0591C103.447 84.0209 102.378 84.0515 101.314 84.1507C99.8472 84.2195 98.5484 83.7917 97.1121 83.6809C95.882 83.5854 94.6367 83.8413 93.846 84.8651C94.9614 84.1393 96.4321 84.7161 97.6239 85.3044C95.7712 86.8324 92.7191 85.5259 90.7479 86.8897C89.7318 87.5926 89.2696 88.8302 88.7157 89.9457C88.1618 91.0611 87.3138 92.1918 86.0875 92.3217C86.8668 92.5048 87.6855 92.4102 88.4025 92.0543C88.9487 91.7831 89.4148 91.3667 89.9305 91.0535C90.182 90.8772 90.4673 90.755 90.7684 90.6945C91.0695 90.634 91.3799 90.6366 91.68 90.702C90.6677 90.916 89.8961 91.7373 89.2925 92.5815C88.7161 93.2961 88.189 94.0491 87.7149 94.8353C87.3336 95.6975 86.8839 96.5278 86.3702 97.3183C85.7604 98.0985 84.9334 98.6809 83.9934 98.9923C83.0533 99.3036 82.0421 99.3299 81.0872 99.0678C81.9409 100.027 83.0737 100.695 84.3265 100.978C84.7006 101.073 85.0888 101.1 85.4725 101.058C86.2292 100.926 86.947 100.628 87.5735 100.183C88.2712 99.7049 88.8986 99.1315 89.4377 98.4796L94.3044 92.9788C95.8324 91.2521 97.3947 89.5102 99.2704 88.1541C100.262 87.4176 101.335 86.7973 102.468 86.3052C103.363 85.8911 104.316 85.6167 105.295 85.4916C105.295 85.4916 104.951 87.4016 105.104 87.5353C105.442 88.1274 105.593 88.8076 105.539 89.4873C105.42 90.0679 105.196 90.6219 104.878 91.1222C104.558 91.6448 104.156 92.1118 103.686 92.5051C103.392 92.7534 102.643 93.4066 102.231 93.376C103.281 93.4848 104.343 93.4019 105.363 93.1316C106.391 92.854 107.286 92.217 107.884 91.3362C107.9 91.6631 107.848 91.9897 107.733 92.2959C107.617 92.602 107.44 92.8812 107.212 93.1163C107.752 93.107 108.285 92.9854 108.775 92.7591C109.266 92.5329 109.704 92.207 110.062 91.8022C110.777 90.9813 111.167 89.9268 111.158 88.8379C111.17 88.3778 111.083 87.9205 110.902 87.4971C110.689 87.0889 110.396 86.7277 110.04 86.435C109.684 86.1424 109.273 85.9241 108.832 85.7933Z" fill="#CB35DE"/>
<path opacity="0.15" d="M102.246 86.3701C100.837 86.4564 99.4563 86.8035 98.174 87.3939C97.4073 87.7186 96.6857 88.141 96.0272 88.6507C95.414 89.1679 94.8501 89.7408 94.3426 90.362C93.3239 91.564 92.3256 92.7954 91.3477 94.056C90.3545 95.3548 89.3919 96.6956 88.1771 97.7881C86.9623 98.8806 85.442 99.7248 83.8108 99.8089C82.9163 99.852 82.0277 99.6415 81.2476 99.2015C82.0868 100.077 83.1658 100.686 84.3495 100.951C84.7235 101.047 85.1117 101.074 85.4955 101.031C86.2522 100.9 86.9699 100.601 87.5965 100.156C88.2941 99.6782 88.9216 99.1047 89.4606 98.4528L94.3273 92.952C95.8553 91.2253 97.4177 89.4834 99.2933 88.1273C100.214 87.4402 101.203 86.8513 102.246 86.3701Z" fill="black"/>
<path d="M102.632 89.9342C102.915 88.7615 104.63 85.9653 105.279 85.4648C105.623 86.5017 105.691 87.61 105.478 88.6813C105.092 89.5446 102.632 89.9342 102.632 89.9342Z" fill="#FFA8A7"/>
</svg>
