<svg width="223" height="223" viewBox="0 0 223 223" fill="none" xmlns="http://www.w3.org/2000/svg">
<path d="M193.564 85.0166C192.397 82.0339 190.927 79.1793 189.175 76.498C181.424 64.6701 167.054 56.8428 154.762 50.8441C117.298 32.5581 86.078 52.6281 68.684 73.1441C51.29 93.6601 30.774 104.364 28.544 126.664C26.314 148.964 39.248 173.494 74.928 177.508C110.608 181.522 138.706 154.316 162.79 157.438C199.594 162.206 202.93 108.775 193.564 85.0166Z" fill="#CB35DE"/>
<path opacity="0.7" d="M193.564 85.0166C192.397 82.0339 190.927 79.1793 189.175 76.498C181.424 64.6701 167.054 56.8428 154.762 50.8441C117.298 32.5581 86.078 52.6281 68.684 73.1441C51.29 93.6601 30.774 104.364 28.544 126.664C26.314 148.964 39.248 173.494 74.928 177.508C110.608 181.522 138.706 154.316 162.79 157.438C199.594 162.206 202.93 108.775 193.564 85.0166Z" fill="white"/>
<path d="M107.87 91.6753C103.606 88.754 97.228 88.25 97.228 88.25C106.594 86.7826 115.576 89.7218 115.576 89.7218C115.576 89.7218 109.6 85.3153 105.318 85.3153C101.037 85.3153 94.2264 84.8247 94.2264 84.8247C96.782 81.89 106.148 78.4647 106.148 78.4647C106.148 78.4647 99.3197 78.4648 96.336 78.9554C93.3522 79.4459 92.4959 82.8668 92.4959 82.8668C92.4959 82.8668 91.6441 80.9088 85.244 79.4415C78.8439 77.9741 77.158 82.8668 77.158 82.8668H83.1299C85.2663 82.8668 88.25 85.8059 88.25 85.8059C88.25 85.8059 81.4262 85.8059 78.884 87.2732C76.6808 88.5354 73.8531 93.7759 73.086 95.2165C74.8414 86.1933 77.3355 77.3297 80.5431 68.7152L80.7126 68.5859C84.9095 65.562 86.7113 63.778 86.7113 63.778L93.9321 75.82L93.3299 65.562C93.3299 65.562 99.342 67.3683 101.148 69.1701C102.955 70.972 108.378 77.0063 108.378 77.0063C108.378 77.0063 105.97 67.9882 102.964 64.9643C99.9575 61.9405 94.552 58.3635 94.552 58.3635C94.552 58.3635 101.171 58.3635 103.575 59.5677C105.979 60.7719 113.177 65.562 113.177 65.562C113.177 65.562 108.378 57.1593 104.756 55.3575C101.135 53.5557 91.5237 53.5512 91.5237 53.5512C91.5237 53.5512 95.7339 49.9431 98.7399 49.9431H107.16C107.16 49.9431 104.756 43.931 95.7339 45.7328C86.7113 47.5347 85.5116 49.952 85.5116 49.952C85.5116 49.952 84.3074 45.7417 80.0971 45.1441C75.8869 44.5465 66.2711 44.542 66.2711 44.542C66.2711 44.542 79.4995 48.7522 83.1076 52.3604C83.1076 52.3604 73.4874 52.9625 67.4709 52.9625C61.4543 52.9625 53.0383 58.3725 53.0383 58.3725C53.0383 58.3725 65.669 54.7643 78.9063 56.5885C78.9063 56.5885 69.8882 57.1861 63.8717 60.7987C57.8551 64.4113 51.8296 72.8407 51.8296 72.8407C51.8296 72.8407 57.2441 67.4307 64.4604 65.6244C71.6767 63.8181 81.9034 61.4142 81.9034 61.4142C81.9034 61.4142 71.6767 69.7901 70.468 74.0003C69.2593 78.2105 65.6557 85.4268 65.6557 85.4268C65.6557 85.4268 74.2768 74.4106 79.1249 69.906C75.1109 80.9668 70.0488 98.7845 69.4244 119.363C67.6404 112.066 62.44 96.9648 48.8325 89.3962C51.4104 90.1009 55.1256 91.1267 58.1227 91.983C63.2428 93.4504 67.0829 97.8568 67.0829 97.8568C67.0829 97.8568 62.8146 91.0063 58.5464 88.0671C54.2782 85.128 47.8781 84.6418 47.8781 84.6418C57.2441 83.1745 66.2265 86.1092 66.2265 86.1092C66.2265 86.1092 60.2546 81.7072 55.9685 81.7072C51.6825 81.7072 44.8765 81.2166 44.8765 81.2166C47.4366 78.2819 56.8249 74.8566 56.8249 74.8566C56.8249 74.8566 49.9966 74.8566 47.0128 75.3427C44.0291 75.8289 43.1728 79.2586 43.1728 79.2586C43.1728 79.2586 42.3209 77.3007 35.9164 75.8334C29.5118 74.366 27.8125 79.2586 27.8125 79.2586H33.8068C35.9387 79.2586 38.9269 82.1978 38.9269 82.1978C38.9269 82.1978 32.0986 82.1978 29.5609 83.6651C27.0231 85.1325 23.5889 91.983 23.5889 91.983C23.5889 91.983 28.709 88.0671 30.4172 87.077C32.1254 86.0869 36.8173 86.0958 36.8173 86.0958C36.8173 86.0958 32.9772 89.035 30.8409 91.479C28.7045 93.9231 27.0008 101.291 27.0008 101.291C27.0008 101.291 30.8409 96.385 32.1209 94.9311C33.4009 93.4771 37.6691 91.9919 37.6691 91.9919L37.2231 100.314L42.3477 90.5023C43.6702 91.9112 45.0954 93.22 46.6115 94.4182C49.5996 96.8623 57.2798 108.119 57.2798 108.119C57.2798 108.119 54.7197 102.245 53.8679 98.8202C53.1632 96.0015 48.1278 90.8636 46.3706 89.1375C63.7646 97.2993 68.3673 117.842 69.2058 122.588H61.994L63.5817 136.561H76.266L77.8493 122.588H70.4011C70.8471 119.742 72.4438 111.246 76.6451 103.53C76.4266 104.342 76.3017 104.868 76.3017 104.868C76.3017 104.868 80.1417 99.9619 81.4262 98.508C82.7107 97.054 86.97 95.5912 86.97 95.5912L86.524 103.918L91.6441 94.106C92.9676 95.5154 94.3943 96.8243 95.9123 98.0219C98.896 100.47 106.576 111.723 106.576 111.723C106.576 111.723 104.016 105.849 103.164 102.424C102.312 98.9986 95.056 92.1659 95.056 92.1659C95.056 92.1659 102.312 94.1238 107.432 95.5912C112.553 97.0585 116.406 101.465 116.406 101.465C116.406 101.465 112.138 94.6144 107.87 91.6753ZM70.3743 118.056C70.6928 110.477 71.5784 102.931 73.0236 95.4841C73.8308 94.8686 78.1615 91.5861 79.7136 90.6985C81.4217 89.7218 86.1137 89.7218 86.1137 89.7218C86.1137 89.7218 82.2736 92.6565 80.1373 95.105C79.2185 96.162 78.3756 98.1334 77.7155 100.011C73.6703 106.112 71.4804 113.284 70.3743 118.056Z" fill="#CB35DE"/>
<path opacity="0.5" d="M107.87 91.6753C103.606 88.754 97.228 88.25 97.228 88.25C106.594 86.7826 115.576 89.7218 115.576 89.7218C115.576 89.7218 109.6 85.3153 105.318 85.3153C101.037 85.3153 94.2264 84.8247 94.2264 84.8247C96.782 81.89 106.148 78.4647 106.148 78.4647C106.148 78.4647 99.3197 78.4648 96.336 78.9554C93.3522 79.4459 92.4959 82.8668 92.4959 82.8668C92.4959 82.8668 91.6441 80.9088 85.244 79.4415C78.8439 77.9741 77.158 82.8668 77.158 82.8668H83.1299C85.2663 82.8668 88.25 85.8059 88.25 85.8059C88.25 85.8059 81.4262 85.8059 78.884 87.2732C76.6808 88.5354 73.8531 93.7759 73.086 95.2165C74.8414 86.1933 77.3355 77.3297 80.5431 68.7152L80.7126 68.5859C84.9095 65.562 86.7113 63.778 86.7113 63.778L93.9321 75.82L93.3299 65.562C93.3299 65.562 99.342 67.3683 101.148 69.1701C102.955 70.972 108.378 77.0063 108.378 77.0063C108.378 77.0063 105.97 67.9882 102.964 64.9643C99.9575 61.9405 94.552 58.3635 94.552 58.3635C94.552 58.3635 101.171 58.3635 103.575 59.5677C105.979 60.7719 113.177 65.562 113.177 65.562C113.177 65.562 108.378 57.1593 104.756 55.3575C101.135 53.5557 91.5237 53.5512 91.5237 53.5512C91.5237 53.5512 95.7339 49.9431 98.7399 49.9431H107.16C107.16 49.9431 104.756 43.931 95.7339 45.7328C86.7113 47.5347 85.5116 49.952 85.5116 49.952C85.5116 49.952 84.3074 45.7417 80.0971 45.1441C75.8869 44.5465 66.2711 44.542 66.2711 44.542C66.2711 44.542 79.4995 48.7522 83.1076 52.3604C83.1076 52.3604 73.4874 52.9625 67.4709 52.9625C61.4543 52.9625 53.0383 58.3725 53.0383 58.3725C53.0383 58.3725 65.669 54.7643 78.9063 56.5885C78.9063 56.5885 69.8882 57.1861 63.8717 60.7987C57.8551 64.4113 51.8296 72.8407 51.8296 72.8407C51.8296 72.8407 57.2441 67.4307 64.4604 65.6244C71.6767 63.8181 81.9034 61.4142 81.9034 61.4142C81.9034 61.4142 71.6767 69.7901 70.468 74.0003C69.2593 78.2105 65.6557 85.4268 65.6557 85.4268C65.6557 85.4268 74.2768 74.4106 79.1249 69.906C75.1109 80.9668 70.0488 98.7845 69.4244 119.363C67.6404 112.066 62.44 96.9648 48.8325 89.3962C51.4104 90.1009 55.1256 91.1267 58.1227 91.983C63.2428 93.4504 67.0829 97.8568 67.0829 97.8568C67.0829 97.8568 62.8146 91.0063 58.5464 88.0671C54.2782 85.128 47.8781 84.6418 47.8781 84.6418C57.2441 83.1745 66.2265 86.1092 66.2265 86.1092C66.2265 86.1092 60.2546 81.7072 55.9685 81.7072C51.6825 81.7072 44.8765 81.2166 44.8765 81.2166C47.4366 78.2819 56.8249 74.8566 56.8249 74.8566C56.8249 74.8566 49.9966 74.8566 47.0128 75.3427C44.0291 75.8289 43.1728 79.2586 43.1728 79.2586C43.1728 79.2586 42.3209 77.3007 35.9164 75.8334C29.5118 74.366 27.8125 79.2586 27.8125 79.2586H33.8068C35.9387 79.2586 38.9269 82.1978 38.9269 82.1978C38.9269 82.1978 32.0986 82.1978 29.5609 83.6651C27.0231 85.1325 23.5889 91.983 23.5889 91.983C23.5889 91.983 28.709 88.0671 30.4172 87.077C32.1254 86.0869 36.8173 86.0958 36.8173 86.0958C36.8173 86.0958 32.9772 89.035 30.8409 91.479C28.7045 93.9231 27.0008 101.291 27.0008 101.291C27.0008 101.291 30.8409 96.385 32.1209 94.9311C33.4009 93.4771 37.6691 91.9919 37.6691 91.9919L37.2231 100.314L42.3477 90.5023C43.6702 91.9112 45.0954 93.22 46.6115 94.4182C49.5996 96.8623 57.2798 108.119 57.2798 108.119C57.2798 108.119 54.7197 102.245 53.8679 98.8202C53.1632 96.0015 48.1278 90.8636 46.3706 89.1375C63.7646 97.2993 68.3673 117.842 69.2058 122.588H61.994L63.5817 136.561H76.266L77.8493 122.588H70.4011C70.8471 119.742 72.4438 111.246 76.6451 103.53C76.4266 104.342 76.3017 104.868 76.3017 104.868C76.3017 104.868 80.1417 99.9619 81.4262 98.508C82.7107 97.054 86.97 95.5912 86.97 95.5912L86.524 103.918L91.6441 94.106C92.9676 95.5154 94.3943 96.8243 95.9123 98.0219C98.896 100.47 106.576 111.723 106.576 111.723C106.576 111.723 104.016 105.849 103.164 102.424C102.312 98.9986 95.056 92.1659 95.056 92.1659C95.056 92.1659 102.312 94.1238 107.432 95.5912C112.553 97.0585 116.406 101.465 116.406 101.465C116.406 101.465 112.138 94.6144 107.87 91.6753ZM70.3743 118.056C70.6928 110.477 71.5784 102.931 73.0236 95.4841C73.8308 94.8686 78.1615 91.5861 79.7136 90.6985C81.4217 89.7218 86.1137 89.7218 86.1137 89.7218C86.1137 89.7218 82.2736 92.6565 80.1373 95.105C79.2185 96.162 78.3756 98.1334 77.7155 100.011C73.6703 106.112 71.4804 113.284 70.3743 118.056Z" fill="white"/>
<path d="M132.939 96.8132C136.146 91.4612 137.306 84.847 135.615 78.8483C133.862 72.5687 128.854 67.1721 122.57 65.4327C115.434 63.4613 107.816 66.1775 101.443 69.9373C95.0693 73.697 89.3204 78.554 82.51 81.4797C80.552 82.3182 78.2685 82.9828 76.3552 82.064C70.1914 79.1026 79.602 73.7729 81.7072 72.4884C86.9695 69.2589 92.5029 66.4937 98.2448 64.224C106.482 60.9682 115.38 58.7293 124.157 59.8844C132.935 61.0396 141.551 66.0972 145.168 74.1876C148.063 80.6992 147.434 88.1876 146.341 95.2299C145.994 97.4867 145.539 99.8683 143.996 101.55C141.699 104.052 137.792 104.163 134.442 103.561C133.202 103.343 131.815 102.919 131.285 101.777C130.642 100.381 131.637 98.8336 132.471 97.5447C132.631 97.3127 132.788 97.0689 132.939 96.8132Z" fill="#CB35DE"/>
<mask id="mask0_133_1168" style="mask-type:luminance" maskUnits="userSpaceOnUse" x="74" y="59" width="74" height="45">
<path d="M132.939 96.8132C136.146 91.4612 137.306 84.847 135.615 78.8483C133.862 72.5687 128.854 67.1721 122.57 65.4327C115.434 63.4613 107.816 66.1775 101.443 69.9373C95.0693 73.697 89.3204 78.554 82.51 81.4797C80.552 82.3182 78.2685 82.9828 76.3552 82.064C70.1914 79.1026 79.602 73.7729 81.7072 72.4884C86.9695 69.2589 92.5029 66.4937 98.2448 64.224C106.482 60.9682 115.38 58.7293 124.157 59.8844C132.935 61.0396 141.551 66.0972 145.168 74.1876C148.063 80.6992 147.434 88.1876 146.341 95.2299C145.994 97.4867 145.539 99.8683 143.996 101.55C141.699 104.052 137.792 104.163 134.442 103.561C133.202 103.343 131.815 102.919 131.285 101.777C130.642 100.381 131.637 98.8336 132.471 97.5447C132.631 97.3127 132.788 97.0689 132.939 96.8132Z" fill="white"/>
</mask>
<g mask="url(#mask0_133_1168)">
<path d="M86.0289 69.9863C84.5749 70.7891 83.1344 71.6187 81.7161 72.4884C79.6154 73.7729 70.2048 79.1026 76.3641 82.064C78.2774 82.9828 80.5609 82.3182 82.5189 81.4798C85.4406 80.1731 88.2457 78.6199 90.9037 76.8369C90.0429 72.8586 88.085 70.914 86.0289 69.9863Z" fill="white"/>
</g>
<path d="M132.939 96.8132C136.146 91.4612 137.306 84.847 135.615 78.8483C133.862 72.5687 128.854 67.1721 122.57 65.4327C115.434 63.4613 107.816 66.1775 101.443 69.9373C95.0693 73.697 89.3204 78.554 82.51 81.4797C80.552 82.3182 78.2685 82.9828 76.3552 82.064C70.1914 79.1026 79.602 73.7729 81.7072 72.4884C86.9695 69.2589 92.5029 66.4937 98.2448 64.224C106.482 60.9682 115.38 58.7293 124.157 59.8844C132.935 61.0396 141.551 66.0972 145.168 74.1876C148.063 80.6992 147.434 88.1876 146.341 95.2299C145.994 97.4867 145.539 99.8683 143.996 101.55C141.699 104.052 137.792 104.163 134.442 103.561C133.202 103.343 131.815 102.919 131.285 101.777C130.642 100.381 131.637 98.8336 132.471 97.5447C132.631 97.3127 132.788 97.0689 132.939 96.8132Z" stroke="#263238" stroke-width="1.5" stroke-miterlimit="10"/>
<path d="M132.939 96.8132C136.146 91.4612 137.306 84.847 135.615 78.8483C133.862 72.5687 128.854 67.1721 122.57 65.4327C115.434 63.4613 107.816 66.1775 101.443 69.9373C95.0693 73.697 89.3204 78.554 82.51 81.4797C80.552 82.3182 78.2685 82.9828 76.3552 82.064C70.1914 79.1026 79.602 73.7729 81.7072 72.4884C86.9695 69.2589 92.5029 66.4937 98.2448 64.224C106.482 60.9682 115.38 58.7293 124.157 59.8844C132.935 61.0396 141.551 66.0972 145.168 74.1876C148.063 80.6992 147.434 88.1876 146.341 95.2299C145.994 97.4867 145.539 99.8683 143.996 101.55C141.699 104.052 137.792 104.163 134.442 103.561C133.202 103.343 131.815 102.919 131.285 101.777C130.642 100.381 131.637 98.8336 132.471 97.5447C132.631 97.3127 132.788 97.0689 132.939 96.8132Z" fill="#CB35DE"/>
<mask id="mask1_133_1168" style="mask-type:luminance" maskUnits="userSpaceOnUse" x="74" y="59" width="74" height="45">
<path d="M132.939 96.8132C136.146 91.4612 137.306 84.847 135.615 78.8483C133.862 72.5687 128.854 67.1721 122.57 65.4327C115.434 63.4613 107.816 66.1775 101.443 69.9373C95.0693 73.697 89.3204 78.554 82.51 81.4797C80.552 82.3182 78.2685 82.9828 76.3552 82.064C70.1914 79.1026 79.602 73.7729 81.7072 72.4884C86.9695 69.2589 92.5029 66.4937 98.2448 64.224C106.482 60.9682 115.38 58.7293 124.157 59.8844C132.935 61.0396 141.551 66.0972 145.168 74.1876C148.063 80.6992 147.434 88.1876 146.341 95.2299C145.994 97.4867 145.539 99.8683 143.996 101.55C141.699 104.052 137.792 104.163 134.442 103.561C133.202 103.343 131.815 102.919 131.285 101.777C130.642 100.381 131.637 98.8336 132.471 97.5447C132.631 97.3127 132.788 97.0689 132.939 96.8132Z" fill="white"/>
</mask>
<g mask="url(#mask1_133_1168)">
<path d="M131.07 65.678C129.706 68.3273 131.07 68.9918 131.07 68.9918C131.07 68.9918 130.937 67.8902 131.78 65.9322C132.199 64.8332 133.034 63.9428 134.103 63.4525C134.103 63.4525 132.435 63.0243 131.07 65.678Z" fill="#263238"/>
<path d="M123.707 62.5695C122.761 64.911 123.881 65.5756 123.881 65.5756C123.82 64.6435 123.962 63.7094 124.296 62.8371C124.862 61.1022 126.004 60.7008 126.004 60.7008C126.004 60.7008 124.657 60.2102 123.707 62.5695Z" fill="#263238"/>
<path d="M115.175 61.6105C114.229 63.952 115.349 64.6165 115.349 64.6165C115.285 63.6848 115.425 62.7503 115.759 61.8781C116.33 60.1432 117.467 59.7418 117.467 59.7418C117.467 59.7418 116.12 59.269 115.175 61.6105Z" fill="#263238"/>
<path d="M140.378 68.8222C140.378 68.8222 139.152 67.3058 136.101 68.6082C133.051 69.9105 133.84 71.4224 133.84 71.4224C133.84 71.4224 134.478 70.4011 136.583 69.3262C137.738 68.6821 139.095 68.5019 140.378 68.8222Z" fill="#263238"/>
<path d="M138.951 74.2992C140.059 73.5768 141.399 73.3011 142.702 73.5276C142.702 73.5276 141.364 72.1004 138.416 73.6213C135.468 75.1421 136.364 76.5872 136.364 76.5872C136.364 76.5872 136.922 75.5212 138.951 74.2992Z" fill="#263238"/>
<path d="M140.49 79.388C136.476 80.3692 137.011 82.4208 137.011 82.4208C137.011 82.4208 138.055 81.279 140.865 80.3826C143.674 79.4861 145.53 80.5655 145.53 80.5655C145.53 80.5655 144.504 78.4202 140.49 79.388Z" fill="#263238"/>
<path d="M140.428 88.647C136.387 89.4587 136.824 91.5326 136.824 91.5326C136.824 91.5326 137.917 90.4354 140.762 89.6549C143.608 88.8744 145.414 90.0296 145.414 90.0296C145.414 90.0296 144.468 87.8308 140.428 88.647Z" fill="#263238"/>
<path d="M86.0289 69.9863C84.5749 70.7891 83.1344 71.6187 81.7161 72.4884C79.6154 73.7729 70.2048 79.1026 76.3641 82.064C78.2774 82.9828 80.5609 82.3182 82.5189 81.4798C85.4406 80.1731 88.2457 78.6199 90.9037 76.8369C90.0429 72.8586 88.085 70.914 86.0289 69.9863Z" fill="white"/>
</g>
<path d="M132.939 96.8132C136.146 91.4612 137.306 84.847 135.615 78.8483C133.862 72.5687 128.854 67.1721 122.57 65.4327C115.434 63.4613 107.816 66.1775 101.443 69.9373C95.0693 73.697 89.3204 78.554 82.51 81.4797C80.552 82.3182 78.2685 82.9828 76.3552 82.064C70.1914 79.1026 79.602 73.7729 81.7072 72.4884C86.9695 69.2589 92.5029 66.4937 98.2448 64.224C106.482 60.9682 115.38 58.7293 124.157 59.8844C132.935 61.0396 141.551 66.0972 145.168 74.1876C148.063 80.6992 147.434 88.1876 146.341 95.2299C145.994 97.4867 145.539 99.8683 143.996 101.55C141.699 104.052 137.792 104.163 134.442 103.561C133.202 103.343 131.815 102.919 131.285 101.777C130.642 100.381 131.637 98.8336 132.471 97.5447C132.631 97.3127 132.788 97.0689 132.939 96.8132Z" stroke="#263238" stroke-width="1.5" stroke-miterlimit="10"/>
<path d="M125.772 151.448C125.772 151.448 144.571 153.112 140.526 154.78C136.48 156.448 133.39 155.73 117.204 157.871C101.019 160.012 77.7021 160.016 66.9936 160.016C56.2852 160.016 53.4308 161.92 59.6168 161.92C65.8028 161.92 78.4157 161.92 102.928 162.87C127.44 163.82 156.448 169.534 171.219 163.584C185.991 157.634 171.697 152.398 171.697 152.398C171.697 152.398 177.41 151.212 172.651 149.307C167.892 147.403 149.566 145.499 140.985 144.308C132.404 143.117 127.663 145.735 133.608 145.735C139.553 145.735 167.638 148.594 164.07 150.971C160.502 153.348 143.13 150.735 137.417 149.544C131.704 148.353 124.331 149.544 125.772 151.448Z" fill="#263238"/>
<path d="M146.141 141.739C146.141 141.739 147.653 149.16 149.985 153.148C152.318 157.135 156.996 156.858 157.683 153.696C158.37 150.534 155.212 146.56 154.387 143.527C153.562 140.495 153.701 135.143 153.701 135.143C153.701 135.143 145.864 134.456 146.141 141.739Z" fill="#CB35DE"/>
<mask id="mask2_133_1168" style="mask-type:luminance" maskUnits="userSpaceOnUse" x="146" y="135" width="12" height="22">
<path d="M146.141 141.739C146.141 141.739 147.653 149.16 149.985 153.148C152.318 157.135 156.996 156.858 157.683 153.696C158.37 150.534 155.212 146.56 154.387 143.527C153.562 140.495 153.701 135.143 153.701 135.143C153.701 135.143 145.864 134.456 146.141 141.739Z" fill="white"/>
</mask>
<g mask="url(#mask2_133_1168)">
<path d="M148.674 150.387C149.044 151.337 149.482 152.26 149.985 153.148C152.322 157.135 156.996 156.858 157.683 153.696C158.196 151.355 156.591 148.558 155.391 146.038C153.998 146.146 152.653 146.6 151.48 147.36C150.307 148.119 149.343 149.16 148.674 150.387Z" fill="white"/>
</g>
<path d="M146.141 141.739C146.141 141.739 147.653 149.16 149.985 153.148C152.318 157.135 156.996 156.858 157.683 153.696C158.37 150.534 155.212 146.56 154.387 143.527C153.562 140.495 153.701 135.143 153.701 135.143C153.701 135.143 145.864 134.456 146.141 141.739Z" stroke="#263238" stroke-width="1.5" stroke-miterlimit="10"/>
<path d="M152.737 150.949C152.737 150.949 154.659 153.424 154.111 155.899" stroke="#263238" stroke-width="1.5" stroke-miterlimit="10" stroke-linecap="round"/>
<path d="M155.074 149.985C155.913 150.463 156.553 151.224 156.88 152.131C157.207 153.039 157.199 154.034 156.858 154.936" stroke="#263238" stroke-width="1.5" stroke-miterlimit="10" stroke-linecap="round"/>
<path d="M141.739 145.588C141.739 145.588 137.756 149.713 133.492 150.94C129.229 152.166 124.969 151.903 125.522 149.976C126.075 148.05 127.993 147.367 130.468 147.367C132.944 147.367 138.05 142.278 138.05 142.278C138.05 142.278 143.527 138.853 141.739 145.588Z" fill="#CB35DE" stroke="#263238" stroke-width="1.5" stroke-miterlimit="10"/>
<path d="M93.6288 125.384C93.6288 125.384 87.7193 128.131 86.6177 131.155C85.902 133.216 85.3517 135.331 84.9719 137.48C84.9719 137.48 77.546 140.914 71.913 142.832C66.2801 144.749 60.5044 145.441 57.195 147.778C53.8857 150.115 53.7564 152.728 55.6831 154.651C57.6098 156.573 61.4543 155.89 62.6942 155.199C63.9341 154.508 66.8152 151.765 70.6642 151.078C74.5132 150.391 86.0601 152.728 92.7947 151.35C99.5293 149.972 105.283 147.782 106.817 147.782C108.351 147.782 114.399 148.607 118.364 145.998C122.329 143.389 119.738 131.28 116.714 125.38C113.69 119.479 97.7543 123.319 93.6288 125.384Z" fill="#CB35DE"/>
<mask id="mask3_133_1168" style="mask-type:luminance" maskUnits="userSpaceOnUse" x="54" y="122" width="67" height="34">
<path d="M93.6288 125.384C93.6288 125.384 87.7193 128.131 86.6177 131.155C85.902 133.216 85.3517 135.331 84.9719 137.48C84.9719 137.48 77.546 140.914 71.913 142.832C66.2801 144.749 60.5044 145.441 57.195 147.778C53.8857 150.115 53.7564 152.728 55.6831 154.651C57.6098 156.573 61.4543 155.89 62.6942 155.199C63.9341 154.508 66.8152 151.765 70.6642 151.078C74.5132 150.391 86.0601 152.728 92.7947 151.35C99.5293 149.972 105.283 147.782 106.817 147.782C108.351 147.782 114.399 148.607 118.364 145.998C122.329 143.389 119.738 131.28 116.714 125.38C113.69 119.479 97.7543 123.319 93.6288 125.384Z" fill="white"/>
</mask>
<g mask="url(#mask3_133_1168)">
<path d="M107.647 136.266C105.26 132.315 103.303 124.893 99.5071 123.439C97.4873 123.888 95.5179 124.54 93.6288 125.384C93.6288 125.384 93.0133 125.669 92.1391 126.16C90.7342 127.77 90.8011 129.518 92.2061 130.62C94.5252 132.404 102.758 141.944 100.444 141.168C100.061 141.029 99.6986 140.842 99.3643 140.61C96.8757 138.983 93.0356 134.781 90.15 133.452C86.805 131.905 93.2363 140.396 93.2363 142.97C93.2363 145.543 90.6629 143.228 88.3303 140.396C85.9977 137.564 85.4982 140.142 86.7871 142.97C88.0761 145.797 86.2698 147.086 80.8687 147.086C75.4677 147.086 69.0319 147.345 69.0319 147.345C68.835 146.147 68.269 145.04 67.4129 144.178C63.3588 145.258 59.6079 146.087 57.1861 147.8C53.8857 150.137 53.7475 152.751 55.6742 154.673C57.6009 156.595 61.4454 155.913 62.6853 155.221C63.9252 154.53 66.8063 151.787 70.6553 151.1C74.5043 150.414 86.0512 152.751 92.7858 151.372C99.5204 149.994 105.274 147.804 106.808 147.804C108.217 147.804 113.561 148.518 117.512 146.507C115.929 145.2 110.126 140.374 107.647 136.266Z" fill="white"/>
</g>
<path d="M93.6288 125.384C93.6288 125.384 87.7193 128.131 86.6177 131.155C85.902 133.216 85.3517 135.331 84.9719 137.48C84.9719 137.48 77.546 140.914 71.913 142.832C66.2801 144.749 60.5044 145.441 57.195 147.778C53.8857 150.115 53.7564 152.728 55.6831 154.651C57.6098 156.573 61.4543 155.89 62.6942 155.199C63.9341 154.508 66.8152 151.765 70.6642 151.078C74.5132 150.391 86.0601 152.728 92.7947 151.35C99.5293 149.972 105.283 147.782 106.817 147.782C108.351 147.782 114.399 148.607 118.364 145.998C122.329 143.389 119.738 131.28 116.714 125.38C113.69 119.479 97.7543 123.319 93.6288 125.384Z" stroke="#263238" stroke-width="1.5" stroke-miterlimit="10"/>
<path d="M57.204 152.461C57.8124 152.461 58.3056 151.967 58.3056 151.359C58.3056 150.751 57.8124 150.257 57.204 150.257C56.5956 150.257 56.1024 150.751 56.1024 151.359C56.1024 151.967 56.5956 152.461 57.204 152.461Z" fill="#263238"/>
<path d="M61.7398 152.871C62.8778 152.871 63.8003 151.949 63.8003 150.811C63.8003 149.673 62.8778 148.75 61.7398 148.75C60.6018 148.75 59.6793 149.673 59.6793 150.811C59.6793 151.949 60.6018 152.871 61.7398 152.871Z" fill="#263238"/>
<path d="M58.9924 154.936C59.6008 154.936 60.094 154.443 60.094 153.834C60.094 153.226 59.6008 152.733 58.9924 152.733C58.384 152.733 57.8908 153.226 57.8908 153.834C57.8908 154.443 58.384 154.936 58.9924 154.936Z" fill="#263238"/>
<path d="M61.7397 154.936C62.3481 154.936 62.8414 154.443 62.8414 153.834C62.8414 153.226 62.3481 152.733 61.7397 152.733C61.1313 152.733 60.6381 153.226 60.6381 153.834C60.6381 154.443 61.1313 154.936 61.7397 154.936Z" fill="#263238"/>
<path d="M102.977 137.613C109.301 144.486 113.975 147.514 120.433 148.317C126.891 149.12 135.281 148.317 141.739 145.57C148.197 142.822 149.713 141.034 149.713 141.034C151.236 140.263 152.705 139.389 154.111 138.42C157.273 136.36 163.031 130.312 164.556 122.476C165.859 115.728 164.788 108.249 161.323 102.281C157.309 95.3413 149.923 91.7867 142.02 91.6484C137.216 91.5682 132.765 93.2942 128.818 95.9479C121.259 101.032 119.452 105.434 119.452 105.434H111.638C111.638 105.434 107.789 103.922 100.778 111.067" fill="#CB35DE"/>
<mask id="mask4_133_1168" style="mask-type:luminance" maskUnits="userSpaceOnUse" x="100" y="91" width="66" height="58">
<path d="M102.977 137.613C109.301 144.486 113.975 147.514 120.433 148.317C126.891 149.12 135.281 148.317 141.739 145.57C148.197 142.822 149.713 141.034 149.713 141.034C151.236 140.263 152.705 139.389 154.111 138.42C157.273 136.36 163.031 130.312 164.556 122.476C165.859 115.728 164.788 108.249 161.323 102.281C157.309 95.3413 149.923 91.7867 142.02 91.6484C137.216 91.5682 132.765 93.2942 128.818 95.9479C121.259 101.032 119.452 105.434 119.452 105.434H111.638C111.638 105.434 107.789 103.922 100.778 111.067" fill="white"/>
</mask>
<g mask="url(#mask4_133_1168)">
<path d="M159.369 124.434C158.856 119.528 156.283 124.951 155.511 126.749C153.99 130.317 154.74 118.275 152.421 115.429C150.101 112.584 152.938 122.378 152.166 125.723C151.395 129.068 151.908 123.404 150.106 120.059C148.304 116.714 150.877 124.434 147.019 128.809C143.162 133.184 136.208 129.068 136.208 129.068C139.437 138.206 130.803 145.222 125.268 148.643C130.736 148.669 136.802 147.693 141.739 145.592C148.201 142.845 149.713 141.056 149.713 141.056C151.236 140.285 152.705 139.412 154.111 138.443C154.977 137.857 155.791 137.199 156.546 136.476C158.696 132.172 159.73 127.859 159.369 124.434Z" fill="white"/>
</g>
<path d="M102.977 137.613C109.301 144.486 113.975 147.514 120.433 148.317C126.891 149.12 135.281 148.317 141.739 145.57C148.197 142.822 149.713 141.034 149.713 141.034C151.236 140.263 152.705 139.389 154.111 138.42C157.273 136.36 163.031 130.312 164.556 122.476C165.859 115.728 164.788 108.249 161.323 102.281C157.309 95.3413 149.923 91.7867 142.02 91.6484C137.216 91.5682 132.765 93.2942 128.818 95.9479C121.259 101.032 119.452 105.434 119.452 105.434H111.638C111.638 105.434 107.789 103.922 100.778 111.067" stroke="#263238" stroke-width="1.5" stroke-miterlimit="10"/>
<path d="M95.8275 128.27C95.8275 128.27 100.502 135.406 108.316 137.19C116.129 138.974 118.074 128.118 117.387 122.472C116.7 116.825 114.225 116.972 113.266 118.212C112.307 119.452 107.767 123.158 103.231 124.122C98.6953 125.085 95.1407 125.794 95.8275 128.27Z" fill="white"/>
<path d="M89.7352 97.7631C88.2369 97.5133 86.7176 97.4117 85.1994 97.4599C83.3841 97.6115 79.7537 99.2751 78.0901 99.5739C76.4265 99.8727 77.1981 100.466 79.3032 102.901C81.4084 105.336 86.408 106.835 86.408 106.835L89.7352 97.7631Z" fill="#CB35DE" stroke="#263238" stroke-width="1.5" stroke-miterlimit="10"/>
<path d="M115.893 115.452C115.893 115.452 113.324 121.954 109.395 124.073C107.06 125.342 104.468 126.066 101.813 126.191C101.813 126.191 99.0923 128.76 94.1015 129.064C89.1108 129.367 86.0735 124.827 86.0735 123.315V119.234C86.0735 119.234 82.898 115.3 83.0496 113.186C83.2013 111.072 83.3529 101.541 88.7986 97.7633C94.2442 93.9856 99.5338 94.4361 103.766 95.3415C107.999 96.2469 112.686 101.389 114.198 104.413C115.71 107.437 115.715 111.219 115.715 111.219" fill="#CB35DE"/>
<mask id="mask5_133_1168" style="mask-type:luminance" maskUnits="userSpaceOnUse" x="83" y="94" width="33" height="36">
<path d="M115.893 115.452C115.893 115.452 113.324 121.954 109.395 124.073C107.06 125.342 104.468 126.066 101.813 126.191C101.813 126.191 99.0923 128.76 94.1015 129.064C89.1108 129.367 86.0735 124.827 86.0735 123.315V119.234C86.0735 119.234 82.898 115.3 83.0496 113.186C83.2013 111.072 83.3529 101.541 88.7986 97.7633C94.2442 93.9856 99.5338 94.4361 103.766 95.3415C107.999 96.2469 112.686 101.389 114.198 104.413C115.71 107.437 115.715 111.219 115.715 111.219" fill="white"/>
</mask>
<g mask="url(#mask5_133_1168)">
<path d="M94.5252 122.115L92.206 118.252C92.206 118.252 91.6931 113.623 89.1197 111.05C86.5463 108.476 88.308 119.082 88.308 119.082C87.539 119.251 86.8015 119.54 86.1226 119.938V123.31C86.1226 124.822 89.1464 129.362 94.1506 129.059C95.9862 128.957 97.785 128.503 99.449 127.721C98.6106 123.769 94.5252 122.115 94.5252 122.115Z" fill="white"/>
<path d="M93.8027 120.42C93.8027 120.42 95.3235 117.379 99.3152 119.658" stroke="#263238" stroke-width="2" stroke-miterlimit="10" stroke-linecap="round"/>
<path d="M85.4402 116.428C85.4402 116.428 86.961 115.474 87.3401 118.137" stroke="#263238" stroke-width="2" stroke-miterlimit="10" stroke-linecap="round"/>
<path d="M89.6192 126.504C89.6192 126.504 90.5692 128.212 92.0945 128.783" stroke="#263238" stroke-miterlimit="10" stroke-linecap="round"/>
<path d="M95.551 110.537C95.551 110.537 96.5813 114.136 101.728 114.908C106.875 115.679 108.614 113.628 106.973 111.826C105.332 110.024 96.5813 110.537 95.551 110.537Z" fill="#263238"/>
<path d="M106.973 111.826C106.973 111.826 102.741 113.034 99.4134 113.034C96.0862 113.034 94.5743 110.162 93.8161 109.27C93.0579 108.378 96.84 105.038 101.398 105.943C105.956 106.848 106.973 111.826 106.973 111.826Z" fill="#CB35DE" stroke="#263238" stroke-width="1.5" stroke-miterlimit="10"/>
<path d="M90.984 126.428C91.3586 126.102 91.43 125.562 90.7119 125.326C89.7619 125.014 88.2232 124.63 88.5443 125.585C88.6787 125.94 88.9261 126.241 89.2485 126.442C89.5709 126.642 89.9503 126.732 90.3283 126.695C90.5702 126.68 90.8003 126.586 90.984 126.428Z" fill="#263238"/>
<path d="M111.5 120.054C111.5 120.054 110.47 120.826 107.379 120.826C104.288 120.826 101.978 120.572 101.978 120.572C101.978 120.572 105.836 121.856 107.896 122.115C109.957 122.374 111.5 120.054 111.5 120.054Z" fill="#263238"/>
<path d="M108.418 123.658C108.418 123.658 106.634 125.201 104.56 124.43C102.486 123.658 99.9263 122.374 99.9263 122.374C99.9263 122.374 106.362 124.175 108.418 123.658Z" fill="#263238"/>
<path d="M96.3359 100.497C96.3359 100.497 91.9651 102.281 91.4299 107.187C90.8947 112.093 91.4299 114.903 91.4299 114.903C91.4299 114.903 92.4647 105.131 96.3359 100.497Z" fill="#263238"/>
<path d="M89.3784 101.273C89.3784 101.273 86.7827 102.362 86.408 106.835C86.0334 111.308 86.0334 114.417 86.0334 114.417C86.0334 114.417 87.3179 104.873 89.3784 101.273Z" fill="#263238"/>
</g>
<path d="M115.893 115.452C115.893 115.452 113.324 121.954 109.395 124.073C107.06 125.342 104.468 126.066 101.813 126.191C101.813 126.191 99.0923 128.76 94.1015 129.064C89.1108 129.367 86.0735 124.827 86.0735 123.315V119.234C86.0735 119.234 82.898 115.3 83.0496 113.186C83.2013 111.072 83.3529 101.541 88.7986 97.7633C94.2442 93.9856 99.5338 94.4361 103.766 95.3415C107.999 96.2469 112.686 101.389 114.198 104.413C115.71 107.437 115.715 111.219 115.715 111.219" stroke="#263238" stroke-width="1.5" stroke-miterlimit="10"/>
<path d="M86.1047 123.315C86.1047 123.315 79.3345 121.397 75.3472 121.259" stroke="#263238" stroke-width="0.5" stroke-miterlimit="10" stroke-linecap="round"/>
<path d="M86.2073 124.434C86.2073 124.434 76.8413 123.609 72.4616 124.434" stroke="#263238" stroke-width="0.5" stroke-miterlimit="10" stroke-linecap="round"/>
<path d="M86.8942 125.384C86.8942 125.384 75.7442 125.933 72.4616 127.03" stroke="#263238" stroke-width="0.5" stroke-miterlimit="10" stroke-linecap="round"/>
<path d="M95.8276 127.717C95.8276 127.717 96.6527 134.041 97.0675 138.421" stroke="#263238" stroke-width="0.5" stroke-miterlimit="10" stroke-linecap="round"/>
<path d="M96.5144 126.481C96.5144 126.481 101.055 133.492 101.055 136.927" stroke="#263238" stroke-width="0.5" stroke-miterlimit="10" stroke-linecap="round"/>
<path d="M98.1646 126.071C98.1646 126.071 103.517 130.607 104.627 134.728" stroke="#263238" stroke-width="0.5" stroke-miterlimit="10" stroke-linecap="round"/>
<path d="M149.713 141.052C149.713 141.052 157.273 134.866 156.171 121.12" stroke="#263238" stroke-width="1.5" stroke-miterlimit="10" stroke-linecap="round"/>
<path d="M125.384 124.969C125.384 124.969 130.058 125.107 135.967 128.27C141.877 131.432 147.786 132.944 147.786 136.378C147.786 139.812 135.553 146.961 129.643 151.359C123.734 155.757 119.06 160.02 114.925 161.122C110.791 162.224 105.443 162.357 104.756 159.61C104.07 156.863 107.642 156.171 109.703 155.899C111.763 155.627 115.202 154.798 115.202 154.798L122.204 148.072C122.204 148.072 114.229 147.523 110.519 141.061" fill="#CB35DE"/>
<mask id="mask6_133_1168" style="mask-type:luminance" maskUnits="userSpaceOnUse" x="104" y="124" width="44" height="38">
<path d="M125.384 124.969C125.384 124.969 130.058 125.107 135.967 128.27C141.877 131.432 147.786 132.944 147.786 136.378C147.786 139.812 135.553 146.961 129.643 151.359C123.734 155.757 119.06 160.02 114.925 161.122C110.791 162.224 105.443 162.357 104.756 159.61C104.07 156.863 107.642 156.171 109.703 155.899C111.763 155.627 115.202 154.798 115.202 154.798L122.204 148.072C122.204 148.072 114.229 147.523 110.519 141.061" fill="white"/>
</mask>
<g mask="url(#mask6_133_1168)">
<path d="M114.595 145.017C114.595 145.017 119.225 144.504 121.798 140.383C124.372 136.262 125.143 131.12 125.143 131.12C125.143 131.12 125.143 137.038 123.359 140.9C121.575 144.763 114.595 145.017 114.595 145.017Z" fill="#263238"/>
<path d="M129.005 128.805C129.005 128.805 131.579 133.952 129.264 138.068C127.865 140.542 125.819 142.588 123.346 143.987C123.346 143.987 130.036 137.814 129.005 128.805Z" fill="#263238"/>
<path d="M121.285 151.707L125.143 154.281C125.143 154.281 124.88 150.936 121.285 151.707Z" fill="#263238"/>
<path d="M124.88 147.849L128.738 150.423C128.738 150.423 128.492 147.073 124.88 147.849Z" fill="#263238"/>
<path d="M131.838 143.474L135.695 146.047C135.695 146.047 135.437 142.72 131.838 143.474Z" fill="#263238"/>
<path d="M135.954 139.598L139.812 142.171C139.812 142.171 139.558 138.84 135.954 139.598Z" fill="#263238"/>
<path d="M117.191 157.884C116.928 156.649 115.34 155.717 113.908 155.11C112.722 155.373 110.965 155.743 109.711 155.913C107.651 156.185 104.078 156.872 104.765 159.624C105.452 162.375 110.813 162.233 114.934 161.136C115.974 160.836 116.976 160.416 117.918 159.882C117.587 159.252 117.342 158.58 117.191 157.884Z" fill="white"/>
<path d="M133.635 139.598C135.419 137.025 133.122 140.628 127.716 143.973C122.311 147.318 114.595 145.004 114.595 145.004L114.35 145.164C116.692 146.759 119.388 147.757 122.204 148.072L119.082 151.092C124.826 148.964 131.949 142.024 133.635 139.598Z" fill="white"/>
</g>
<path d="M125.384 124.969C125.384 124.969 130.058 125.107 135.967 128.27C141.877 131.432 147.786 132.944 147.786 136.378C147.786 139.812 135.553 146.961 129.643 151.359C123.734 155.757 119.06 160.02 114.925 161.122C110.791 162.224 105.443 162.357 104.756 159.61C104.07 156.863 107.642 156.171 109.703 155.899C111.763 155.627 115.202 154.798 115.202 154.798L122.204 148.072C122.204 148.072 114.229 147.523 110.519 141.061" stroke="#263238" stroke-width="1.5" stroke-miterlimit="10"/>
<path d="M122.204 148.072C122.204 148.072 133.474 145.873 134.848 136.387" stroke="#263238" stroke-width="1.5" stroke-miterlimit="10" stroke-linecap="round"/>
<path d="M104.765 159.61C104.765 159.61 105.863 157.545 107.513 157.273" stroke="#263238" stroke-width="1.5" stroke-miterlimit="10" stroke-linecap="round"/>
<path d="M106.549 161.122C106.549 161.122 107.375 158.098 109.85 158.098" stroke="#263238" stroke-width="1.5" stroke-miterlimit="10" stroke-linecap="round"/>
<path d="M123.096 106.416C123.096 106.416 130.816 107.192 136.476 112.851C142.136 118.511 143.166 129.064 143.166 126.231C143.166 123.399 141.623 115.684 138.26 111.563C134.897 107.441 125.402 105.131 123.096 106.416Z" fill="#263238"/>
<path d="M117.071 109.395C117.071 109.395 123.283 110.015 127.837 114.568C132.391 119.122 133.22 127.614 133.22 125.326C133.22 123.038 131.976 116.852 129.287 113.525C126.597 110.198 118.935 108.378 117.071 109.395Z" fill="#263238"/>
<path d="M127.975 102.045C127.975 102.045 135.695 102.816 141.355 108.476C147.015 114.136 148.045 124.688 148.045 121.856C148.045 119.024 146.502 111.308 143.139 107.192C139.776 103.075 130.29 100.756 127.975 102.045Z" fill="#263238"/>
<path d="M134.411 94.5786C134.411 94.5786 142.127 95.3502 147.791 101.014C153.455 106.679 154.481 117.227 154.481 114.394C154.481 111.562 152.938 103.842 149.575 99.7255C146.212 95.6089 136.726 93.2942 134.411 94.5786Z" fill="#263238"/>
<path d="M60.1743 167.219C63.1302 167.219 65.5263 166.1 65.5263 164.721C65.5263 163.342 63.1302 162.223 60.1743 162.223C57.2185 162.223 54.8223 163.342 54.8223 164.721C54.8223 166.1 57.2185 167.219 60.1743 167.219Z" fill="#263238"/>
<path d="M58.3056 166.34C62.328 166.34 65.5888 163.079 65.5888 159.057C65.5888 155.034 62.328 151.774 58.3056 151.774C54.2832 151.774 51.0224 155.034 51.0224 159.057C51.0224 163.079 54.2832 166.34 58.3056 166.34Z" fill="#CB35DE" stroke="#263238" stroke-width="1.5" stroke-miterlimit="10"/>
<path d="M58.0157 155.752C58.0008 156.136 57.8735 156.507 57.6495 156.818C57.4255 157.13 57.1148 157.369 56.756 157.506C56.3971 157.643 56.0061 157.671 55.6314 157.587C55.2567 157.503 54.915 157.311 54.6487 157.034C54.3824 156.758 54.2033 156.409 54.1337 156.031C54.0641 155.654 54.107 155.264 54.2572 154.91C54.4074 154.557 54.6581 154.256 54.9782 154.044C55.2984 153.832 55.6738 153.719 56.0577 153.718C56.3199 153.723 56.5786 153.779 56.819 153.884C57.0594 153.989 57.2768 154.14 57.4587 154.329C57.6406 154.518 57.7834 154.741 57.879 154.985C57.9745 155.229 58.021 155.49 58.0157 155.752Z" fill="white"/>
</svg>
