<svg width="168" height="168" viewBox="0 0 168 168" fill="none" xmlns="http://www.w3.org/2000/svg">
<path d="M5.31888 56.5925V105.037H163.39V66.061L157.745 62.8018V50.2992L152.1 47.04L142.222 52.752V41.0659L135.166 36.9902L126.638 41.9227V56.0347L119.64 52.0027V45.0946L112.584 41.0189L95.6458 50.7998V53.2829L89.4902 56.8142L84.4066 53.8104L78.6946 57.1166V44.1101L70.2274 39.2213L64.5826 42.4805V54.6874L58.9378 51.4282L48.3202 57.5568V50.2454L42 46.583L34.944 50.6587V56.4917L32.135 58.128V52.5168L25.079 48.4445V40.2931L19.4342 37.0339L13.776 40.2931V56.5925L9.5424 54.1464L5.31888 56.5925Z" fill="#F0F0F0"/>
<path d="M51.9826 42.0001C52.1573 43.3441 50.5075 44.4798 49.0762 44.2211C49.1635 45.0342 48.0178 45.5046 47.5574 45.088C48.0178 45.6894 48.767 47.5878 47.5574 48.6227C46.3478 49.6576 44.7821 49.0662 44.7821 49.0662C44.7821 49.0662 44.2142 50.4808 42.0605 50.1011C39.9067 49.7214 39.4632 47.5273 39.7085 46.7411C38.2939 47.5576 35.4245 46.9326 34.1376 45.0309C32.8507 43.1291 32.9549 40.7704 34.0502 39.6952C33.301 38.9896 33.5429 37.864 33.9864 37.3432C34.1193 37.1884 34.2851 37.0653 34.4717 36.9827C34.6583 36.9002 34.861 36.8603 35.065 36.8661C35.065 36.8661 34.4568 36.1638 35.1691 35.6901C34.1611 35.0987 33.6941 33.0021 35.317 31.4061C36.9398 29.8101 39.3758 30.4552 39.3758 30.4552C39.2421 29.9515 39.2244 29.424 39.3239 28.9125C39.4234 28.4009 39.6376 27.9186 39.9504 27.5017C40.2499 27.1453 40.6277 26.8628 41.0543 26.6763C41.4809 26.4898 41.9448 26.4043 42.4099 26.4265C42.4099 26.4265 42.3427 25.3043 43.4414 25.2472C42.803 24.0913 43.4078 22.6331 44.2445 21.9913C45.8002 20.8019 49.765 20.4861 49.7414 23.4496C51.3509 22.2131 53.7734 23.8864 53.3837 25.5395C54.7277 24.3837 56.8579 25.9461 56.3573 27.5555C58.2826 27.0078 60.2885 29.2926 59.2166 31.4161C59.9626 30.9861 61.6594 31.2952 61.6123 32.7232C61.8497 32.6537 62.0985 32.6321 62.3443 32.6596C62.5901 32.6872 62.828 32.7634 63.0441 32.8838C63.2602 33.0042 63.4501 33.1664 63.6029 33.3609C63.7557 33.5554 63.8683 33.7783 63.9341 34.0168C64.0633 34.4463 64.0433 34.9069 63.8774 35.3236C63.7114 35.7403 63.4093 36.0886 63.0202 36.3117C63.7426 36.2075 64.1861 37.4137 63.6922 37.7699C65.1067 37.7699 66.0643 40.7301 64.3406 41.7078C65.3318 42.4033 65.8291 46.6336 62.7917 48.3438C59.7542 50.0541 55.3829 49.0158 55.1611 46.2472C53.8742 45.928 53.3299 44.5437 54.1968 43.7843C53.3702 44.1069 52.08 43.0518 51.9826 42.0001Z" fill="#CB35DE"/>
<path d="M62.8118 48.3305C65.8358 46.6202 65.352 42.39 64.3608 41.6945C66.0845 40.7167 65.1269 37.7566 63.7123 37.7566C64.1961 37.4004 63.7526 36.1942 63.0403 36.2983C63.4294 36.0752 63.7316 35.727 63.8975 35.3103C64.0635 34.8936 64.0835 34.433 63.9542 34.0034C63.8894 33.7637 63.7768 33.5396 63.6232 33.3444C63.4696 33.1493 63.2782 32.9872 63.0605 32.8678C63.6787 33.8758 63.4267 35.5961 61.7669 35.9522C61.3718 36.048 60.9578 36.0318 60.5715 35.9053C60.1851 35.7789 59.8416 35.5473 59.5795 35.2366C59.5795 35.2366 59.2435 35.8414 57.6777 35.6465C57.3424 35.6086 57.0197 35.497 56.7326 35.3196C56.4456 35.1421 56.2015 34.9033 56.0177 34.6203C55.8339 34.3373 55.7152 34.0171 55.6699 33.6827C55.6246 33.3483 55.654 33.008 55.7558 32.6863C56.4883 31.4532 55.3459 29.9446 53.8709 30.173C53.9414 33.281 51.2534 34.205 48.7166 33.0055C49.9531 36.1169 47.255 37.6255 45.8841 36.2513C45.4272 37.3937 43.9185 37.2593 43.2331 36.5873C42.5611 37.3164 40.3973 36.5873 40.3973 34.8502C39.1171 36.4495 36.8323 35.9926 36.6509 34.2991C35.6765 35.5793 34.4568 34.8602 34.3291 34.3596C34.3735 34.6304 34.4726 34.8892 34.6206 35.1203C34.7685 35.3514 34.962 35.5499 35.1893 35.7036C34.4769 36.1774 35.0851 36.8796 35.0851 36.8796C34.8812 36.8739 34.6785 36.9137 34.4919 36.9963C34.3053 37.0788 34.1395 37.2019 34.0065 37.3567C33.563 37.8842 33.3345 39.0098 34.0704 39.7087C32.975 40.7839 32.8675 43.146 34.1577 45.0444C35.448 46.9428 38.3141 47.5711 39.7286 46.7546C39.4733 47.5375 39.9168 49.7316 42.0806 50.1146C44.2445 50.4977 44.8022 49.0798 44.8022 49.0798C44.8022 49.0798 46.3646 49.6711 47.5776 48.6362C48.7906 47.6014 48.0379 45.703 47.5776 45.1015C48.0379 45.5182 49.1837 45.0478 49.0963 44.2346C50.5277 44.4934 52.1774 43.3644 52.0027 42.0137C52.0833 43.0654 53.3904 44.1204 54.2371 43.7844C53.3702 44.5438 53.9011 45.9281 55.2014 46.2473C55.403 49.0058 59.771 50.0407 62.8118 48.3305Z" fill="#CB35DE"/>
<path opacity="0.2" d="M62.8118 48.3305C65.8358 46.6202 65.352 42.39 64.3608 41.6945C66.0845 40.7167 65.1269 37.7566 63.7123 37.7566C64.1961 37.4004 63.7526 36.1942 63.0403 36.2983C63.4294 36.0752 63.7316 35.727 63.8975 35.3103C64.0635 34.8936 64.0835 34.433 63.9542 34.0034C63.8894 33.7637 63.7768 33.5396 63.6232 33.3444C63.4696 33.1493 63.2782 32.9872 63.0605 32.8678C63.6787 33.8758 63.4267 35.5961 61.7669 35.9522C61.3718 36.048 60.9578 36.0318 60.5715 35.9053C60.1851 35.7789 59.8416 35.5473 59.5795 35.2366C59.5795 35.2366 59.2435 35.8414 57.6777 35.6465C57.3424 35.6086 57.0197 35.497 56.7326 35.3196C56.4456 35.1421 56.2015 34.9033 56.0177 34.6203C55.8339 34.3373 55.7152 34.0171 55.6699 33.6827C55.6246 33.3483 55.654 33.008 55.7558 32.6863C56.4883 31.4532 55.3459 29.9446 53.8709 30.173C53.9414 33.281 51.2534 34.205 48.7166 33.0055C49.9531 36.1169 47.255 37.6255 45.8841 36.2513C45.4272 37.3937 43.9185 37.2593 43.2331 36.5873C42.5611 37.3164 40.3973 36.5873 40.3973 34.8502C39.1171 36.4495 36.8323 35.9926 36.6509 34.2991C35.6765 35.5793 34.4568 34.8602 34.3291 34.3596C34.3735 34.6304 34.4726 34.8892 34.6206 35.1203C34.7685 35.3514 34.962 35.5499 35.1893 35.7036C34.4769 36.1774 35.0851 36.8796 35.0851 36.8796C34.8812 36.8739 34.6785 36.9137 34.4919 36.9963C34.3053 37.0788 34.1395 37.2019 34.0065 37.3567C33.563 37.8842 33.3345 39.0098 34.0704 39.7087C32.975 40.7839 32.8675 43.146 34.1577 45.0444C35.448 46.9428 38.3141 47.5711 39.7286 46.7546C39.4733 47.5375 39.9168 49.7316 42.0806 50.1146C44.2445 50.4977 44.8022 49.0798 44.8022 49.0798C44.8022 49.0798 46.3646 49.6711 47.5776 48.6362C48.7906 47.6014 48.0379 45.703 47.5776 45.1015C48.0379 45.5182 49.1837 45.0478 49.0963 44.2346C50.5277 44.4934 52.1774 43.3644 52.0027 42.0137C52.0833 43.0654 53.3904 44.1204 54.2371 43.7844C53.3702 44.5438 53.9011 45.9281 55.2014 46.2473C55.403 49.0058 59.771 50.0407 62.8118 48.3305Z" fill="black"/>
<path d="M45.9077 39.5541C45.9077 39.5541 43.1794 40.3639 42.42 38.4084C41.029 39.2114 38.4283 39.0132 37.5514 37.2626C36.0696 37.2626 35.1792 35.6868 35.1792 35.6868C34.4669 36.1605 35.075 36.8628 35.075 36.8628C34.8711 36.857 34.6684 36.8969 34.4818 36.9794C34.2952 37.062 34.1294 37.1851 33.9965 37.3399C33.553 37.8674 33.3245 38.993 34.0603 39.6919C33.9437 39.8101 33.8391 39.9396 33.7478 40.0783C33.2942 41.2677 34.86 42.1716 35.831 41.6037C35.4614 42.8167 36.839 46.4556 40.6829 44.9368C42.9744 46.3884 45.2995 44.6344 44.9971 41.4324C46.1395 41.4391 46.6838 40.1925 45.9077 39.5541Z" fill="#CB35DE"/>
<path d="M60.4296 42.7898C60.7717 42.4031 61.0246 41.9459 61.1703 41.4506C61.3161 40.9553 61.3511 40.434 61.273 39.9237C61.273 39.9237 60.1171 41.6037 57.7013 40.5722C55.2854 39.5406 56.5891 37.1618 56.5891 37.1618C56.5891 37.1618 54.7344 37.313 55.0738 35.6867C54.4723 35.9858 53.5551 35.6464 53.5551 34.467C53.2896 36.5066 51.5693 37.491 49.4122 37.0274C50.8603 37.565 50.7562 38.6872 49.7482 39.4902C48.6058 40.636 48.7402 43.4987 51.4853 43.3979C51.6668 43.2165 51.8056 42.9969 51.8917 42.7552C51.9777 42.5134 52.0087 42.2555 51.9826 42.0002C52.0632 43.0518 53.3703 44.1069 54.217 43.7709C54.217 43.7709 55.0066 44.4731 55.9474 43.5626C56.6395 44.2547 59.2536 44.1909 60.4296 42.7898Z" fill="#CB35DE"/>
<path opacity="0.1" d="M49.1837 33.0893C51.8011 31.6076 50.3463 27.1152 48.2026 27.1152C48.9351 26.581 48.2631 24.7632 47.1677 24.9077C48.3168 24.1416 48.972 22.9656 48.5554 21.4301C48.2698 21.3 47.9662 21.2139 47.6549 21.1748C46.7682 21.0744 45.8705 21.2028 45.0475 21.5477C44.5034 21.7565 44.035 22.1249 43.704 22.6046C43.373 23.0843 43.1948 23.6529 43.1928 24.2357C43.1963 24.5881 43.2863 24.9343 43.4549 25.2437C42.3562 25.3008 42.4234 26.4231 42.4234 26.4231C41.9583 26.4009 41.4944 26.4863 41.0678 26.6728C40.6412 26.8593 40.2634 27.1418 39.9639 27.4983C39.6511 27.9151 39.4369 28.3975 39.3374 28.909C39.2378 29.4206 39.2556 29.948 39.3893 30.4517C39.3893 30.4517 36.9566 29.82 35.3304 31.4026C33.7042 32.9852 34.1712 35.0986 35.1826 35.6866C34.4702 36.1604 35.0784 36.8626 35.0784 36.8626C34.8745 36.8569 34.6718 36.8967 34.4852 36.9793C34.2986 37.0618 34.1328 37.1849 33.9998 37.3397C33.8289 37.5574 33.7066 37.8092 33.6411 38.0781C33.5757 38.347 33.5685 38.6269 33.6202 38.8988C34.0285 39.4446 34.6163 39.8289 35.28 39.984C35.616 44.1874 42.2419 45.7565 46.8485 43.166C51.455 40.5754 50.689 34.1477 49.1837 33.0893Z" fill="black"/>
<path d="M57.3418 48.0011C57.3418 48.0011 59.4989 44.8461 59.3813 44.6008C59.2637 44.3555 57.3418 47.4904 56.149 48.3405C54.9562 49.1905 52.5806 50.6353 51.9859 50.6353C51.3912 50.6353 51.3475 49.9129 51.5592 48.5118C51.7709 47.1107 51.8179 46.7243 52.7957 45.4509C53.7734 44.1774 56.5656 40.7233 56.4043 40.5621C56.243 40.4008 52.7083 44.9301 51.8146 45.4912C50.9208 46.0523 50.195 42.3462 49.9027 42.3462C49.6104 42.3462 50.7461 44.9905 50.8166 46.2237C50.8872 47.4568 50.7528 48.9352 50.1984 49.3182C49.644 49.7013 48.1387 48.5118 47.1744 47.4467C46.2101 46.3816 46.1664 41.7952 45.7934 41.7952C45.4205 41.7952 46.0387 46.0086 46.0387 46.4152C46.0387 47.3022 42.3024 44.8729 41.627 44.9838C40.9517 45.0947 45.0677 46.5597 46.6838 48.1288C48.095 49.4963 48.3336 49.9264 48.8174 50.9377C49.3248 52.0129 49.4894 53.4006 49.4894 57.352C49.4894 61.3033 48.384 67.6403 48.384 70.0897C48.4024 70.2826 48.4714 70.4671 48.5841 70.6247C48.6968 70.7822 48.8492 70.9072 49.0258 70.9869C49.5081 71.2305 50.041 71.3574 50.5814 71.3574C51.1219 71.3574 51.6547 71.2305 52.1371 70.9869C52.3145 70.9079 52.4677 70.7833 52.5811 70.6256C52.6944 70.468 52.7639 70.283 52.7822 70.0897C52.7822 67.6403 51.7171 61.3067 51.7171 57.352C51.7171 53.3973 51.875 51.9222 53.0611 51.0889C54.2472 50.2557 56.2363 48.7773 57.1234 48.5118C58.0104 48.2464 60.5674 48.6798 60.5674 48.5118C60.5674 48.3438 57.3418 48.0011 57.3418 48.0011Z" fill="#CB35DE"/>
<path opacity="0.4" d="M57.3418 48.0011C57.3418 48.0011 59.4989 44.8461 59.3813 44.6008C59.2637 44.3555 57.3418 47.4904 56.149 48.3405C54.9562 49.1905 52.5806 50.6353 51.9859 50.6353C51.3912 50.6353 51.3475 49.9129 51.5592 48.5118C51.7709 47.1107 51.8179 46.7243 52.7957 45.4509C53.7734 44.1774 56.5656 40.7233 56.4043 40.5621C56.243 40.4008 52.7083 44.9301 51.8146 45.4912C50.9208 46.0523 50.195 42.3462 49.9027 42.3462C49.6104 42.3462 50.7461 44.9905 50.8166 46.2237C50.8872 47.4568 50.7528 48.9352 50.1984 49.3182C49.644 49.7013 48.1387 48.5118 47.1744 47.4467C46.2101 46.3816 46.1664 41.7952 45.7934 41.7952C45.4205 41.7952 46.0387 46.0086 46.0387 46.4152C46.0387 47.3022 42.3024 44.8729 41.627 44.9838C40.9517 45.0947 45.0677 46.5597 46.6838 48.1288C48.095 49.4963 48.3336 49.9264 48.8174 50.9377C49.3248 52.0129 49.4894 53.4006 49.4894 57.352C49.4894 61.3033 48.384 67.6403 48.384 70.0897C48.4024 70.2826 48.4714 70.4671 48.5841 70.6247C48.6968 70.7822 48.8492 70.9072 49.0258 70.9869C49.5081 71.2305 50.041 71.3574 50.5814 71.3574C51.1219 71.3574 51.6547 71.2305 52.1371 70.9869C52.3145 70.9079 52.4677 70.7833 52.5811 70.6256C52.6944 70.468 52.7639 70.283 52.7822 70.0897C52.7822 67.6403 51.7171 61.3067 51.7171 57.352C51.7171 53.3973 51.875 51.9222 53.0611 51.0889C54.2472 50.2557 56.2363 48.7773 57.1234 48.5118C58.0104 48.2464 60.5674 48.6798 60.5674 48.5118C60.5674 48.3438 57.3418 48.0011 57.3418 48.0011Z" fill="black"/>
<path d="M30.9859 40.357C31.2245 42.2151 28.9699 43.764 26.9976 43.4079C27.1152 44.5268 25.5427 45.1685 24.911 44.5973C25.5427 45.4239 26.591 48.0312 24.911 49.4492C23.231 50.8671 21.1042 50.064 21.1042 50.064C21.1042 50.064 20.3213 52.0061 17.3678 51.4853C14.4144 50.9645 13.8029 47.9506 14.1523 46.8788C12.2136 47.9976 8.27232 47.1375 6.50496 44.5268C4.7376 41.916 4.88208 38.677 6.38736 37.1986C5.3592 36.2276 5.68848 34.6887 6.29664 33.9629C6.47839 33.7481 6.70561 33.5764 6.96188 33.4601C7.21815 33.3439 7.49705 33.2861 7.7784 33.2909C7.7784 33.2909 6.94512 32.33 7.92288 31.6781C6.53184 30.8684 5.90688 27.9821 8.12784 25.7981C10.3488 23.6141 13.6954 24.4944 13.6954 24.4944C13.5119 23.8027 13.4876 23.0784 13.6244 22.376C13.7612 21.6736 14.0554 21.0113 14.485 20.4389C15.755 18.7992 17.845 18.9639 17.845 18.9639C17.845 18.9639 17.7542 17.425 19.2595 17.3444C18.3859 15.7584 19.2158 13.7559 20.365 12.8756C22.4986 11.246 27.9384 10.8092 27.9082 14.8916C30.119 13.2116 33.4387 15.4896 32.9045 17.7576C34.729 16.1717 37.6757 18.3188 36.9902 20.5095C39.6312 19.7602 42.3864 22.8984 40.9114 25.8149C41.9395 25.2202 44.2714 25.6469 44.2042 27.6092C44.5296 27.514 44.8706 27.4844 45.2076 27.5221C45.5445 27.5598 45.8706 27.664 46.1669 27.8287C46.4632 27.9935 46.7239 28.2154 46.9338 28.4817C47.1436 28.748 47.2985 29.0533 47.3894 29.3799C47.7658 30.7709 47.1744 31.836 46.1328 32.5316C47.1408 32.3871 47.7355 34.0469 47.0702 34.5476C49.0123 34.5476 50.3294 38.6132 47.9573 39.9572C49.3214 40.9114 50.0035 46.7175 45.8338 49.0661C41.664 51.4148 35.6664 49.9901 35.3606 46.1832C33.5933 45.7498 32.8474 43.8312 34.0368 42.8031C32.8944 43.25 31.0968 41.8018 30.9859 40.357Z" fill="#CB35DE"/>
<path opacity="0.2" d="M30.9859 40.357C31.2245 42.2151 28.9699 43.764 26.9976 43.4079C27.1152 44.5268 25.5427 45.1685 24.911 44.5973C25.5427 45.4239 26.591 48.0312 24.911 49.4492C23.231 50.8671 21.1042 50.064 21.1042 50.064C21.1042 50.064 20.3213 52.0061 17.3678 51.4853C14.4144 50.9645 13.8029 47.9506 14.1523 46.8788C12.2136 47.9976 8.27232 47.1375 6.50496 44.5268C4.7376 41.916 4.88208 38.677 6.38736 37.1986C5.3592 36.2276 5.68848 34.6887 6.29664 33.9629C6.47839 33.7481 6.70561 33.5764 6.96188 33.4601C7.21815 33.3439 7.49705 33.2861 7.7784 33.2909C7.7784 33.2909 6.94512 32.33 7.92288 31.6781C6.53184 30.8684 5.90688 27.9821 8.12784 25.7981C10.3488 23.6141 13.6954 24.4944 13.6954 24.4944C13.5119 23.8027 13.4876 23.0784 13.6244 22.376C13.7612 21.6736 14.0554 21.0113 14.485 20.4389C15.755 18.7992 17.845 18.9639 17.845 18.9639C17.845 18.9639 17.7542 17.425 19.2595 17.3444C18.3859 15.7584 19.2158 13.7559 20.365 12.8756C22.4986 11.246 27.9384 10.8092 27.9082 14.8916C30.119 13.2116 33.4387 15.4896 32.9045 17.7576C34.729 16.1717 37.6757 18.3188 36.9902 20.5095C39.6312 19.7602 42.3864 22.8984 40.9114 25.8149C41.9395 25.2202 44.2714 25.6469 44.2042 27.6092C44.5296 27.514 44.8706 27.4844 45.2076 27.5221C45.5445 27.5598 45.8706 27.664 46.1669 27.8287C46.4632 27.9935 46.7239 28.2154 46.9338 28.4817C47.1436 28.748 47.2985 29.0533 47.3894 29.3799C47.7658 30.7709 47.1744 31.836 46.1328 32.5316C47.1408 32.3871 47.7355 34.0469 47.0702 34.5476C49.0123 34.5476 50.3294 38.6132 47.9573 39.9572C49.3214 40.9114 50.0035 46.7175 45.8338 49.0661C41.664 51.4148 35.6664 49.9901 35.3606 46.1832C33.5933 45.7498 32.8474 43.8312 34.0368 42.8031C32.8944 43.25 31.0968 41.8018 30.9859 40.357Z" fill="white"/>
<path d="M45.8506 49.056C50.0203 46.704 49.3382 40.9013 47.9741 39.9471C50.3462 38.6031 49.0291 34.5375 47.087 34.5375C47.759 34.0536 47.1442 32.3938 46.1496 32.5215C47.1912 31.826 47.7826 30.7608 47.4062 29.3698C47.3162 29.0412 47.161 28.7341 46.9497 28.4668C46.7384 28.1995 46.4754 27.9776 46.1765 27.8141C47.0266 29.1783 46.6805 31.5572 44.4058 32.0444C43.8634 32.1772 43.2947 32.1558 42.7639 31.9824C42.233 31.809 41.7613 31.4906 41.4019 31.0632C41.4019 31.0632 40.9214 31.8932 38.7912 31.6277C38.3313 31.5753 37.8886 31.4218 37.495 31.1782C37.1013 30.9346 36.7665 30.6069 36.5144 30.2186C36.2623 29.8304 36.0992 29.3912 36.0368 28.9325C35.9744 28.4738 36.0143 28.0069 36.1536 27.5655C37.1616 25.8855 35.5891 23.7989 33.563 24.1148C33.6605 28.382 29.9712 29.6688 26.507 28.0056C28.187 32.2695 24.491 34.3426 22.6195 32.4576C21.9912 34.0268 19.9315 33.8386 18.9806 32.8978C18.0365 33.9058 15.0898 32.8978 15.0898 30.5156C13.3325 32.7096 10.1942 32.0813 9.9456 29.7596C8.6016 31.5135 6.9216 30.529 6.76032 29.8402C6.82027 30.2115 6.95588 30.5666 7.15876 30.8833C7.36164 31.2001 7.62744 31.4717 7.93968 31.6815C6.96192 32.3333 7.7952 33.2943 7.7952 33.2943C7.51385 33.2895 7.23495 33.3473 6.97868 33.4635C6.72241 33.5797 6.49519 33.7514 6.31344 33.9663C5.70528 34.692 5.376 36.2309 6.40416 37.202C4.89888 38.6804 4.7544 41.9228 6.52176 44.5301C8.28912 47.1375 12.2338 47.9943 14.1691 46.8821C13.8331 47.954 14.4278 50.9645 17.3846 51.4887C20.3414 52.0128 21.1042 50.064 21.1042 50.064C21.1042 50.064 23.2478 50.8772 24.911 49.4559C26.5742 48.0346 25.5427 45.4239 24.911 44.604C25.5427 45.1752 27.1152 44.5335 26.9976 43.4146C28.9632 43.7708 31.2245 42.2218 30.9859 40.3637C31.0968 41.8085 32.8944 43.2567 34.0536 42.793C32.8642 43.838 33.6101 45.7397 35.3774 46.1732C35.6832 49.9733 41.664 51.408 45.8506 49.056Z" fill="#CB35DE"/>
<path opacity="0.2" d="M22.6464 37.0005C22.6464 37.0005 18.9 38.1093 17.8618 35.428C15.9499 36.5301 12.3816 36.2613 11.1787 33.8555C9.14256 33.8555 7.92288 31.6917 7.92288 31.6917C6.94512 32.3435 7.7784 33.3045 7.7784 33.3045C7.49705 33.2996 7.21815 33.3574 6.96188 33.4737C6.70561 33.5899 6.47839 33.7616 6.29664 33.9765C5.68848 34.7022 5.3592 36.2411 6.38736 37.2121C6.22808 37.3747 6.08515 37.5525 5.96064 37.743C5.33568 39.376 7.48272 40.6192 8.82 39.8363C8.30928 41.5163 10.2077 46.4958 15.4795 44.4126C18.6245 46.4017 21.8165 43.9993 21.3998 39.6045C22.9656 39.591 23.7115 37.8808 22.6464 37.0005Z" fill="white"/>
<path opacity="0.2" d="M42.5813 41.439C43.05 40.9083 43.3965 40.2812 43.5962 39.6019C43.796 38.9226 43.8441 38.2077 43.7371 37.5078C43.7371 37.5078 42.1512 39.8128 38.8349 38.3982C35.5186 36.9836 37.296 33.7177 37.296 33.7177C37.296 33.7177 34.7525 33.9227 35.2162 31.7017C34.393 32.1116 33.133 31.6446 33.133 30.0217C32.7667 32.8273 30.408 34.1814 27.4445 33.5396C29.4336 34.2788 29.2958 35.8177 27.9082 36.9232C26.339 38.4923 26.5306 42.4235 30.2938 42.2824C30.5421 42.0332 30.7314 41.7315 30.8477 41.3994C30.964 41.0674 31.0044 40.7135 30.9658 40.3638C31.0766 41.8086 32.8742 43.2568 34.0334 42.7931C34.0334 42.7931 35.1154 43.7608 36.409 42.5108C37.38 43.4516 40.9651 43.3643 42.5813 41.439Z" fill="white"/>
<path d="M38.341 48.5958C38.341 48.5958 41.3045 44.2648 41.1432 43.9288C40.9819 43.5928 38.341 47.8936 36.708 49.0629C35.075 50.2322 31.8058 52.2112 30.996 52.2112C30.1862 52.2112 30.1224 51.22 30.4114 49.2947C30.7003 47.3694 30.7709 46.8453 32.1082 45.0947C33.4454 43.3442 37.2859 38.6066 37.0642 38.3747C36.8424 38.1429 31.9738 44.369 30.7642 45.1418C29.5546 45.9146 28.5398 40.8242 28.1366 40.8242C27.7334 40.8242 29.2958 44.4563 29.3933 46.1464C29.4907 47.8365 29.3026 49.8693 28.5466 50.3934C27.7906 50.9176 25.7174 49.2846 24.3734 47.8264C23.0294 46.3682 23.0026 40.0682 22.4784 40.0682C21.9542 40.0682 22.8144 45.8507 22.8144 46.4085C22.8144 47.6248 17.687 44.295 16.7664 44.4429C15.8458 44.5907 21.4704 46.6067 23.7082 48.7605C25.6435 50.6354 25.9762 51.2267 26.6347 52.6178C27.337 54.0928 27.5386 55.9946 27.5386 61.421C27.5386 66.8474 26.077 75.533 26.077 78.893C26.077 79.3398 26.3726 79.7867 26.9606 80.1261C27.6227 80.4607 28.3541 80.635 29.0959 80.635C29.8377 80.635 30.5691 80.4607 31.2312 80.1261C31.8192 79.7901 32.1149 79.3398 32.1149 78.893C32.1149 75.533 30.6533 66.8373 30.6533 61.421C30.6533 56.0046 30.8717 53.9685 32.4845 52.8227C34.0973 51.677 36.8525 49.6509 38.0621 49.2846C39.2717 48.9184 42.7896 49.5198 42.7896 49.2846C42.7896 49.0494 38.341 48.5958 38.341 48.5958Z" fill="#CB35DE"/>
<path opacity="0.4" d="M38.341 48.5958C38.341 48.5958 41.3045 44.2648 41.1432 43.9288C40.9819 43.5928 38.341 47.8936 36.708 49.0629C35.075 50.2322 31.8058 52.2112 30.996 52.2112C30.1862 52.2112 30.1224 51.22 30.4114 49.2947C30.7003 47.3694 30.7709 46.8453 32.1082 45.0947C33.4454 43.3442 37.2859 38.6066 37.0642 38.3747C36.8424 38.1429 31.9738 44.369 30.7642 45.1418C29.5546 45.9146 28.5398 40.8242 28.1366 40.8242C27.7334 40.8242 29.2958 44.4563 29.3933 46.1464C29.4907 47.8365 29.3026 49.8693 28.5466 50.3934C27.7906 50.9176 25.7174 49.2846 24.3734 47.8264C23.0294 46.3682 23.0026 40.0682 22.4784 40.0682C21.9542 40.0682 22.8144 45.8507 22.8144 46.4085C22.8144 47.6248 17.687 44.295 16.7664 44.4429C15.8458 44.5907 21.4704 46.6067 23.7082 48.7605C25.6435 50.6354 25.9762 51.2267 26.6347 52.6178C27.337 54.0928 27.5386 55.9946 27.5386 61.421C27.5386 66.8474 26.077 75.533 26.077 78.893C26.077 79.3398 26.3726 79.7867 26.9606 80.1261C27.6227 80.4607 28.3541 80.635 29.0959 80.635C29.8377 80.635 30.5691 80.4607 31.2312 80.1261C31.8192 79.7901 32.1149 79.3398 32.1149 78.893C32.1149 75.533 30.6533 66.8373 30.6533 61.421C30.6533 56.0046 30.8717 53.9685 32.4845 52.8227C34.0973 51.677 36.8525 49.6509 38.0621 49.2846C39.2717 48.9184 42.7896 49.5198 42.7896 49.2846C42.7896 49.0494 38.341 48.5958 38.341 48.5958Z" fill="black"/>
<path d="M84.1613 164.506C129.575 164.506 166.391 141.975 166.391 114.183C166.391 86.3904 129.575 63.8601 84.1613 63.8601C38.7473 63.8601 1.93201 86.3904 1.93201 114.183C1.93201 141.975 38.7473 164.506 84.1613 164.506Z" fill="#CB35DE"/>
<path opacity="0.5" d="M84.1613 164.506C129.575 164.506 166.391 141.975 166.391 114.183C166.391 86.3904 129.575 63.8601 84.1613 63.8601C38.7473 63.8601 1.93201 86.3904 1.93201 114.183C1.93201 141.975 38.7473 164.506 84.1613 164.506Z" fill="white"/>
<path d="M135.26 98.7202C135.26 98.7202 135.193 97.7626 134.444 97.6618C134.444 97.6618 133.829 97.561 133.486 98.5152C133.195 98.4066 132.883 98.3685 132.574 98.4042C132.266 98.4398 131.97 98.5481 131.712 98.7202C131.674 98.9897 131.736 99.2638 131.887 99.4901C132.039 99.7164 132.268 99.8789 132.532 99.9466C132.532 99.9466 131.951 100.39 132.226 101.448C132.226 101.448 133.758 101.959 134.135 101.005C134.135 101.005 134.272 101.858 135.771 101.858C135.954 101.612 136.053 101.312 136.053 101.005C136.053 100.698 135.954 100.398 135.771 100.152C135.771 100.152 136.829 100.118 137.001 99.335C137.001 99.335 136.285 98.1389 135.26 98.7202Z" fill="#FAFAFA"/>
<path d="M134.336 98.8714C134.095 98.8377 133.85 98.8895 133.643 99.0177C133.436 99.146 133.281 99.3427 133.204 99.5736C133.204 99.5736 133.204 100.131 134.161 100.212C135.119 100.293 135.264 99.7349 135.264 99.7349C135.244 99.5013 135.139 99.2833 134.967 99.1236C134.796 98.9638 134.571 98.8739 134.336 98.8714Z" fill="#F0997A"/>
<path d="M142.068 96.7074C142.068 96.7074 141.732 96.0354 141.18 95.948C140.881 96.1931 140.685 96.5424 140.633 96.9258C140.423 96.8788 140.204 96.881 139.995 96.9323C139.786 96.9836 139.591 97.0825 139.427 97.2214C139.476 97.4191 139.571 97.6023 139.704 97.7564C139.837 97.9105 140.004 98.0311 140.193 98.1085C140.046 98.5172 140.06 98.9666 140.233 99.3651C140.233 99.3651 141.295 99.4458 141.668 98.5587C141.668 98.5587 142.061 99.1467 143.143 98.9418C143.229 98.714 143.236 98.4642 143.165 98.2314C143.094 97.9986 142.948 97.7959 142.75 97.6549C142.75 97.6549 143.422 97.2685 143.341 96.6267C142.922 96.4851 142.465 96.5141 142.068 96.7074Z" fill="#FAFAFA"/>
<path d="M141.456 97.104C141.275 97.1067 141.102 97.1723 140.964 97.2895C140.827 97.4066 140.735 97.568 140.703 97.7458C140.703 97.7458 140.767 98.1523 141.476 98.1086C142.185 98.065 142.229 97.6349 142.229 97.6349C142.189 97.466 142.088 97.3179 141.945 97.2197C141.802 97.1214 141.628 97.0802 141.456 97.104Z" fill="#F0997A"/>
<path d="M133.631 93.8447C133.631 93.8447 133.422 93.2365 133.022 93.4448C132.623 93.6532 132.76 94.0362 133.11 94.1168C133.11 94.1168 132.364 94.3588 132.572 94.7586C132.78 95.1584 133.422 94.7418 133.56 94.5335C133.56 94.5335 133.698 95.1416 134.232 94.9232C134.766 94.7048 134.232 94.184 134.232 94.184C134.232 94.184 135.032 93.8716 134.598 93.512C134.165 93.1525 133.631 93.8447 133.631 93.8447Z" fill="#FAFAFA"/>
<path d="M140.337 104.278C140.337 104.278 140.398 103.636 139.951 103.663C139.504 103.69 139.467 104.093 139.749 104.315C139.749 104.315 138.97 104.227 138.993 104.677C139.017 105.128 139.776 105.013 140.001 104.879C140.001 104.879 139.873 105.494 140.438 105.511C141.002 105.527 140.744 104.839 140.744 104.839C140.744 104.839 141.6 104.886 141.355 104.375C141.11 103.864 140.337 104.278 140.337 104.278Z" fill="#FAFAFA"/>
<path d="M127.398 101.999C127.398 101.999 126.88 101.327 127.273 101.153C127.667 100.978 127.831 101.576 127.831 101.576C127.831 101.576 128.224 101.112 128.409 101.442C128.594 101.771 128.12 102.114 128.12 102.114C128.12 102.114 128.658 102.403 128.349 102.691C128.04 102.98 127.677 102.527 127.677 102.527C127.677 102.527 127.465 103.041 127.136 102.896C126.806 102.752 127.008 102.164 127.398 101.999Z" fill="#FAFAFA"/>
<path d="M135.888 127.468C135.888 127.468 135.593 126.631 134.897 126.722C134.897 126.722 134.323 126.783 134.252 127.73C133.966 127.706 133.678 127.749 133.411 127.857C133.145 127.965 132.908 128.135 132.72 128.352C132.751 128.603 132.873 128.834 133.065 129.001C133.256 129.167 133.502 129.257 133.755 129.252C133.755 129.252 133.345 129.79 133.846 130.67C133.846 130.67 135.344 130.751 135.445 129.807C135.445 129.807 135.781 130.536 137.125 130.17C137.226 129.903 137.241 129.612 137.166 129.337C137.091 129.062 136.931 128.819 136.708 128.641C136.708 128.641 137.646 128.352 137.609 127.609C137.595 127.592 136.661 126.699 135.888 127.468Z" fill="#FAFAFA"/>
<path d="M135.099 127.831C134.875 127.86 134.669 127.966 134.515 128.131C134.361 128.296 134.269 128.51 134.256 128.735C134.256 128.735 134.393 129.232 135.264 129.071C136.134 128.91 136.13 128.372 136.13 128.372C136.056 128.17 135.909 128.003 135.718 127.904C135.528 127.804 135.307 127.778 135.099 127.831Z" fill="#F0997A"/>
<path d="M142.998 122.304C142.998 122.304 142.686 121.675 142.175 121.602C141.897 121.829 141.716 122.153 141.668 122.509C141.473 122.464 141.27 122.465 141.076 122.513C140.882 122.56 140.701 122.652 140.549 122.781C140.594 122.964 140.683 123.135 140.807 123.278C140.93 123.421 141.086 123.533 141.261 123.604C141.124 123.983 141.137 124.401 141.298 124.77C141.298 124.77 142.283 124.844 142.642 124.021C142.642 124.021 143.005 124.568 144.01 124.377C144.091 124.166 144.1 123.933 144.033 123.717C143.967 123.501 143.829 123.313 143.643 123.184C143.643 123.184 144.265 122.825 144.191 122.23C143.997 122.162 143.792 122.134 143.587 122.147C143.382 122.16 143.182 122.213 142.998 122.304Z" fill="#FAFAFA"/>
<path d="M142.437 122.663C142.27 122.666 142.108 122.726 141.98 122.835C141.853 122.943 141.767 123.093 141.738 123.258C141.738 123.258 141.799 123.634 142.457 123.594C143.116 123.554 143.156 123.157 143.156 123.157C143.12 123 143.026 122.862 142.893 122.77C142.76 122.679 142.597 122.641 142.437 122.663Z" fill="#F0997A"/>
<path d="M136.335 122.808C136.335 122.808 136.14 122.243 135.771 122.438C135.401 122.633 135.529 122.986 135.852 123.066C135.852 123.066 135.159 123.292 135.354 123.661C135.549 124.031 136.141 123.644 136.272 123.45C136.272 123.45 136.399 124.017 136.883 123.816C137.367 123.614 136.883 123.127 136.883 123.127C136.883 123.127 137.622 122.838 137.219 122.502C136.816 122.166 136.335 122.808 136.335 122.808Z" fill="#FAFAFA"/>
<path d="M146.543 126.672C146.543 126.672 146.6 126.08 146.184 126.104C145.767 126.127 145.737 126.5 145.995 126.709C145.995 126.709 145.273 126.628 145.296 127.045C145.32 127.461 146.019 127.354 146.217 127.233C146.217 127.233 146.1 127.801 146.624 127.814C147.148 127.828 146.909 127.189 146.909 127.189C146.909 127.189 147.702 127.233 147.474 126.759C147.245 126.285 146.543 126.672 146.543 126.672Z" fill="#FAFAFA"/>
<path d="M128.429 127.108C128.429 127.108 129.101 126.668 129.219 127.038C129.336 127.408 128.799 127.532 128.799 127.532C128.799 127.532 129.209 127.918 128.893 128.076C128.577 128.234 128.278 127.77 128.278 127.77C128.278 127.77 127.982 128.254 127.73 127.952C127.478 127.649 127.919 127.33 127.919 127.33C127.919 127.33 127.452 127.108 127.603 126.813C127.754 126.517 128.295 126.739 128.429 127.108Z" fill="#FAFAFA"/>
<path d="M65.2411 153.488C65.2411 153.488 65.315 152.48 66.108 152.372C66.108 152.372 66.7565 152.265 67.116 153.273C67.116 153.273 67.9089 152.876 68.9909 153.488C69.0313 153.773 68.9653 154.063 68.8053 154.302C68.6454 154.541 68.4028 154.713 68.124 154.785C68.124 154.785 68.7389 155.255 68.46 156.371C68.46 156.371 66.8371 156.912 66.444 155.904C66.444 155.904 66.2995 156.804 64.7136 156.804C64.5204 156.544 64.4162 156.228 64.4162 155.904C64.4162 155.58 64.5204 155.264 64.7136 155.003C64.7136 155.003 63.5981 154.966 63.4166 154.136C63.4032 154.136 64.176 152.88 65.2411 153.488Z" fill="#FAFAFA"/>
<path d="M66.2189 153.649C66.4735 153.615 66.7322 153.67 66.9505 153.806C67.1688 153.941 67.333 154.148 67.415 154.392C67.415 154.392 67.415 154.98 66.407 155.064C65.399 155.148 65.2445 154.557 65.2445 154.557C65.2646 154.311 65.3756 154.082 65.5559 153.914C65.7362 153.746 65.9726 153.652 66.2189 153.649Z" fill="#F0997A"/>
<path d="M56.3203 148.787C56.3203 148.787 56.6765 148.068 57.2577 147.988C57.5751 148.245 57.7819 148.614 57.8357 149.019C58.0577 148.97 58.2881 148.972 58.509 149.026C58.7299 149.08 58.9353 149.185 59.1091 149.332C59.0587 149.541 58.9589 149.735 58.818 149.897C58.6771 150.06 58.4992 150.186 58.2993 150.266C58.4578 150.703 58.4434 151.183 58.259 151.61C58.259 151.61 57.1368 151.694 56.7403 150.756C56.7403 150.756 56.327 151.378 55.1846 151.163C55.0943 150.922 55.0859 150.659 55.1606 150.413C55.2353 150.167 55.389 149.952 55.5979 149.802C55.5979 149.802 54.8923 149.396 54.9763 148.717C55.1938 148.639 55.4247 148.605 55.6554 148.617C55.8861 148.629 56.1121 148.687 56.3203 148.787Z" fill="#FAFAFA"/>
<path d="M56.9587 149.211C57.1484 149.214 57.3311 149.283 57.4761 149.406C57.6211 149.528 57.7196 149.696 57.755 149.883C57.755 149.883 57.6878 150.316 56.9386 150.266C56.1893 150.215 56.1422 149.765 56.1422 149.765C56.1848 149.588 56.2921 149.432 56.4431 149.33C56.5941 149.227 56.778 149.185 56.9587 149.211Z" fill="#F0997A"/>
<path d="M64.3541 145.367C64.3541 145.367 64.5758 144.725 64.9958 144.947C65.4158 145.169 65.2713 145.569 64.9051 145.663C64.9051 145.663 65.6947 145.918 65.4729 146.335C65.2512 146.751 64.5758 146.315 64.428 146.096C64.428 146.096 64.2835 146.741 63.7325 146.509C63.1814 146.278 63.7325 145.727 63.7325 145.727C63.7325 145.727 62.8891 145.391 63.3461 145.014C63.803 144.638 64.3541 145.367 64.3541 145.367Z" fill="#FAFAFA"/>
<path d="M75.8856 155.618C75.8856 155.618 75.8217 154.946 76.2955 154.97C76.7693 154.993 76.8029 155.423 76.5072 155.642C76.5072 155.642 77.3304 155.548 77.3035 156.025C77.2766 156.502 76.4803 156.361 76.2552 156.24C76.2552 156.24 76.3896 156.888 75.7915 156.912C75.1934 156.935 75.4555 156.2 75.4555 156.2C75.4555 156.2 74.5517 156.247 74.8104 155.709C75.0691 155.171 75.8856 155.618 75.8856 155.618Z" fill="#FAFAFA"/>
<path d="M73.6377 150.135C73.6377 150.135 74.1854 149.412 73.7688 149.238C73.3521 149.063 73.1808 149.685 73.1808 149.685C73.1808 149.685 72.7675 149.194 72.5726 149.544C72.3777 149.893 72.875 150.263 72.875 150.263C72.875 150.263 72.3105 150.568 72.6365 150.874C72.9624 151.18 73.3555 150.699 73.3555 150.699C73.3555 150.699 73.5806 151.244 73.9267 151.092C74.2728 150.941 74.0544 150.306 73.6377 150.135Z" fill="#FAFAFA"/>
<path d="M31.7117 129.528C31.7117 129.528 31.6411 128.52 30.8549 128.423C30.8549 128.423 30.2131 128.315 29.8469 129.313C29.8469 129.313 29.064 128.92 27.9922 129.528C27.9518 129.81 28.0169 130.097 28.175 130.334C28.3331 130.571 28.5731 130.741 28.849 130.812C28.849 130.812 28.2442 131.275 28.513 132.377C28.513 132.377 30.1157 132.915 30.5088 131.917C30.5088 131.917 30.6499 132.807 32.219 132.807C32.4123 132.555 32.52 132.248 32.5267 131.93C32.5333 131.612 32.4385 131.3 32.256 131.04C32.256 131.04 33.3614 131.006 33.5395 130.187C33.5294 130.17 32.7802 128.92 31.7117 129.528Z" fill="#FAFAFA"/>
<path d="M30.7474 129.696C30.4978 129.663 30.2444 129.717 30.0298 129.848C29.8151 129.98 29.6521 130.181 29.568 130.418C29.568 130.418 29.568 131.003 30.576 131.09C31.584 131.178 31.7285 130.59 31.7285 130.59C31.7066 130.345 31.5937 130.117 31.412 129.952C31.2303 129.786 30.9931 129.695 30.7474 129.696Z" fill="#F0997A"/>
<path d="M39.6211 128.318C39.6211 128.318 39.2851 127.609 38.6938 127.525C38.3833 127.778 38.1794 128.137 38.1226 128.533C37.903 128.484 37.6748 128.486 37.4561 128.539C37.2374 128.593 37.0342 128.697 36.8626 128.843C36.9134 129.049 37.0123 129.24 37.1513 129.401C37.2903 129.561 37.4654 129.687 37.6623 129.767C37.5092 130.195 37.5248 130.666 37.7059 131.084C37.7059 131.084 38.8147 131.164 39.2045 130.24C39.2045 130.24 39.6144 130.855 40.7467 130.64C40.8346 130.402 40.8418 130.141 40.7671 129.898C40.6925 129.655 40.5401 129.444 40.3335 129.296C40.3335 129.296 41.0323 128.893 40.9517 128.221C40.7345 128.148 40.5051 128.12 40.2767 128.136C40.0482 128.153 39.8254 128.215 39.6211 128.318Z" fill="#FAFAFA"/>
<path d="M38.976 128.735C38.7873 128.738 38.6057 128.807 38.4623 128.93C38.3188 129.053 38.2225 129.221 38.1898 129.407C38.1898 129.407 38.2536 129.834 38.9962 129.783C39.7387 129.733 39.7858 129.289 39.7858 129.289C39.7433 129.113 39.637 128.959 39.4874 128.857C39.3379 128.754 39.1556 128.711 38.976 128.735Z" fill="#F0997A"/>
<path d="M32.4946 125.761C32.4946 125.761 32.2795 125.13 31.8629 125.345C31.4462 125.56 31.5907 125.963 31.9536 126.054C31.9536 126.054 31.1707 126.306 31.3891 126.726C31.6075 127.146 32.2795 126.726 32.424 126.49C32.424 126.49 32.5685 127.129 33.096 126.9C33.6235 126.672 33.096 126.128 33.096 126.128C33.096 126.128 33.9293 125.792 33.4757 125.422C33.0221 125.052 32.4946 125.761 32.4946 125.761Z" fill="#FAFAFA"/>
<path d="M37.8538 133.6C37.8538 133.6 37.9176 132.928 37.4472 132.959C36.9768 132.989 36.9466 133.409 37.2389 133.631C37.2389 133.631 36.4224 133.54 36.4493 134.01C36.4762 134.481 37.2658 134.346 37.4875 134.222C37.4875 134.222 37.3565 134.864 37.9445 134.894C38.5325 134.924 38.2805 134.188 38.2805 134.188C38.2805 134.188 39.1742 134.235 38.9155 133.701C38.6568 133.167 37.8538 133.6 37.8538 133.6Z" fill="#FAFAFA"/>
<path d="M23.1134 128.033C23.1134 128.033 22.5758 127.32 22.9858 127.149C23.3957 126.978 23.567 127.589 23.567 127.589C23.567 127.589 23.977 127.105 24.1718 127.451C24.3667 127.797 23.8694 128.164 23.8694 128.164C23.8694 128.164 24.4306 128.463 24.1046 128.765C23.7787 129.068 23.3957 128.594 23.3957 128.594C23.3957 128.594 23.1739 129.131 22.8312 128.98C22.4885 128.829 22.7035 128.204 23.1134 128.033Z" fill="#FAFAFA"/>
<path d="M24.2592 100.854C24.2592 100.854 24.323 99.9868 25.0018 99.8961C25.0018 99.8961 25.5595 99.802 25.8686 100.669C26.1326 100.571 26.4158 100.537 26.6955 100.569C26.9751 100.601 27.2432 100.699 27.4781 100.854C27.5125 101.098 27.4559 101.347 27.319 101.553C27.1821 101.758 26.9745 101.907 26.7355 101.969C26.7355 101.969 27.2597 102.369 27.0144 103.313C27.0144 103.313 25.6234 103.777 25.2806 102.91C25.2806 102.91 25.1563 103.683 23.7955 103.683C23.6292 103.459 23.5393 103.188 23.5393 102.91C23.5393 102.632 23.6292 102.36 23.7955 102.137C23.7955 102.137 22.8379 102.107 22.6834 101.395C22.6834 101.411 23.3318 100.33 24.2592 100.854Z" fill="#FAFAFA"/>
<path d="M25.0992 100.992C25.3181 100.961 25.5407 101.009 25.7285 101.125C25.9162 101.242 26.0573 101.42 26.1274 101.63C26.1274 101.63 26.1274 102.134 25.2571 102.208C24.3869 102.282 24.2491 101.774 24.2491 101.774C24.2661 101.561 24.3631 101.361 24.5207 101.216C24.6783 101.071 24.8849 100.991 25.0992 100.992Z" fill="#F0997A"/>
<path d="M17.3981 99.7921C17.3981 99.7921 17.7038 99.1772 18.2011 99.1033C18.4742 99.3245 18.6522 99.6419 18.6984 99.9903C18.8888 99.9475 19.0866 99.9495 19.2761 99.9961C19.4656 100.043 19.6416 100.133 19.7904 100.259C19.7464 100.438 19.6603 100.605 19.5394 100.744C19.4185 100.884 19.2661 100.993 19.0949 101.062C19.2285 101.432 19.2165 101.84 19.0613 102.201C19.0613 102.201 18.097 102.272 17.761 101.472C17.761 101.472 17.4014 102.003 16.417 101.808C16.3409 101.601 16.3345 101.376 16.3988 101.165C16.4631 100.955 16.5946 100.771 16.7731 100.642C16.6082 100.549 16.4715 100.413 16.3775 100.249C16.2835 100.084 16.2356 99.8974 16.2389 99.7081C16.4279 99.644 16.6279 99.6184 16.827 99.6328C17.0261 99.6473 17.2203 99.7014 17.3981 99.7921Z" fill="#FAFAFA"/>
<path d="M17.9458 100.168C18.1076 100.173 18.2629 100.233 18.3854 100.339C18.5078 100.445 18.5899 100.59 18.6178 100.75C18.6178 100.75 18.5606 101.119 17.9189 101.086C17.2771 101.052 17.2469 100.659 17.2469 100.659C17.2809 100.505 17.3715 100.369 17.5009 100.278C17.6303 100.187 17.789 100.148 17.9458 100.168Z" fill="#F0997A"/>
<path d="M23.5805 97.5878C23.5805 97.5878 23.7686 97.0368 24.1315 97.2249C24.4944 97.4131 24.3667 97.7626 24.0509 97.8398C24.0509 97.8398 24.7229 98.0616 24.5414 98.4211C24.36 98.7806 23.7686 98.4211 23.6443 98.2162C23.6443 98.2162 23.5166 98.7706 23.0462 98.5723C22.5758 98.3741 23.0462 97.9003 23.0462 97.9003C23.0462 97.9003 22.3205 97.6181 22.7102 97.2888C23.1 96.9595 23.5805 97.5878 23.5805 97.5878Z" fill="#FAFAFA"/>
<path d="M18.9302 104.388C18.9302 104.388 18.8765 103.81 19.2662 103.831C19.656 103.851 19.703 104.22 19.4477 104.422C19.4477 104.422 20.1566 104.345 20.1197 104.758C20.0827 105.171 19.4107 105.064 19.2192 104.943C19.2192 104.943 19.3334 105.497 18.8227 105.514C18.312 105.531 18.5438 104.902 18.5438 104.902C18.5438 104.902 17.7677 104.943 17.9894 104.479C18.2112 104.015 18.9302 104.388 18.9302 104.388Z" fill="#FAFAFA"/>
<path d="M31.7218 99.5567C31.7218 99.5567 32.1888 98.9385 31.8326 98.7906C31.4765 98.6428 31.3286 99.1737 31.3286 99.1737C31.3286 99.1737 30.9725 98.7537 30.8045 99.0527C30.6365 99.3518 31.0666 99.671 31.0666 99.671C31.0666 99.671 30.5794 99.9331 30.8582 100.195C31.1371 100.457 31.4765 100.044 31.4765 100.044C31.4765 100.044 31.668 100.511 31.967 100.38C32.2661 100.249 32.0746 99.7079 31.7218 99.5567Z" fill="#FAFAFA"/>
<path d="M95.76 20.4558C95.3786 20.3166 94.9765 20.2427 94.5706 20.2374C94.1875 20.2071 94.0666 20.1298 93.9926 20.0492C93.6251 19.5184 93.0873 19.1292 92.4683 18.9459C91.8493 18.7625 91.1862 18.7962 90.589 19.0412C90.4219 18.5232 90.0664 18.0868 89.5928 17.8186C89.1192 17.5504 88.5621 17.4699 88.032 17.593C88.0757 16.3969 86.5469 15.11 85.176 14.8177C83.8589 14.5388 82.7131 14.6564 81.9605 15.5199C81.1574 13.9508 78.0058 13.5039 76.3022 14.3406C75.3211 14.8177 74.4878 15.3082 74.0813 16.2054C73.8134 16.7619 73.6865 17.3757 73.7117 17.9929C73.0397 17.4049 71.7192 17.247 70.8288 17.5897C69.8746 17.9626 69.8006 18.6817 69.7536 19.4175C69.1865 19.2536 68.5862 19.242 68.0131 19.3839C67.4083 19.562 67.0622 20.0358 67.1429 20.4188C66.6658 20.3919 65.5301 20.7783 65.6611 21.2823C65.809 21.8468 67.1059 21.7897 67.5898 21.7729C68.0424 21.7341 68.4916 21.6622 68.9338 21.5578C69.1589 21.6449 69.398 21.6905 69.6394 21.6922C70.4659 21.6922 70.8154 21.3327 70.9498 21.0202C71.353 21.867 72.7877 22.5154 73.8024 22.7742C75.7109 23.2647 78.4157 22.9657 79.5917 21.5377C79.7298 21.806 79.9233 22.0419 80.1595 22.2298C80.6646 22.6384 81.2798 22.8875 81.9269 22.9455C82.7131 23.0194 84.8198 23.1202 85.4112 21.8737C85.8312 22.7036 87.7061 23.0799 89.1307 22.8817C89.6804 22.7988 90.2155 22.6381 90.72 22.4046C91.0417 22.2341 91.3536 22.0457 91.6541 21.8401C91.7668 21.761 91.899 21.7142 92.0364 21.7047C92.1737 21.6952 92.3111 21.7234 92.4336 21.7863C93.4147 22.082 94.547 22.203 95.5483 21.7863C96.3446 21.4638 96.5093 20.7951 95.76 20.4558Z" fill="#F0F0F0"/>
<path d="M116.669 26.3323C116.418 26.2389 116.152 26.19 115.883 26.1878C115.628 26.1677 115.547 26.1173 115.497 26.0601C115.254 25.7089 114.898 25.4509 114.489 25.3287C114.08 25.2066 113.641 25.2275 113.245 25.3881C113.133 25.0465 112.897 24.7592 112.584 24.5826C112.27 24.4061 111.902 24.353 111.552 24.4339C111.582 23.6443 110.571 22.7942 109.66 22.5993C108.75 22.4045 108.031 22.4918 107.533 23.0664C107.003 22.0248 104.916 21.7224 103.787 22.2835C103.139 22.5993 102.588 22.9219 102.319 23.5166C102.141 23.8846 102.056 24.2909 102.073 24.6993C101.8 24.5055 101.484 24.3802 101.152 24.334C100.819 24.2878 100.481 24.3221 100.165 24.4339C99.5333 24.6792 99.4929 25.1563 99.4526 25.6435C99.0774 25.5327 98.6791 25.5257 98.3001 25.6233C97.9003 25.7409 97.6718 26.0534 97.7256 26.2953C97.4097 26.2752 96.6571 26.5305 96.7445 26.8632C96.8318 27.1958 97.6987 27.1992 98.0213 27.1992C98.3235 27.175 98.6234 27.1278 98.9184 27.0581C99.0678 27.1146 99.2257 27.1453 99.3854 27.1488C99.9331 27.1488 100.165 26.9102 100.252 26.7053C100.521 27.2664 101.469 27.7133 102.141 27.8678C103.407 28.2038 105.195 27.9955 105.974 27.048C106.065 27.2267 106.194 27.3837 106.351 27.5083C106.685 27.7797 107.092 27.9458 107.52 27.9854C108.041 28.0325 109.435 28.0997 109.828 27.2731C110.107 27.8241 111.347 28.0728 112.291 27.9451C112.657 27.8851 113.013 27.7719 113.346 27.6091C113.556 27.4999 113.759 27.3787 113.954 27.2462C114.029 27.1939 114.117 27.1631 114.208 27.1572C114.3 27.1513 114.391 27.1704 114.472 27.2126C115.138 27.4478 115.865 27.4478 116.532 27.2126C117.052 26.9976 117.163 26.544 116.669 26.3323Z" fill="#F5F5F5"/>
<path d="M145.649 28.2206C149.262 28.2206 152.191 25.2916 152.191 21.6786C152.191 18.0656 149.262 15.1367 145.649 15.1367C142.036 15.1367 139.107 18.0656 139.107 21.6786C139.107 25.2916 142.036 28.2206 145.649 28.2206Z" fill="#FFBDA7"/>
<path opacity="0.4" d="M63.4032 137.901C79.6925 147.81 91.8893 151.119 107.419 148.186C112.795 147.178 121.031 143.234 124.008 137.918C124.609 136.814 124.896 135.567 124.837 134.311C124.777 133.055 124.374 131.84 123.672 130.798C118.44 122.872 102.218 115.204 95.3333 110.514C87.36 105.531 78.0998 101.623 68.544 103.488C53.1855 105.108 61.3637 93.8919 71.7091 95.0377C67.153 90.3639 60.0197 88.8788 53.5651 89.9439C54.3152 88.8235 55.3402 87.9142 56.5421 87.3029C50.2051 87.0577 44.3823 91.7281 42.0538 97.4401C41.4033 96.4129 41.1246 95.1938 41.2642 93.986C35.3674 99.3149 36.1973 109.6 42.8669 113.918C41.8134 113.617 40.8222 113.13 39.9403 112.479C40.5552 115.813 44.0429 118.101 47.5675 119.814C49.6978 120.849 50.3362 122.475 52.0128 126.198C53.088 128.587 54.2035 132.303 63.4032 137.901Z" fill="#CB35DE"/>
<path d="M68.329 100.272C66.3533 113.514 73.6445 117.113 77.5118 119.314C81.3792 121.514 90.8779 125.362 94.127 125.913C97.3762 126.464 97.6181 125.687 97.7189 125.261C99.6643 125.795 100.743 124.737 100.763 124.155C102.258 124.155 102.621 122.942 102.399 121.763C102.178 120.584 101.317 119.337 100.168 118.981C98.411 118.437 97.309 118.806 93.7843 118.208C92.6464 118.036 91.5232 117.777 90.4243 117.435C93.7843 117.855 98.4883 116.135 101.193 114.3C100.792 115.032 100.3 115.709 99.7282 116.316C99.7282 116.316 103.044 115.214 104.019 112.58C104.047 113.344 103.964 114.108 103.774 114.848C103.774 114.848 106.462 112.207 105.36 107.194C104.58 103.626 102.292 102.372 102.292 102.372L68.329 100.272Z" fill="#B16668"/>
<path d="M90.4344 117.435C87.2263 117.053 84.0884 116.22 81.1138 114.959C85.68 118.742 92.2085 119.952 97.3728 118.608C96.1732 118.551 94.9781 118.421 93.7944 118.218C92.6562 118.042 91.533 117.781 90.4344 117.435Z" fill="#9A4A4D"/>
<path d="M100.763 124.155C100.995 122.785 100.908 121.131 99.6072 120.577C98.3069 120.023 95.928 120.144 95.928 120.144C95.928 120.144 99.0898 119.666 100.259 120.402C101.428 121.138 101.136 123.104 100.763 124.155Z" fill="#B16668"/>
<path d="M97.7189 125.251C97.9474 123.88 97.8634 122.227 96.5631 121.672C95.2627 121.118 92.8839 121.239 92.8839 121.239C92.8839 121.239 96.0456 120.762 97.2115 121.497C98.3775 122.233 98.112 124.199 97.7189 125.251Z" fill="#B16668"/>
<path d="M89.7758 105.622C92.5008 104.419 96.8755 103.152 107.332 101.563L102.534 65.5434L98.8613 65.0327C93.2736 69.2495 90.1253 67.9526 76.7088 75.9393C65.94 82.3434 52.5168 88.7073 51.3273 105.968C50.4168 119.327 56.6429 122.808 60.5102 125.009C64.3776 127.21 73.8797 131.057 77.1254 131.611C80.3712 132.166 80.6165 131.386 80.7173 130.959C82.6627 131.49 83.7413 130.432 83.7648 129.854C85.2566 129.854 85.6195 128.641 85.3978 127.458C85.176 126.275 84.3158 125.036 83.1667 124.676C81.4094 124.132 80.3107 124.501 76.7827 123.903C75.6448 123.731 74.5216 123.473 73.4227 123.13C76.7827 123.554 81.4867 121.83 84.1949 119.999C83.7918 120.73 83.2985 121.407 82.7266 122.015C82.7266 122.015 86.0429 120.913 87.0173 118.282C87.045 119.045 86.9624 119.808 86.772 120.547C86.772 120.547 89.46 117.909 88.3613 112.893C87.5784 109.324 85.2936 108.071 85.2936 108.071C86.7084 107.117 88.209 106.297 89.7758 105.622Z" fill="#F0997A"/>
<path d="M73.4328 123.13C70.2249 122.75 67.087 121.917 64.1122 120.657C68.665 124.441 75.2002 125.634 80.3712 124.296C79.1726 124.238 77.9787 124.107 76.7962 123.903C75.6571 123.731 74.5328 123.473 73.4328 123.13Z" fill="#B16668"/>
<path d="M83.7648 129.854C83.9933 128.48 83.9059 126.83 82.609 126.272C81.312 125.714 78.913 125.839 78.913 125.839C78.913 125.839 82.0747 125.365 83.244 126.101C84.4133 126.836 84.1411 128.799 83.7648 129.854Z" fill="#B16668"/>
<path d="M80.7206 130.949C80.9491 129.575 80.8618 127.925 79.5614 127.367C78.2611 126.81 75.8822 126.934 75.8822 126.934C75.8822 126.934 79.044 126.46 80.2133 127.196C81.3826 127.932 81.097 129.894 80.7206 130.949Z" fill="#B16668"/>
<path d="M104.708 81.863C103.173 84.7895 101.316 87.5349 99.1704 90.048C95.8104 93.9053 90.8577 96.2875 83.7144 98.8512C77.2397 101.173 70.3953 100.988 66.9581 104.876C75.3581 103.256 80.6702 105.178 85.3003 108.088C86.7117 107.132 88.2088 106.31 89.7725 105.632C92.4974 104.429 96.8721 103.162 107.328 101.573L104.708 81.863Z" fill="#FFBDA7"/>
<path d="M119.213 93.146C118.961 97.6451 113.706 110.988 112.463 115.006C111.371 118.538 111.206 120.382 111.374 121.37C111.7 123.241 112.227 125.072 112.946 126.83C113.586 128.448 114.615 129.883 115.94 131.01C118.497 132.982 119.885 133.201 119.878 134.81C119.831 135.069 119.613 136.288 118.47 136.262C118.134 137.411 116.572 137.236 116.572 137.236C116.572 137.236 115.9 139.131 111.549 137.34C109.818 136.624 109.002 134.561 108.189 132.636C107.591 131.208 107.379 128.89 106.381 125.775C105.966 124.388 105.448 123.033 104.832 121.723C104.832 121.723 104.133 121.598 103.854 122.674C103.518 121.978 103.565 120.658 103.854 119.821C104.143 118.984 104.452 116.589 104.19 114.19C103.928 111.791 102.51 105.733 102.51 105.733C101.784 109.19 101.398 113.689 101.166 118.262C100.934 122.835 99.0024 126.128 99.372 128.594C99.7416 131.06 100.528 135.213 102.971 137.871C105.269 140.371 107.261 140.031 107.06 142.783C107.009 143.042 106.704 144.107 105.561 144.084C105.208 145.233 103.663 145.058 103.663 145.058C103.663 145.058 103.152 146.51 98.6227 145.159C96.2371 144.446 95.7499 141.483 95.2627 140.015C94.5567 137.872 93.7253 135.773 92.773 133.728C92.1258 132.363 91.7439 130.888 91.6474 129.38C91.0459 129.071 89.8431 129.77 89.8431 129.77C89.8431 129.77 89.7725 128.214 91.0762 127.462C89.3021 126.561 89.964 124.995 89.964 124.995C89.964 124.995 90.925 126.198 91.7683 124.995C92.6117 123.793 92.2488 119.099 91.5264 112.066C90.804 105.034 90.2227 102.231 89.0501 98.5086C85.9286 88.5932 95.2829 63.7998 101.983 64.0383C109.701 64.4113 121.078 78.2175 119.213 93.146Z" fill="#F0997A"/>
<path d="M103.649 145.058C103.864 144.46 104.046 143.479 103.182 143.079C102.319 142.679 101.317 142.148 101.317 142.148C101.317 142.148 103.246 142.746 103.669 143.029C104.093 143.311 104.268 144.144 103.649 145.058Z" fill="#B16668"/>
<path d="M105.548 144.084C105.759 143.486 105.944 142.504 105.077 142.105C104.21 141.705 103.216 141.174 103.216 141.174C103.216 141.174 105.144 141.772 105.568 142.058C105.991 142.343 106.176 143.17 105.548 144.084Z" fill="#B16668"/>
<path d="M116.572 137.236C116.787 136.638 116.968 135.657 116.105 135.257C115.241 134.857 114.243 134.326 114.243 134.326C114.243 134.326 116.172 134.924 116.595 135.206C117.019 135.489 117.19 136.319 116.572 137.236Z" fill="#B16668"/>
<path d="M118.47 136.261C118.685 135.667 118.867 134.686 118.003 134.286C117.14 133.886 116.138 133.355 116.138 133.355C116.138 133.355 118.07 133.953 118.49 134.235C118.91 134.518 119.088 135.347 118.47 136.261Z" fill="#B16668"/>
<path d="M104.036 59.8483C104.62 57.3921 104.496 54.5294 103.895 48.4243C103.293 42.3192 102.463 37.2288 103.125 36.8323C103.787 36.4358 106.821 36.54 108.148 39.1003C109.476 41.6606 111.243 44.7417 112.402 46.8821C113.491 48.8981 114.196 49.6473 115.201 49.7549L104.036 59.8483Z" fill="#37474F"/>
<path d="M105.937 52.6076C105.937 53.3266 107.281 51.9356 108.777 50.8167C110.272 49.6978 111.428 49.8087 111.223 48.4445C110.789 45.5348 107.019 38.6568 105.635 38.2671C104.251 37.8773 104.412 39.2751 104.822 42.2991C105.232 45.3231 105.924 51.2804 105.937 52.6076Z" fill="#F0997A"/>
<path d="M127.008 52.9838C127.008 52.9838 127.64 48.0346 127.203 43.811C126.766 39.5875 126.195 37.8403 124.995 37.2758C123.796 36.7114 123.651 37.6118 123.248 39.7555C122.845 41.8992 121.333 44.2075 120.543 46.0085C119.754 47.8094 119.25 48.8645 119.199 49.523L127.008 52.9838Z" fill="#37474F"/>
<path d="M126.534 51.586C125.469 50.4335 123.208 49.3684 122.408 48.9685C121.608 48.5687 122.186 47.9034 123.383 45.333C124.579 42.7626 124.626 39.4328 125.204 39.3892C125.782 39.3455 126.346 39.6076 126.622 43.2935C126.798 46.056 126.769 48.8278 126.534 51.586Z" fill="#F0997A"/>
<path d="M138.052 62.6001C133.913 60.7017 130.566 59.1662 129.491 58.427C128.416 57.6878 128.197 55.282 127.011 52.9838C125.825 50.6855 122.381 49.3415 117.748 49.5297C113.114 49.7178 108.592 51.0921 105.685 56.2228C102.779 61.3535 101.989 64.0449 101.989 64.0449C101.989 64.0449 102.997 68.171 108.491 71.6015C113.985 75.0321 118.726 72.4617 121.74 72.5087C124.753 72.5558 130.919 73.1807 133.439 72.0551C135.959 70.9295 137.921 68.386 138.889 66.7161C139.857 65.0462 139.92 63.4569 138.052 62.6001Z" fill="#F0997A"/>
<path d="M115.92 55.7222C115.635 56.1643 115.465 56.6698 115.423 57.1939C115.395 57.3346 115.406 57.4801 115.455 57.615C115.503 57.7499 115.587 57.8691 115.698 57.96C115.967 58.1112 116.202 57.876 116.37 57.6811C116.785 57.1797 117.314 56.7846 117.912 56.5286C118.279 56.3942 118.887 56.3169 119.112 55.9507C119.411 55.4635 118.924 55.0065 118.5 54.8621C118.196 54.7643 117.875 54.7297 117.556 54.7603C117.238 54.7909 116.929 54.8861 116.649 55.0401C116.351 55.2003 116.1 55.4354 115.92 55.7222Z" fill="#37474F"/>
<path d="M120.335 58.988C120.567 59.8247 119.888 59.996 119.052 60.2346C118.215 60.4732 117.54 60.6546 117.311 59.818C117.247 59.6166 117.225 59.4044 117.245 59.1941C117.265 58.9838 117.327 58.7798 117.428 58.5942C117.529 58.4086 117.666 58.2452 117.832 58.114C117.997 57.9827 118.188 57.8863 118.391 57.8304C118.595 57.7745 118.808 57.7603 119.017 57.7886C119.227 57.817 119.428 57.8873 119.61 57.9954C119.791 58.1035 119.949 58.2472 120.074 58.4177C120.198 58.5883 120.287 58.7823 120.335 58.988Z" fill="#263238"/>
<path d="M118.944 58.1281C118.877 58.1279 118.811 58.1347 118.746 58.1482C118.694 58.1563 118.646 58.1771 118.605 58.2087C118.584 58.2244 118.569 58.2459 118.56 58.2704C118.552 58.295 118.551 58.3214 118.558 58.3465C118.57 58.3758 118.589 58.4014 118.615 58.4204C118.759 58.5581 118.927 58.6589 119.072 58.8001C119.216 58.9373 119.336 59.0974 119.428 59.2738C119.459 59.3587 119.508 59.4356 119.572 59.4989C119.831 59.7005 120.023 59.257 120.023 59.0722C120.011 58.9013 119.955 58.7362 119.86 58.5936C119.766 58.4509 119.635 58.3356 119.482 58.2591C119.317 58.1703 119.131 58.1252 118.944 58.1281Z" fill="#455A64"/>
<path d="M106.808 78.0495C106.714 78.4191 106.603 78.782 106.472 79.1483C105.986 80.6649 105.359 82.1328 104.6 83.5331C104.019 84.615 103.357 85.6532 102.843 86.7687C102.289 87.869 102.003 89.085 102.01 90.3169C102.59 89.6321 103.314 89.0828 104.13 88.7075C103.426 89.3699 102.88 90.1816 102.531 91.0828C102.182 91.984 102.04 92.9519 102.114 93.9155C102.623 93.1602 103.278 92.5137 104.039 92.0137C103.74 92.2086 103.609 93.4182 103.545 93.7575C103.429 94.3813 103.375 95.0149 103.384 95.6492C103.384 96.674 103.438 97.7055 103.424 98.7438C103.391 101.116 103.202 103.448 102.5 105.733C102.5 105.733 105.02 105.245 105.45 105.155C107.409 104.738 109.059 103.811 110.457 103.075C113.145 101.633 114.66 100.41 116.343 97.8534C119.213 93.4854 119.243 87.4844 116.824 82.9652C114.778 79.1449 111.707 75.5732 107.547 74.3569C107.509 74.3383 107.466 74.3305 107.424 74.3341C107.382 74.3378 107.341 74.3528 107.307 74.3776C107.272 74.4024 107.245 74.436 107.228 74.475C107.211 74.5139 107.205 74.5567 107.211 74.5988C107.11 75.3851 107.073 76.178 107.006 76.9508C106.968 77.3216 106.902 77.689 106.808 78.0495Z" fill="#FFBDA7"/>
<path d="M104.281 58.8C103.653 60.0567 100.756 60.1205 99.6979 63.3192C99.6979 63.3192 101.287 62.2071 102.366 62.8421L101.993 64.0417C100.993 63.9694 99.9978 64.2284 99.1603 64.7786C98.3227 65.3289 97.6898 66.1397 97.3594 67.0858C98.8411 65.6041 99.9499 65.5368 100.135 67.6503C100.32 69.7637 99.1267 73.836 101.338 77.8109C101.099 76.6011 101.329 75.3456 101.983 74.2997C102.117 76.902 103.038 79.4022 104.624 81.47C107.258 84.83 109.845 85.633 109.845 85.633C109.845 85.633 107.443 82.4376 107.157 81.05C110.023 84.1949 112.799 85.3037 114.925 88.2639C117.052 91.224 116.868 93.996 116.868 93.996C116.868 93.996 122.045 90.1992 120.473 85.26C122.153 86.9736 122.032 87.7868 122.032 87.7868C122.032 87.7868 123.618 84.7628 122.6 82.0244C121.582 79.286 120.248 73.8327 123.272 72.5559L104.281 58.8Z" fill="#F0997A"/>
<path d="M97.3594 67.0958C98.233 66.1718 99.6912 65.2108 100.088 67.0958C100.32 68.1239 100.128 69.6863 100.088 70.7481C100.012 71.958 100.069 73.1725 100.256 74.3702C100.456 75.562 100.858 76.7108 101.445 77.7671L101.217 77.8478C101.113 77.2305 101.113 76.6002 101.217 75.983C101.344 75.2151 101.654 74.489 102.12 73.8662L102.141 74.3097C102.362 79.0506 105.538 83.6438 109.909 85.4817L109.721 85.7505C108.908 84.6759 108.173 83.5452 107.52 82.367C107.203 81.7824 106.983 81.1504 106.868 80.4954L107.285 80.949C109.14 83.0591 111.555 84.5274 113.571 86.4762C115.587 88.425 117.012 91.1534 116.972 94.0127L116.817 93.9287C119.394 91.9396 121.521 88.6065 120.48 85.2633C121.612 88.6838 119.441 92.1714 116.784 94.2076V93.9993C116.784 91.2172 115.352 88.583 113.376 86.6846C111.401 84.7862 108.918 83.2742 107.05 81.1674L107.328 81.0263C107.923 82.8676 109.227 84.4468 110.352 86.0058C105.578 84.3359 102.023 79.2959 101.838 74.3097L102.097 74.3937C101.781 74.8909 101.566 75.4459 101.465 76.0266C101.351 76.841 101.382 77.6691 101.556 78.4727C100.799 77.2244 100.29 75.8417 100.057 74.4004C99.8779 73.1882 99.8373 71.9594 99.9365 70.738C100.007 69.6964 100.219 68.1306 100.014 67.1058C99.6778 65.278 98.2229 66.2188 97.3594 67.1058V67.0958Z" fill="#B16668"/>
<path d="M128.977 57.8692C127.791 56.2698 125.368 52.8057 123.567 52.8057C121.706 52.8057 123.026 56.9653 123.12 58.81C123.215 60.6546 120.859 62.506 119.697 64.7773C118.571 66.9647 119.468 70.6977 121.813 72.5053C124.837 72.5625 130.936 73.1572 133.432 72.0517C135.929 70.9463 137.915 68.3826 138.882 66.7127C139.85 65.0428 139.92 63.4535 138.052 62.5967C134.108 60.7857 130.889 59.3073 129.652 58.5345C129.59 58.5035 129.532 58.4663 129.478 58.4236C129.276 58.2734 129.106 58.0851 128.977 57.8692Z" fill="#37474F"/>
<path d="M135.815 62.4321C134.135 62.8387 133.463 63.598 133.399 64.5523C133.335 65.5065 133.815 65.9534 134.477 66.4607C135.139 66.9681 136.093 67.0219 135.821 66.6287C135.549 66.2356 135.764 65.2847 136.268 65.3923C136.772 65.4998 136.325 66.1214 136.268 66.5716C136.211 67.0219 136.718 67.5259 137.276 67.6401C137.834 67.7543 138.096 67.4385 138.62 66.7699C139.144 66.1012 138.052 65.0899 139.07 65.1503C139.222 65.1503 139.232 65.8223 139.369 65.6711C139.689 65.2814 139.968 63.7727 139.101 63.1007C137.864 62.1599 137.384 62.0524 135.815 62.4321Z" fill="#263238"/>
<path d="M137.239 67.1631C137.016 67.7649 136.757 68.3529 136.463 68.9237C136.14 69.49 135.659 69.95 135.079 70.2476C134.356 70.5742 133.571 70.7415 132.777 70.7381C132.005 70.7561 131.232 70.7337 130.462 70.6709C129.609 70.6071 128.759 70.5164 127.912 70.4089C127.875 70.4089 127.875 70.4794 127.912 70.4861C128.72 70.6541 129.539 70.7818 130.368 70.8692C131.227 70.9701 132.091 71.0239 132.955 71.0305C134.383 71.0137 135.791 70.5802 136.651 69.3505C137.079 68.7157 137.4 68.0155 137.602 67.2773C137.639 67.1194 137.31 67.0018 137.239 67.1631Z" fill="black"/>
<path d="M53.6928 96.1194C53.6928 96.1194 61.4443 96.7444 67.9963 94.9703C74.5483 93.1962 76.6382 89.3423 84.625 90.478C88.0824 90.9686 89.3861 91.4625 91.224 92.662C93.6298 94.2311 96.2371 93.791 96.3514 90.1823C96.5395 84.047 90.4983 75.9561 98.8613 65.0327C93.2736 69.2495 90.1253 67.9526 76.7088 75.9393C68.2887 80.949 58.2389 85.9319 53.6928 96.1194Z" fill="#37474F"/>
<path d="M77.1019 77.7371C78.5899 80.2527 79.182 83.1981 78.7819 86.0934C78.6106 87.3231 78.1838 88.4857 77.9184 89.6651C77.8008 90.1892 77.7605 92.6891 78.5702 92.8335C73.3571 91.8253 68.7147 88.8911 65.567 84.615C65.4489 85.2625 65.4717 85.9278 65.6341 86.5657C65.7964 87.2035 66.0945 87.7988 66.5078 88.311C64.6901 87.8103 63.0538 86.8292 61.3469 86.0295C61.1957 85.9523 61.0378 85.8851 60.8832 85.8145C53.7264 82.9619 50.5344 86.51 49.224 93.3947C50.0659 92.2855 51.1187 91.3537 52.3219 90.6529C50.7845 94.6054 50.5491 98.9456 51.6499 103.041C51.5021 103.975 51.3912 104.946 51.3139 105.954C51.0552 109.754 51.371 112.755 52.0531 115.154C46.9762 113.474 42.1142 111.458 40.451 104.624C41.2272 105.551 41.5094 105.927 42.5813 106.478C38.2939 99.0865 37.9176 90.2799 40.535 82.1387C43.5288 72.2535 52.715 62.3147 63.8669 64.1559C62.473 64.5158 61.2236 65.2959 60.2885 66.3903C63.4099 65.4932 67.2874 65.8662 71.5646 67.4756C74.6995 68.6516 77.4245 71.4539 79.091 74.5316C79.1582 74.6492 79.2187 74.7668 79.2792 74.8676C80.4149 77.0852 80.7139 79.622 80.9962 82.0916C79.8809 80.4864 78.5731 79.024 77.1019 77.7371Z" fill="#263238"/>
<path d="M74.7768 82.3906C74.7446 78.2562 73.5132 74.22 71.232 70.7717C72.8609 70.8581 74.4706 71.1655 76.0167 71.6856C75.2353 70.2926 74.179 69.0729 72.912 68.1005C72.4785 67.8671 72.0295 67.6639 71.568 67.4923C67.2907 65.8829 63.4133 65.5099 60.2919 66.4071C61.2311 65.3115 62.4854 64.5324 63.8837 64.176C52.7319 62.3179 43.5456 72.2736 40.5519 82.1587C38.22 89.4163 38.2671 97.2015 41.3415 104.039C41.0674 101.548 40.9406 99.0424 40.9618 96.5362C40.9896 95.1686 41.1018 93.8041 41.2978 92.4504C41.3952 91.7784 41.5162 91.1064 41.6573 90.4344C41.7447 90.0245 41.7951 88.9997 42.0773 88.6906C41.3715 89.4701 40.8309 90.3845 40.488 91.3786C40.824 88.2403 42.1109 85.2634 43.6565 82.5485C45.0878 80.0386 47.4567 78.0024 49.9968 77.3271C49.5533 76.9239 48.2597 76.9306 47.4802 77.1019C48.7838 75.3144 51.613 75.2607 53.9045 75.9394C55.5005 76.4098 57.3989 77.6194 59.0016 78.0427C59.8079 78.2797 60.633 78.4472 61.4679 78.5434C61.8833 78.582 62.3009 78.5921 62.7178 78.5736C63 78.5736 63.6014 78.3586 63.8534 78.4426C62.988 78.1444 62.2079 77.6407 61.58 76.9747C60.952 76.3087 60.495 75.5003 60.2482 74.6189C62.3784 76.5005 65.3822 76.9071 68.1374 77.6093C70.8926 78.3115 73.8831 79.6891 74.7768 82.3906Z" fill="#F0997A"/>
<path d="M120.268 64.5657C120.268 64.5657 114.243 66.2759 110.188 66.2759C106.132 66.2759 102.359 62.8521 102.359 62.8521C102.359 62.8521 101.902 63.1343 101.986 64.0516C103.827 67.2402 113.208 72.9354 122.368 73.1807L121.424 72.2601C118.955 71.8698 116.526 71.265 114.163 70.4524C110.608 69.1856 108.686 67.5561 108.686 67.5561C108.686 67.5561 114.529 67.7913 120.211 65.5569L120.268 64.5657Z" fill="#CB35DE"/>
<path opacity="0.2" d="M120.268 64.5657C120.268 64.5657 114.243 66.2759 110.188 66.2759C106.132 66.2759 102.359 62.8521 102.359 62.8521C102.359 62.8521 101.902 63.1343 101.986 64.0516C103.827 67.2402 113.208 72.9354 122.368 73.1807L121.424 72.2601C118.955 71.8698 116.526 71.265 114.163 70.4524C110.608 69.1856 108.686 67.5561 108.686 67.5561C108.686 67.5561 114.529 67.7913 120.211 65.5569L120.268 64.5657Z" fill="white"/>
<path d="M139.564 62.496C139.475 62.4296 139.375 62.3796 139.269 62.3481C138.261 61.9382 132.76 59.7072 130.402 58.2254C130.244 58.1246 130.066 57.9869 129.871 57.839C129.095 57.2409 128.029 56.4245 126.931 57.1032C125.748 57.8323 125.61 58.6454 125.439 59.6769C125.399 59.9222 125.355 60.1877 125.294 60.4699C125.18 60.9873 124.286 61.8677 123.329 62.8017C122.139 63.9677 120.792 65.2915 120.305 66.4977C119.431 68.712 120.658 72.5457 122.529 73.4328L122.606 73.4529C122.748 73.4529 124.404 73.5403 126.302 73.5773L126.356 73.6142L126.383 73.5806C126.984 73.5806 127.613 73.6008 128.221 73.6008C129.421 73.6322 130.622 73.5681 131.813 73.4093C133.409 73.0733 135.445 71.8166 136.87 70.812C138.358 69.7608 139.401 68.1927 139.796 66.4137C140.287 64.2936 140.203 62.9697 139.564 62.496ZM139.655 64.9757C138.942 65.6986 138.171 66.3616 137.35 66.9581C137.474 66.4675 137.599 65.9937 137.703 65.5704C138.419 65.1708 139.094 64.7027 139.719 64.1726C139.709 64.4179 139.689 64.6867 139.655 64.9824V64.9757ZM139.514 65.8425C139.309 66.4608 138.402 67.6166 136.947 68.5305C137.031 68.1945 137.115 67.8585 137.202 67.5225C138.049 66.9707 138.837 66.3334 139.554 65.6208C139.544 65.7048 139.527 65.7787 139.514 65.856V65.8425ZM133.13 68.5037C132.925 68.964 132.74 69.4209 132.579 69.8477C130.176 69.8411 127.775 69.6941 125.388 69.4075C125.471 68.6647 125.592 67.9267 125.751 67.1966C128.466 67.8014 131.564 68.4163 133.147 68.5104L133.13 68.5037ZM137.649 63.1949C137.8 63.3797 137.753 63.5947 137.649 63.9912L137.629 64.0819C137.14 64.3427 136.602 64.4984 136.05 64.5389C136.524 64.02 137.068 63.5699 137.666 63.2016L137.649 63.1949ZM139.554 63.1713C139.616 63.3297 139.656 63.496 139.672 63.6653C139.097 64.1744 138.479 64.632 137.824 65.0328L137.992 64.3608C138.564 64.0283 139.095 63.6278 139.571 63.168L139.554 63.1713ZM135.707 64.9488H135.845C136.424 64.9454 136.996 64.8218 137.525 64.5859C137.474 64.7909 137.414 65.0328 137.347 65.2982C136.559 65.7285 135.707 66.0292 134.823 66.1886C135.1 65.7608 135.4 65.3491 135.724 64.9555L135.707 64.9488ZM134.541 66.6456C135.469 66.5252 136.37 66.248 137.206 65.8257C137.091 66.2793 136.964 66.7766 136.836 67.2773C135.904 67.819 134.846 68.1052 133.768 68.1072C134.02 67.6233 134.276 67.1294 134.558 66.6523L134.541 66.6456ZM133.58 68.5171H133.597C134.673 68.5383 135.738 68.2949 136.698 67.8081C136.611 68.1441 136.52 68.4801 136.436 68.8161C135.386 69.3864 134.227 69.7298 133.036 69.8241C133.214 69.4075 133.392 68.9673 133.597 68.5238L133.58 68.5171ZM139.128 62.7345L139.255 62.7849L139.309 62.8219C138.935 63.1815 138.529 63.5065 138.096 63.7929C138.142 63.6573 138.159 63.5135 138.145 63.371C138.131 63.2285 138.087 63.0905 138.015 62.9664C138.291 62.8127 138.597 62.7209 138.912 62.6976C138.992 62.7 139.07 62.7148 139.144 62.7413L139.128 62.7345ZM129.609 58.1582C129.79 58.3043 129.978 58.4411 130.173 58.5681C132.189 59.8349 136.453 61.6392 138.338 62.412C138.118 62.4901 137.906 62.5868 137.703 62.7009C137.189 62.4358 136.656 62.2111 136.107 62.0289L135.647 61.8576C133.479 61.0512 129.894 59.7105 127.374 57.3317C128.167 57.0494 128.937 57.6374 129.625 58.1649L129.609 58.1582ZM125.822 59.7441C125.98 58.7865 126.091 58.1381 126.998 57.5299C129.582 60.023 133.281 61.404 135.505 62.2339L135.966 62.4053C136.601 62.6438 137.021 62.8051 137.31 62.9429C136.647 63.3859 136.051 63.921 135.539 64.5321C134.195 64.3473 128.634 61.9416 125.671 60.6009C125.671 60.6009 125.671 60.5673 125.688 60.5539C125.751 60.2717 125.795 60.0029 125.839 59.7509L125.822 59.7441ZM125.486 60.9705C126.659 61.4981 133.187 64.428 135.23 64.8849C134.888 65.3236 134.573 65.7825 134.286 66.2592C132.166 66.323 125.214 63.5544 123.732 62.9529C124.399 62.3656 124.996 61.7026 125.509 60.9773L125.486 60.9705ZM123.416 63.2587C124.461 63.6888 131.457 66.5213 134.047 66.659C133.775 67.1361 133.526 67.6233 133.301 68.1072C130.711 68.0131 122.768 66.1181 121.178 65.735C121.857 64.8464 122.614 64.02 123.44 63.2654L123.416 63.2587ZM120.661 66.659C120.741 66.4634 120.836 66.2746 120.947 66.0945C121.464 66.2189 123.252 66.6523 125.352 67.1025C125.189 67.8471 125.066 68.5997 124.982 69.3571C122.791 69.1185 120.95 68.8699 120.426 68.7993C120.344 68.0777 120.433 67.347 120.684 66.6657L120.661 66.659ZM120.48 69.2294C121.125 69.3168 122.879 69.5654 124.945 69.7737C124.787 71.8637 125.234 72.7171 125.718 73.1741C124.172 73.1337 122.892 73.0766 122.647 73.0632C121.672 72.576 120.775 70.9161 120.503 69.2361L120.48 69.2294ZM131.591 73.0497C130.583 73.2211 128.372 73.2278 126.41 73.1875C125.933 72.8851 125.167 72.3576 125.348 69.8275C127.586 70.0661 130.113 70.2777 131.961 70.2777H132.424C132.105 71.189 131.835 72.1165 131.615 73.0565L131.591 73.0497ZM132.871 70.2408C134.065 70.1677 135.232 69.8546 136.302 69.3201C136.09 70.1299 135.925 70.7717 135.862 71.0001C134.669 71.7864 133.241 72.6062 132.031 72.9355C132.179 72.4685 132.455 71.4571 132.895 70.2475L132.871 70.2408ZM136.624 70.4961L136.369 70.6742C136.47 70.2811 136.618 69.7133 136.786 69.0648C137.674 68.5682 138.47 67.9214 139.138 67.1529C138.673 68.4994 137.803 69.6693 136.648 70.5029L136.624 70.4961Z" fill="#CB35DE"/>
<path d="M122.62 73.2714C120.906 72.4516 119.629 68.7825 120.496 66.5918C121.363 64.401 125.22 61.7702 125.489 60.5169C125.808 59.0586 125.664 58.1279 127.038 57.2812C128.271 56.5185 129.484 57.8927 130.294 58.4034L127.898 56.1959C127.583 56.04 127.228 55.9829 126.88 56.032C126.531 56.0812 126.206 56.2343 125.946 56.4714C125.015 57.3047 124.884 59.5223 124.266 60.4329C123.648 61.3434 121.914 62.5833 120.271 64.3574C118.628 66.1314 117.355 71.4537 122.62 73.2714Z" fill="#CB35DE"/>
<path d="M120.768 65.4225C120.997 65.4225 121.182 65.2375 121.182 65.0092C121.182 64.781 120.997 64.5959 120.768 64.5959C120.54 64.5959 120.355 64.781 120.355 65.0092C120.355 65.2375 120.54 65.4225 120.768 65.4225Z" fill="#E0E0E0"/>
<path d="M107.197 67.734C107.617 67.734 107.957 67.3941 107.957 66.9747C107.957 66.5553 107.617 66.2153 107.197 66.2153C106.778 66.2153 106.438 66.5553 106.438 66.9747C106.438 67.3941 106.778 67.734 107.197 67.734Z" fill="#E0E0E0"/>
<path d="M124.982 60.9503C125.156 60.9503 125.298 60.8089 125.298 60.6344C125.298 60.46 125.156 60.3186 124.982 60.3186C124.807 60.3186 124.666 60.46 124.666 60.6344C124.666 60.8089 124.807 60.9503 124.982 60.9503Z" fill="#E0E0E0"/>
</svg>
