<svg width="48" height="48" viewBox="0 0 48 48" fill="none" xmlns="http://www.w3.org/2000/svg">
<path d="M21.55 41.3002H9C8.2 41.3002 7.5 41.0002 6.9 40.4002C6.3 39.8002 6 39.1002 6 38.3002V9.2002C6 8.4002 6.25833 7.7002 6.775 7.1002C7.29167 6.5002 7.73333 6.2002 8.1 6.2002H18.2C18.4333 5.03353 19.0083 4.0752 19.925 3.3252C20.8417 2.5752 21.9 2.2002 23.1 2.2002C24.3 2.2002 25.3583 2.5752 26.275 3.3252C27.1917 4.0752 27.7667 5.03353 28 6.2002H38.1C38.9 6.2002 39.6 6.5002 40.2 7.1002C40.8 7.7002 41.1 8.4002 41.1 9.2002V19.3502H38.1V9.2002H32.8V15.7002H14.3V9.2002H9V38.3002H21.55V41.3002ZM31 40.0502L23 32.0502L25.15 29.9002L31 35.7502L42.95 23.8002L45.1 25.9502L31 40.0502ZM24 9.0002C24.5667 9.0002 25.0417 8.80853 25.425 8.4252C25.8083 8.04186 26 7.56686 26 7.0002C26 6.43353 25.8083 5.95853 25.425 5.5752C25.0417 5.19186 24.5667 5.0002 24 5.0002C23.4333 5.0002 22.9583 5.19186 22.575 5.5752C22.1917 5.95853 22 6.43353 22 7.0002C22 7.56686 22.1917 8.04186 22.575 8.4252C22.9583 8.80853 23.4333 9.0002 24 9.0002Z" fill="#003070"/>
</svg>
