<svg width="48" height="48" viewBox="0 0 48 48" fill="none" xmlns="http://www.w3.org/2000/svg">
<path d="M23.9991 34C24.4664 34 24.8583 33.842 25.175 33.5259C25.4917 33.2098 25.65 32.8181 25.65 32.3509C25.65 31.8836 25.492 31.4917 25.1759 31.175C24.8598 30.8583 24.4681 30.7 24.0009 30.7C23.5336 30.7 23.1417 30.858 22.825 31.1741C22.5083 31.4902 22.35 31.8819 22.35 32.3491C22.35 32.8164 22.508 33.2083 22.8241 33.525C23.1402 33.8417 23.5319 34 23.9991 34ZM22.65 26.35H25.65V13.7H22.65V26.35ZM24.0133 44C21.2555 44 18.6638 43.475 16.2383 42.425C13.8128 41.375 11.6917 39.9417 9.875 38.125C8.05833 36.3083 6.625 34.186 5.575 31.7579C4.525 29.33 4 26.7356 4 23.975C4 21.2144 4.525 18.6201 5.575 16.192C6.625 13.764 8.05833 11.65 9.875 9.85C11.6917 8.05 13.814 6.625 16.2421 5.575C18.6701 4.525 21.2644 4 24.025 4C26.7856 4 29.3799 4.525 31.808 5.575C34.236 6.625 36.35 8.05 38.15 9.85C39.95 11.65 41.375 13.7667 42.425 16.2C43.475 18.6333 44 21.2289 44 23.9867C44 26.7445 43.475 29.3362 42.425 31.7617C41.375 34.1872 39.95 36.3053 38.15 38.1158C36.35 39.9263 34.2333 41.3597 31.8 42.4158C29.3667 43.4719 26.7711 44 24.0133 44ZM24.025 41C28.7417 41 32.75 39.3417 36.05 36.025C39.35 32.7083 41 28.6917 41 23.975C41 19.2583 39.3531 15.25 36.0594 11.95C32.7656 8.65 28.7458 7 24 7C19.3 7 15.2917 8.64687 11.975 11.9406C8.65833 15.2344 7 19.2542 7 24C7 28.7 8.65833 32.7083 11.975 36.025C15.2917 39.3417 19.3083 41 24.025 41Z" fill="#ED2308"/>
</svg>
